track,note,velocity,time
1,72,29,660
1,77,29,20
1,81,29,20
1,84,36,20
1,84,0,240
1,72,0,0
1,77,0,0
1,81,0,0
1,81,27,0
1,84,34,0
1,77,27,0
1,72,27,0
1,72,0,240
1,81,0,0
1,84,0,0
1,77,0,0
1,84,34,0
1,72,27,0
1,81,27,0
1,77,27,0
1,77,0,180
1,84,0,0
1,72,0,0
1,81,0,0
1,72,29,0
1,77,29,20
1,81,29,20
1,84,36,20
1,84,0,240
1,72,0,0
1,77,0,0
1,81,0,0
1,77,27,0
1,72,27,0
1,84,34,0
1,81,27,0
1,81,0,240
1,77,0,0
1,72,0,0
1,84,0,0
1,77,27,0
1,84,34,0
1,81,27,0
1,72,27,0
1,72,0,180
1,77,0,0
1,84,0,0
1,81,0,0
1,72,29,0
1,77,29,20
1,81,29,20
1,84,36,20
1,84,0,240
1,72,0,0
1,77,0,0
1,81,0,0
1,81,27,0
1,84,34,0
1,72,27,0
1,77,27,0
1,77,0,240
1,81,0,0
1,84,0,0
1,72,0,0
1,81,27,0
1,77,27,0
1,84,34,0
1,72,27,0
1,72,0,180
1,81,0,0
1,77,0,0
1,84,0,0
1,72,29,0
1,77,29,20
1,81,29,20
1,84,36,20
1,84,0,240
1,72,0,0
1,77,0,0
1,81,0,0
1,81,27,0
1,84,34,0
1,77,27,0
1,72,27,0
1,72,0,240
1,81,0,0
1,84,0,0
1,77,0,0
1,84,34,0
1,72,27,0
1,81,27,0
1,77,27,0
1,77,0,180
1,84,0,0
1,72,0,0
1,81,0,0
1,72,29,0
1,77,29,20
1,81,29,20
1,84,36,20
1,84,0,240
1,72,0,0
1,77,0,0
1,81,0,0
1,77,27,0
1,72,27,0
1,84,34,0
1,81,27,0
1,81,0,240
1,77,0,0
1,72,0,0
1,84,0,0
1,77,27,0
1,84,34,0
1,81,27,0
1,72,27,0
1,72,0,180
1,77,0,0
1,84,0,0
1,81,0,0
1,72,29,0
1,77,29,20
1,81,29,20
1,84,36,20
1,84,0,240
1,72,0,0
1,77,0,0
1,81,0,0
1,84,34,0
1,72,27,0
1,81,27,0
1,77,27,0
1,77,0,240
1,84,0,0
1,72,0,0
1,81,0,0
1,77,27,0
1,72,27,0
1,84,34,0
1,81,27,0
1,81,0,180
1,77,0,0
1,72,0,0
1,84,0,0
1,72,29,0
1,77,29,20
1,81,29,20
1,84,36,20
1,84,0,240
1,72,0,0
1,77,0,0
1,81,0,0
1,81,27,0
1,77,27,0
1,84,34,0
1,72,27,0
1,72,0,240
1,81,0,0
1,77,0,0
1,84,0,0
1,81,27,0
1,84,34,0
1,72,27,0
1,77,27,0
1,77,0,180
1,81,0,0
1,84,0,0
1,72,0,0
1,72,29,0
1,77,29,20
1,81,29,20
1,84,36,20
1,84,0,240
1,72,0,0
1,77,0,0
1,81,0,0
1,84,34,0
1,72,27,0
1,77,27,0
1,81,27,0
1,81,0,240
1,84,0,0
1,72,0,0
1,77,0,0
1,81,27,0
1,84,34,0
1,77,27,0
1,72,27,0
1,72,0,180
1,81,0,0
1,84,0,0
1,77,0,0
1,76,29,0
1,72,29,0
1,84,36,60
1,82,29,0
1,76,0,220
1,72,0,20
1,84,0,0
1,84,34,0
1,72,27,0
1,82,27,0
1,76,27,0
1,82,0,20
1,82,0,220
1,84,0,0
1,72,0,0
1,76,0,0
1,76,27,0
1,72,27,0
1,84,34,0
1,82,27,0
1,82,0,180
1,76,0,0
1,72,0,0
1,84,0,0
1,76,29,0
1,72,29,0
1,82,29,60
1,84,36,0
1,76,0,220
1,72,0,20
1,84,0,0
1,82,27,0
1,76,27,0
1,84,34,0
1,72,27,0
1,82,0,20
1,84,0,220
1,82,0,0
1,76,0,0
1,72,0,0
1,82,27,0
1,84,34,0
1,72,27,0
1,76,27,0
1,76,0,180
1,82,0,0
1,84,0,0
1,72,0,0
1,76,29,0
1,72,29,0
1,84,36,60
1,82,29,0
1,76,0,220
1,72,0,20
1,84,0,0
1,84,34,0
1,72,27,0
1,82,27,0
1,76,27,0
1,82,0,20
1,82,0,220
1,84,0,0
1,72,0,0
1,76,0,0
1,76,27,0
1,72,27,0
1,84,34,0
1,82,27,0
1,82,0,180
1,76,0,0
1,72,0,0
1,84,0,0
1,76,29,0
1,72,29,0
1,82,29,60
1,84,36,0
1,76,0,220
1,72,0,20
1,84,0,0
1,82,27,0
1,76,27,0
1,84,34,0
1,72,27,0
1,82,0,20
1,84,0,220
1,82,0,0
1,76,0,0
1,72,0,0
1,82,27,0
1,84,34,0
1,72,27,0
1,76,27,0
1,76,0,180
1,82,0,0
1,84,0,0
1,72,0,0
1,72,29,0
1,76,29,0
1,82,29,60
1,84,36,0
1,76,0,220
1,72,0,20
1,84,0,0
1,84,34,0
1,72,27,0
1,76,27,0
1,82,27,0
1,82,0,20
1,76,0,220
1,84,0,0
1,72,0,0
1,82,0,0
1,82,28,0
1,84,36,0
1,76,28,0
1,72,28,0
1,72,0,180
1,82,0,0
1,84,0,0
1,76,0,0
1,76,31,0
1,72,31,0
1,84,39,60
1,82,31,0
1,76,0,220
1,72,0,20
1,84,0,0
1,84,37,0
1,72,29,0
1,82,29,0
1,76,29,0
1,82,0,20
1,82,0,220
1,84,0,0
1,72,0,0
1,76,0,0
1,76,29,0
1,72,29,0
1,84,37,0
1,82,29,0
1,82,0,180
1,76,0,0
1,72,0,0
1,84,0,0
1,76,31,0
1,72,31,0
1,82,29,60
1,84,36,0
1,76,0,220
1,72,0,20
1,84,0,0
1,82,27,0
1,76,27,0
1,84,34,0
1,72,27,0
1,82,0,20
1,84,0,220
1,82,0,0
1,76,0,0
1,72,0,0
1,82,27,0
1,84,34,0
1,72,27,0
1,76,27,0
1,76,0,180
1,82,0,0
1,84,0,0
1,72,0,0
1,76,29,0
1,72,29,0
1,84,36,60
1,82,29,0
1,76,0,220
1,72,0,20
1,84,0,0
1,76,27,0
1,84,34,0
1,82,27,0
1,72,27,0
1,82,0,20
1,82,0,220
1,76,0,0
1,84,0,0
1,72,0,0
1,82,27,0
1,76,27,0
1,84,34,0
1,72,27,0
1,72,0,180
1,82,0,0
1,76,0,0
1,84,0,0
1,72,29,0
1,77,29,20
1,81,29,20
1,84,36,20
1,84,0,240
1,72,0,0
1,77,0,0
1,81,0,0
1,81,27,0
1,84,34,0
1,77,27,0
1,72,27,0
1,72,0,240
1,81,0,0
1,84,0,0
1,77,0,0
1,84,34,0
1,72,27,0
1,81,27,0
1,77,27,0
1,77,0,180
1,84,0,0
1,72,0,0
1,81,0,0
1,72,29,0
1,77,29,20
1,81,29,20
1,84,36,20
1,84,0,240
1,72,0,0
1,77,0,0
1,81,0,0
1,77,27,0
1,72,27,0
1,84,34,0
1,81,27,0
1,81,0,240
1,77,0,0
1,72,0,0
1,84,0,0
1,84,34,0
1,72,27,0
1,81,27,0
1,77,27,0
1,77,0,180
1,84,0,0
1,72,0,0
1,81,0,0
1,72,29,0
1,77,29,20
1,81,29,20
1,84,36,20
1,84,0,240
1,72,0,0
1,77,0,0
1,81,0,0
1,77,27,0
1,84,34,0
1,81,27,0
1,72,27,0
1,72,0,240
1,77,0,0
1,84,0,0
1,81,0,0
1,81,27,0
1,77,27,0
1,84,34,0
1,72,27,0
1,72,0,180
1,81,0,0
1,77,0,0
1,84,0,0
1,72,29,0
1,77,29,20
1,81,29,20
1,84,36,20
1,84,0,240
1,72,0,0
1,77,0,0
1,81,0,0
1,81,27,0
1,84,34,0
1,77,27,0
1,72,27,0
1,72,0,240
1,81,0,0
1,84,0,0
1,77,0,0
1,84,34,0
1,72,27,0
1,77,27,0
1,81,27,0
1,81,0,180
1,84,0,0
1,72,0,0
1,77,0,0
1,72,29,0
1,75,29,20
1,80,29,20
1,84,36,20
1,84,0,240
1,72,0,0
1,75,0,0
1,80,0,0
1,75,27,0
1,84,33,0
1,80,27,0
1,72,27,0
1,72,0,240
1,75,0,0
1,84,0,0
1,80,0,0
1,80,27,0
1,75,27,0
1,84,33,0
1,72,27,0
