track,note,velocity,time
1,60,42,0
1,68,50,0
1,68,0,720
1,70,50,0
1,70,0,60
1,68,46,0
1,68,0,60
1,67,46,0
1,67,0,60
1,68,46,0
1,68,0,60
1,60,0,0
1,72,54,0
1,61,45,0
1,72,0,720
1,70,45,0
1,70,0,240
1,61,0,0
1,60,42,0
1,68,50,0
1,68,0,1440
1,60,0,0
1,69,50,0
1,69,0,480
1,63,42,0
1,70,50,0
1,70,0,480
1,72,50,240
1,72,0,60
1,70,46,0
1,70,0,60
1,69,46,0
1,69,0,60
1,70,46,0
1,70,0,60
1,63,0,0
1,73,54,0
1,63,45,0
1,63,0,480
1,68,42,0
1,73,0,240
1,72,45,0
1,72,0,240
1,68,0,0
1,67,42,0
1,70,50,0
1,70,0,1440
1,67,0,0
1,71,50,0
1,71,0,480
1,72,63,0
1,63,63,0
1,72,0,840
1,68,52,0
1,68,0,120
1,63,0,0
1,75,64,0
1,68,64,0
1,63,55,0
1,75,0,840
1,72,60,0
1,72,0,120
1,63,0,0
1,68,0,0
1,65,55,0
1,68,64,0
1,77,70,0
1,77,0,840
1,73,67,0
1,73,0,120
1,68,0,0
1,65,0,0
1,68,70,120
1,73,75,30
1,77,78,30
1,80,82,30
1,77,0,750
1,80,0,240
1,79,63,0
1,79,0,220
1,77,59,20
1,77,0,220
1,75,56,20
1,75,0,220
1,73,0,20
1,68,0,0
1,70,51,0
1,73,60,0
1,73,0,480
1,70,0,0
1,68,44,0
1,72,52,0
1,72,0,480
1,68,0,0
1,63,46,0
1,75,55,0
1,63,0,480
1,63,39,0
1,75,0,240
1,72,51,0
1,72,0,240
1,63,0,0
1,63,45,0
1,70,53,0
1,70,51,0
1,70,0,30
1,72,46,0
1,72,0,30
1,70,51,0
1,70,0,30
1,72,45,0
1,72,0,30
1,70,51,0
1,70,0,40
1,69,46,0
1,69,0,40
1,70,46,0
1,70,0,40
1,73,57,0
1,73,0,120
1,72,48,0
1,72,0,120
1,70,0,0
1,63,0,0
1,75,55,0
1,75,0,120
1,73,47,0
1,73,0,120
1,72,51,0
1,72,0,80
1,73,47,0
1,73,0,80
1,70,47,0
1,70,0,80
1,60,34,0
1,68,50,0
1,68,0,720
1,70,50,0
1,70,0,60
1,68,46,0
1,68,0,60
1,67,46,0
1,67,0,60
1,68,46,0
1,68,0,60
1,60,0,0
1,72,54,0
1,61,45,0
1,72,0,720
1,70,45,0
1,70,0,240
1,61,0,0
1,60,42,0
1,68,50,0
1,68,0,960
1,60,0,0
1,70,59,960
1,70,0,480
1,72,54,240
1,72,0,60
1,70,46,0
1,70,0,60
1,69,49,0
1,69,0,60
1,70,50,0
1,70,0,60
1,73,62,0
1,68,62,0
1,73,0,720
1,72,50,0
1,72,0,240
1,68,0,0
1,67,57,0
1,70,57,0
1,70,0,960
1,67,0,0
1,63,36,930
1,72,63,30
1,63,0,60
1,72,0,780
1,68,52,0
1,63,43,90
1,68,0,30
1,75,64,0
1,63,0,90
1,75,0,750
1,72,60,0
1,72,0,60
1,65,44,30
1,77,73,30
1,65,0,60
1,77,0,1380
1,69,59,0
1,75,70,0
1,75,0,240
1,69,0,0
1,70,52,0
1,73,62,0
1,73,0,240
1,70,0,0
1,68,59,0
1,72,70,0
1,72,0,480
1,75,63,0
1,75,0,480
1,68,0,0
1,67,59,0
1,73,70,0
1,73,0,480
1,70,60,0
1,70,0,480
1,67,0,0
1,61,59,0
1,70,70,0
1,61,0,480
1,60,34,0
1,60,0,120
1,61,32,0
1,61,0,120
1,63,36,0
1,63,0,120
1,61,31,0
1,61,0,120
1,70,0,0
1,60,37,0
1,68,45,0
1,68,0,480
1,60,0,0
1,77,78,450
1,89,91,30
1,77,0,60
1,89,0,660
1,87,65,0
1,84,63,34
1,87,0,1
1,84,0,34
1,81,62,0
1,77,61,34
1,81,0,0
1,77,0,34
1,75,59,0
1,72,57,34
1,75,0,1
1,69,56,33
1,72,0,1
1,69,0,34
1,65,78,0
1,65,0,240
1,60,45,600
1,63,54,0
1,63,0,110
1,60,0,0
1,60,48,10
1,63,57,0
1,63,0,960
1,60,0,0
1,58,38,0
1,61,45,0
1,61,0,480
1,58,0,0
1,75,78,450
1,87,91,30
1,75,0,60
1,87,0,660
1,85,65,0
1,82,63,34
1,85,0,1
1,82,0,34
1,79,62,0
1,75,61,34
1,79,0,0
1,75,0,34
1,73,59,0
1,70,57,34
1,73,0,1
1,67,56,33
1,70,0,1
1,67,0,34
1,63,78,0
1,63,0,240
1,58,45,600
1,61,54,0
1,61,0,110
1,58,0,0
1,58,48,10
1,61,57,0
1,61,0,960
1,58,0,0
1,56,38,0
1,60,45,0
1,60,0,480
1,56,0,0
1,51,69,2280
1,56,69,0
1,63,69,0
1,63,0,110
1,56,0,0
1,51,0,0
1,63,83,10
1,63,0,960
1,62,46,0
1,62,0,240
1,64,46,0
1,65,54,240
1,64,0,12
1,65,0,228
1,69,46,0
1,70,54,240
1,69,0,12
1,70,0,228
1,73,46,0
1,74,55,240
1,73,0,12
1,74,0,228
1,76,46,0
1,77,55,240
1,76,0,12
1,77,0,228
1,79,46,0
1,80,55,240
1,79,0,12
1,80,0,228
1,77,46,0
1,77,0,240
1,74,55,0
1,74,0,1200
1,75,50,0
1,75,0,60
1,74,50,0
1,74,0,60
1,72,50,0
1,72,0,60
1,74,50,0
1,74,0,60
1,75,55,0
1,75,0,360
1,77,55,0
1,77,0,110
1,77,55,10
1,77,0,480
1,75,55,0
1,75,0,960
1,76,55,0
1,76,0,480
1,77,55,0
1,77,0,1200
1,79,50,0
1,79,0,60
1,77,47,0
1,77,0,60
1,75,49,0
1,75,0,60
1,77,51,0
1,77,0,60
1,79,53,0
1,79,0,360
1,80,60,0
1,80,0,110
1,80,58,10
1,80,0,480
1,79,55,0
1,79,0,480
1,62,30,1000
1,62,0,40
1,63,30,1
1,63,0,40
1,65,41,0
1,65,0,40
1,63,33,0
1,63,0,40
1,62,33,0
1,62,0,40
1,68,42,0
1,68,0,40
1,67,34,0
1,67,0,40
1,65,34,0
1,65,0,40
1,74,51,1
1,74,0,40
1,72,37,0
1,72,0,40
1,70,36,0
1,77,57,38
1,70,0,2
1,77,0,38
1,75,41,0
1,75,0,40
1,74,44,0
1,74,0,40
1,80,59,0
1,80,0,40
1,79,46,0
1,79,0,40
1,77,48,0
1,77,0,40
1,84,70,0
1,84,0,960
1,84,54,0
1,84,0,34
1,82,53,0
1,82,0,34
1,80,52,1
1,80,0,34
1,79,52,0
1,79,0,34
1,77,51,0
1,77,0,34
1,75,50,0
1,75,0,34
1,74,49,0
1,74,0,34
1,77,56,1
1,77,0,360
1,75,40,0
1,75,0,120
1,74,43,0
1,74,0,180
1,75,40,0
1,75,0,60
1,77,47,0
1,77,0,180
1,75,41,0
1,75,0,60
1,63,52,0
1,63,0,480
1,65,30,520
1,65,0,40
1,67,30,1
1,67,0,40
1,68,41,0
1,68,0,40
1,67,33,0
1,67,0,40
1,65,33,0
1,65,0,40
1,74,42,0
1,74,0,40
1,72,34,0
1,72,0,40
1,70,34,0
1,70,0,40
1,77,51,1
1,77,0,40
1,75,37,0
1,75,0,40
1,74,36,0
1,80,57,38
1,74,0,2
1,80,0,38
1,79,41,0
1,79,0,40
1,77,44,0
1,77,0,40
1,86,59,0
1,86,0,40
1,84,46,0
1,84,0,40
1,82,48,0
1,82,0,40
1,89,69,0
1,89,0,960
1,89,54,0
1,89,0,39
1,87,53,0
1,86,52,39
1,87,0,0
1,86,0,39
1,84,52,0
1,84,0,39
1,82,51,0
1,82,0,39
1,80,50,0
1,80,0,39
1,79,62,6
1,79,0,720
1,79,64,120
1,79,0,120
1,80,71,0
1,80,0,720
1,80,71,120
1,80,0,120
1,82,81,0
1,82,0,720
1,82,78,120
1,82,0,120
1,83,89,0
1,83,0,720
1,83,84,120
1,83,0,120
1,84,92,0
1,84,0,720
1,84,90,120
1,84,0,120
1,86,96,0
1,86,0,720
1,86,99,120
1,86,0,120
1,87,103,0
1,87,0,720
