track,note,velocity,time
1,78,44,1
1,87,44,0
1,92,49,0
1,60,55,0
1,60,0,240
1,78,0,0
1,87,0,0
1,92,0,0
1,61,55,1679
1,88,49,0
1,81,44,0
1,76,44,0
1,76,0,240
1,61,0,0
1,88,0,0
1,81,0,0
1,63,55,1680
1,69,44,0
1,78,49,0
1,83,49,0
1,83,0,240
1,63,0,0
1,69,0,0
1,78,0,0
1,80,49,1680
1,73,44,0
1,68,44,0
1,64,55,0
1,64,0,240
1,80,0,0
1,73,0,0
1,68,0,0
1,80,49,1680
1,75,44,0
1,66,49,0
1,66,0,240
1,75,0,0
1,80,0,0
1,64,49,1680
1,69,44,0
1,76,49,0
1,76,0,240
1,69,0,0
1,64,0,0
1,57,49,1680
1,66,44,0
1,71,49,0
1,71,0,240
1,66,0,0
1,57,0,0
1,56,49,1680
1,61,44,0
1,68,49,0
1,68,0,240
1,61,0,0
1,56,0,0
1,57,61,1680
1,62,61,0
1,66,69,0
1,66,0,240
1,62,0,0
1,57,0,0
1,54,44,3600
1,57,44,0
1,63,49,0
1,63,0,240
1,57,0,0
1,54,0,0
1,56,44,3600
1,61,49,0
1,61,0,240
1,56,0,0
1,54,59,1680
1,59,67,0
1,59,0,240
1,54,0,0
1,56,44,1680
1,61,49,0
1,61,0,240
1,56,0,0
1,54,60,1680
1,59,68,0
1,59,0,240
1,54,0,0
1,56,44,1680
1,61,49,0
1,61,0,240
1,56,0,0
1,68,51,5040
1,73,55,480
1,68,0,20
1,75,53,460
1,73,0,20
1,76,56,460
1,75,0,20
1,76,0,460
1,75,58,0
1,73,52,240
1,75,0,20
1,71,56,220
1,73,0,20
1,71,0,460
1,68,50,0
1,69,50,480
1,68,0,20
1,71,47,460
1,69,0,20
1,73,55,460
1,71,0,20
1,73,0,1900
1,80,55,0
1,80,0,1920
1,69,44,0
1,78,56,0
1,80,57,480
1,78,0,20
1,81,59,460
1,80,0,20
1,81,0,940
1,69,0,0
1,80,56,0
1,71,44,0
1,78,48,480
1,80,0,20
1,76,51,460
1,78,0,20
1,76,0,460
1,80,42,0
1,80,0,480
1,71,0,0
1,72,46,0
1,78,55,0
1,80,47,480
1,78,0,20
1,78,49,460
1,80,0,20
1,76,44,460
1,78,0,20
1,75,52,460
1,76,0,20
1,75,0,460
1,72,0,0
1,73,52,0
1,72,46,480
1,75,56,0
1,73,0,20
1,76,50,460
1,75,0,20
1,76,0,460
1,72,0,0
1,73,57,0
1,73,0,2400
1,73,52,0
1,72,46,480
1,75,56,0
1,73,0,20
1,76,51,460
1,75,0,20
1,76,0,460
1,72,0,0
1,73,56,0
1,73,0,2880
1,72,49,0
1,72,0,960
1,71,50,0
1,71,0,960
1,69,47,0
1,69,0,960
1,63,40,0
1,68,40,0
1,68,0,1920
1,63,0,0
1,49,49,0
1,61,57,0
1,61,0,1920
1,49,0,0
1,68,63,0
1,56,57,0
1,56,0,1920
1,68,0,0
1,57,58,0
1,69,66,0
1,69,0,1920
1,57,0,0
1,68,62,0
1,76,72,0
1,64,62,0
1,64,0,1920
1,76,0,0
1,68,0,0
1,73,75,0
1,66,66,0
1,63,66,0
1,75,75,0
1,75,0,1920
1,73,0,0
1,66,0,0
1,63,0,0
1,73,69,0
1,80,80,0
1,68,69,0
1,68,0,1920
1,80,0,0
1,73,0,0
1,78,81,0
1,73,73,0
1,69,73,0
1,81,81,0
1,81,0,960
1,78,0,0
1,73,0,0
1,69,0,0
1,73,79,0
1,78,79,0
1,81,88,0
1,85,88,0
1,85,0,480
1,73,0,0
1,78,0,0
1,81,0,0
1,87,88,0
1,85,88,0
1,78,78,0
1,75,78,0
1,75,0,480
1,87,0,0
1,85,0,0
1,78,0,0
1,76,80,0
1,80,80,0
1,85,91,0
1,88,91,0
1,88,0,960
1,76,0,0
1,80,0,0
1,85,0,0
1,92,92,0
1,85,92,0
1,80,82,0
1,80,0,960
1,85,0,0
1,92,0,0
1,93,92,0
1,88,82,0
1,81,82,0
1,81,0,480
1,88,0,0
1,93,0,0
1,88,75,0
1,92,84,0
1,80,75,0
1,80,0,480
1,92,0,0
1,88,0,0
1,90,84,0
1,88,75,0
1,78,75,0
1,78,0,480
1,88,0,0
1,90,0,0
1,88,84,0
1,76,75,0
1,76,0,240
1,88,0,0
1,90,84,0
1,78,75,0
1,78,0,180
1,90,0,0
1,92,92,60
1,88,82,0
1,80,82,0
1,80,0,960
1,88,0,0
1,92,0,0
1,85,91,0
1,80,81,0
1,73,81,0
1,73,0,960
1,80,0,0
1,85,0,0
1,90,92,0
1,85,82,0
1,78,82,0
1,78,0,480
1,85,0,0
1,90,0,0
1,85,80,0
1,88,89,0
1,76,80,0
1,76,0,480
1,88,0,0
1,85,0,0
1,87,92,0
1,85,82,0
1,75,82,0
1,75,0,480
1,85,0,0
1,87,0,0
1,88,84,0
1,84,75,0
1,76,75,0
1,76,0,480
1,84,0,0
1,88,0,0
1,85,92,0
1,81,82,0
1,73,82,0
1,73,0,1920
1,81,0,0
1,85,0,0
1,77,77,0
1,83,94,0
1,71,88,0
1,71,0,480
1,83,0,0
1,85,89,0
1,73,80,0
1,73,0,480
1,85,0,0
1,77,0,0
1,80,77,0
1,77,77,0
1,86,96,0
1,74,90,0
1,74,0,480
1,86,0,0
1,85,91,0
1,73,82,0
1,73,0,240
1,85,0,0
1,83,85,0
1,71,79,0
1,71,0,180
1,83,0,0
1,77,0,60
1,80,0,0
1,73,77,0
1,78,77,0
1,81,94,0
1,69,86,0
1,69,0,480
1,81,0,0
1,78,89,0
1,66,81,0
1,66,0,480
1,78,0,0
1,80,88,0
1,68,78,0
1,68,0,480
1,80,0,0
1,81,88,0
1,69,78,0
1,69,0,420
1,81,0,0
1,78,0,60
1,73,0,0
1,69,74,0
1,78,91,0
1,66,83,0
1,75,74,14
1,66,0,466
1,78,0,0
1,80,88,0
1,68,79,0
1,68,0,480
1,80,0,0
1,81,92,0
1,69,86,0
1,69,0,480
1,81,0,0
1,80,90,0
1,68,81,0
1,68,0,240
1,80,0,0
1,78,90,0
1,66,81,0
1,66,0,180
1,78,0,0
1,69,0,60
1,68,72,0
1,73,72,0
1,76,88,0
1,64,81,0
1,75,0,14
1,76,0,466
1,64,0,0
1,73,86,0
1,61,79,0
1,61,0,480
1,73,0,0
1,75,83,0
1,63,75,0
1,63,0,480
1,75,0,0
1,76,83,0
1,64,75,0
1,64,0,420
1,76,0,0
1,73,0,60
1,68,0,0
1,64,81,0
1,70,81,0
1,73,91,0
1,76,100,0
1,76,0,960
1,64,0,0
1,70,0,0
1,73,0,0
1,63,66,0
1,75,66,0
1,75,0,480
1,63,0,0
1,61,59,0
1,73,59,0
1,73,0,420
1,61,0,0
1,63,49,60
1,68,52,0
1,73,62,0
1,73,0,480
1,72,58,0
1,72,0,240
1,70,53,0
1,70,0,240
1,68,0,0
1,63,0,0
1,63,49,0
1,68,49,0
1,72,63,0
1,72,0,720
1,73,61,0
1,73,0,240
1,68,0,0
1,63,0,0
1,61,44,0
1,68,44,0
1,73,49,0
1,73,0,960
1,68,0,0
1,61,0,0
1,68,44,480
1,73,48,480
1,68,0,20
1,75,47,460
1,73,0,20
1,76,49,460
1,75,0,20
1,76,0,460
1,75,51,0
1,73,46,240
1,75,0,20
1,71,49,220
1,73,0,20
1,71,0,460
1,68,44,0
1,69,44,480
1,68,0,20
1,71,40,460
1,69,0,20
1,73,48,460
1,71,0,20
1,73,0,1900
1,80,48,0
1,80,0,1920
1,69,38,0
1,78,49,0
1,80,50,480
1,78,0,20
1,81,51,460
1,80,0,20
1,81,0,940
1,69,0,0
1,80,49,0
1,71,38,0
1,78,41,480
1,80,0,20
1,76,44,460
1,78,0,20
1,76,0,460
1,80,37,0
1,80,0,480
1,71,0,0
1,72,39,0
1,78,48,0
1,80,40,480
1,78,0,20
1,78,42,460
1,80,0,20
1,76,38,460
1,78,0,20
1,75,46,460
1,76,0,20
1,75,0,460
1,72,0,0
1,73,46,0
1,72,39,480
1,75,49,0
1,73,0,20
1,76,44,460
1,75,0,20
