track,note,velocity,time
1,59,80,1
1,59,0,479
1,59,74,0
1,59,0,400
1,59,77,0
1,59,0,80
1,59,80,0
1,59,0,480
1,61,75,0
1,61,0,480
1,61,76,0
1,61,0,480
1,63,78,0
1,63,0,400
1,63,75,0
1,63,0,80
1,63,75,0
1,63,0,480
1,63,73,0
1,63,0,480
1,64,75,0
1,64,0,480
1,64,76,0
1,64,0,400
1,64,80,0
1,64,0,80
1,64,80,0
1,64,0,480
1,63,85,0
1,63,0,400
1,63,85,0
1,63,0,80
1,63,90,0
1,63,0,480
1,63,80,0
1,63,0,400
1,61,64,0
1,61,0,80
1,61,64,0
1,61,0,480
1,61,64,0
1,61,0,400
1,59,46,0
1,59,0,80
1,59,41,0
1,59,0,480
1,59,44,0
1,59,0,400
1,59,47,0
1,59,0,80
1,59,47,0
1,59,0,480
1,59,51,0
1,59,0,400
1,59,61,0
1,59,0,80
1,60,62,0
1,60,0,480
1,62,66,0
1,62,0,480
1,64,72,0
1,64,0,480
1,64,76,0
1,64,0,400
1,64,80,0
1,64,0,80
1,64,83,0
1,64,0,480
1,64,86,0
1,64,0,400
1,64,87,0
1,64,0,80
1,65,89,0
1,65,0,480
1,67,91,0
1,67,0,480
1,68,96,0
1,68,0,320
1,63,91,0
1,63,0,160
1,63,88,0
1,63,0,400
1,61,78,0
1,61,0,80
1,60,75,0
1,60,0,400
1,59,71,0
1,59,0,80
1,59,69,0
1,59,0,400
1,59,44,0
1,59,0,80
1,59,36,0
1,59,0,480
1,59,39,0
1,59,0,420
1,59,40,0
1,59,0,60
1,59,42,0
1,59,0,480
1,60,45,0
1,60,0,480
1,60,49,0
1,60,0,480
1,60,42,0
1,60,0,420
1,60,45,0
1,60,0,60
1,60,46,0
1,60,0,480
1,62,62,0
1,62,0,400
1,62,70,0
1,62,0,80
1,62,61,0
1,62,0,480
1,62,74,0
1,62,0,420
1,62,73,0
1,62,0,60
1,62,73,0
1,62,0,480
1,63,84,0
1,63,0,420
1,64,82,0
1,64,0,60
1,64,89,0
1,64,0,480
1,64,88,0
1,64,0,420
1,64,87,0
1,64,0,60
1,64,94,0
1,64,0,960
2,52,49,4
2,56,58,0
2,47,52,156
2,56,0,4
2,52,0,0
2,47,0,156
2,52,39,0
2,56,48,0
2,56,0,160
2,52,0,0
2,51,45,0
2,54,54,0
2,54,0,160
2,51,0,0
2,47,51,0
2,47,0,160
2,51,38,0
2,54,45,0
2,54,0,160
2,51,0,0
2,52,50,0
2,56,60,0
2,56,0,160
2,52,0,0
2,47,46,0
2,47,0,160
2,52,33,0
2,56,40,0
2,56,0,160
2,52,0,0
2,52,50,0
2,57,59,0
2,57,0,160
2,52,0,0
2,49,46,0
2,49,0,160
2,52,34,0
2,57,42,0
2,57,0,160
2,52,0,0
2,54,54,0
2,57,64,0
2,57,0,160
2,54,0,0
2,49,45,0
2,49,0,160
2,54,36,0
2,57,43,0
2,57,0,160
2,54,0,0
2,54,52,0
2,57,61,0
2,57,0,160
2,54,0,0
2,49,42,0
2,49,0,160
2,54,31,0
2,57,37,0
2,57,0,160
2,54,0,0
2,54,50,0
2,59,60,0
2,59,0,160
2,54,0,0
2,51,42,0
2,51,0,160
2,54,34,0
2,59,42,0
2,59,0,160
2,54,0,0
2,56,50,0
2,59,60,0
2,59,0,160
2,56,0,0
2,51,44,0
2,51,0,160
2,56,37,0
2,59,44,0
2,59,0,160
2,56,0,0
2,56,48,0
2,59,57,0
2,59,0,160
2,56,0,0
2,52,48,0
2,52,0,160
2,56,37,0
2,59,44,0
2,59,0,160
2,56,0,0
2,61,60,0
2,54,51,0
2,54,0,160
2,61,0,0
2,52,45,0
2,52,0,160
2,61,43,0
2,54,36,0
2,54,0,160
2,61,0,0
2,59,64,0
2,54,54,0
2,54,0,160
2,59,0,0
2,52,45,0
2,52,0,160
2,59,43,0
2,54,37,0
2,54,0,160
2,59,0,0
2,59,64,0
2,54,54,0
2,54,0,160
2,59,0,0
2,51,45,0
2,51,0,160
2,59,49,0
2,54,42,0
2,54,0,160
2,59,0,0
2,56,59,0
2,59,70,0
2,59,0,160
2,56,0,0
2,52,49,0
2,52,0,160
2,56,38,0
2,59,46,0
2,59,0,160
2,56,0,0
2,54,54,0
2,58,64,0
2,58,0,160
2,54,0,0
2,52,45,0
2,52,0,160
2,54,34,0
2,58,42,0
2,58,0,160
2,54,0,0
2,54,42,0
2,57,50,0
2,57,0,160
2,54,0,0
2,49,42,0
2,49,0,160
2,54,34,0
2,57,42,0
2,57,0,160
2,54,0,0
2,54,43,0
2,57,51,0
2,57,0,160
2,54,0,0
2,47,42,0
2,47,0,160
2,54,28,0
2,57,33,0
2,57,0,160
2,54,0,0
2,52,27,0
2,56,32,0
2,56,0,160
2,52,0,0
2,47,25,0
2,47,0,160
2,52,21,0
2,56,25,0
2,56,0,160
2,52,0,0
2,51,28,0
2,54,34,0
2,54,0,160
2,51,0,0
2,47,27,0
2,47,0,160
2,51,22,0
2,54,27,0
2,54,0,160
2,51,0,0
2,50,29,0
2,55,34,0
2,55,0,160
2,50,0,0
2,47,28,0
2,47,0,160
2,50,22,0
2,55,27,0
2,55,0,160
2,50,0,0
2,50,34,0
2,55,40,0
2,55,0,160
2,50,0,0
2,47,30,0
2,47,0,160
2,50,24,0
2,55,30,0
2,55,0,160
2,50,0,0
2,55,49,0
2,55,0,160
2,48,40,0
2,48,0,160
2,55,40,0
2,55,0,160
2,58,52,0
2,55,44,0
2,55,0,160
2,58,0,0
2,50,43,0
2,50,0,160
2,58,43,0
2,55,37,0
2,55,0,160
2,58,0,0
2,58,56,0
2,55,47,0
2,55,0,160
2,58,0,0
2,52,46,0
2,52,0,160
2,58,48,0
2,55,39,0
2,55,0,160
2,58,0,0
2,60,58,0
2,55,49,0
2,55,0,160
2,60,0,0
2,52,52,0
2,52,0,160
2,60,50,0
2,55,42,0
2,55,0,160
2,60,0,0
2,57,54,0
2,61,65,0
2,61,0,160
2,57,0,0
2,52,58,0
2,52,0,160
2,61,53,0
2,57,45,0
2,57,0,160
2,61,0,0
2,58,56,0
2,61,66,0
2,61,0,160
2,58,0,0
2,52,58,0
2,52,0,160
2,58,46,0
2,61,54,0
2,61,0,160
2,58,0,0
2,58,59,0
2,61,70,0
2,61,0,160
2,58,0,0
2,53,59,0
2,53,0,160
2,58,46,0
2,61,55,0
2,61,0,160
2,58,0,0
2,58,60,0
2,61,71,0
2,61,0,160
2,58,0,0
2,55,61,0
2,55,0,160
2,58,47,0
2,61,56,0
2,61,0,160
2,58,0,0
2,56,60,0
2,60,72,0
2,60,0,160
2,56,0,0
2,51,62,0
2,51,0,160
2,56,48,0
2,60,57,0
2,60,0,160
2,56,0,0
2,55,60,0
2,60,72,0
2,60,0,160
2,55,0,0
2,51,57,0
2,51,0,160
2,55,48,0
2,58,57,0
2,58,0,160
2,55,0,0
2,56,63,0
2,56,0,160
2,51,45,0
2,51,0,160
2,56,45,0
2,56,0,160
2,51,45,0
2,56,54,0
2,56,0,160
2,51,0,0
2,47,39,0
2,47,0,160
2,51,33,0
2,57,39,0
2,57,0,160
2,51,0,0
2,52,24,0
2,56,28,0
2,56,0,160
2,52,0,0
2,47,21,0
2,47,0,160
2,52,19,0
2,56,22,0
2,56,0,160
2,52,0,0
2,51,24,0
2,54,30,0
2,54,0,160
2,51,0,0
2,47,24,0
2,47,0,160
2,51,19,0
2,54,24,0
2,54,0,160
2,51,0,0
2,52,29,0
2,56,34,0
2,56,0,160
2,52,0,0
2,47,25,0
2,47,0,160
2,52,21,0
2,56,25,0
2,56,0,160
2,52,0,0
2,52,30,0
2,57,36,0
2,57,0,160
2,52,0,0
2,48,31,0
2,48,0,160
2,52,25,0
2,57,31,0
2,57,0,160
2,52,0,0
2,53,33,0
2,57,39,0
2,57,0,160
2,53,0,0
2,48,27,0
2,48,0,160
2,53,24,0
2,57,28,0
2,57,0,160
2,53,0,0
2,52,25,0
2,55,29,0
2,55,0,160
2,52,0,0
