track,note,velocity,time
1,92,50,4
1,92,0,80
1,93,43,0
1,93,0,80
1,92,46,0
1,92,0,80
1,93,41,0
1,93,0,80
1,92,44,0
1,92,0,80
1,91,40,0
1,91,0,80
1,92,35,0
1,97,50,0
1,97,0,80
1,92,0,0
1,93,45,0
1,93,0,80
1,92,37,0
1,92,0,80
1,88,44,0
1,88,0,120
1,87,39,0
1,87,0,120
1,92,50,0
1,85,35,0
1,85,0,80
1,92,0,0
1,87,45,0
1,87,0,80
1,85,40,0
1,85,0,80
1,81,45,0
1,81,0,120
1,80,40,0
1,80,0,120
1,85,50,0
1,78,35,0
1,78,0,80
1,85,0,0
1,80,45,0
1,80,0,80
1,78,37,0
1,78,0,80
1,76,41,0
1,76,0,120
1,75,37,0
1,75,0,120
1,80,50,0
1,73,35,0
1,73,0,80
1,80,0,0
1,75,44,0
1,75,0,80
1,73,37,0
1,73,0,80
1,69,40,0
1,69,0,120
1,68,38,0
1,68,0,120
1,66,35,0
1,73,50,0
1,73,0,80
1,66,0,0
1,68,44,0
1,68,0,80
1,66,36,0
1,66,0,80
1,64,40,0
1,64,0,120
1,63,36,0
1,63,0,120
1,61,35,0
1,68,50,0
1,68,0,80
1,61,0,0
1,63,44,0
1,63,0,80
1,61,36,0
1,61,0,80
1,59,40,0
1,59,0,120
1,57,35,0
1,57,0,120
1,64,45,2400
1,64,0,480
1,97,50,0
1,92,35,0
1,92,0,80
1,97,0,0
1,93,45,0
1,93,0,80
1,92,38,0
1,92,0,80
1,88,43,0
1,88,0,120
1,87,39,0
1,87,0,120
1,92,50,0
1,85,35,0
1,85,0,80
1,92,0,0
1,87,45,0
1,87,0,80
1,85,40,0
1,85,0,80
1,81,43,0
1,81,0,120
1,80,39,0
1,80,0,120
1,85,50,0
1,78,35,0
1,78,0,80
1,85,0,0
1,80,45,0
1,80,0,80
1,78,38,0
1,78,0,80
1,76,42,0
1,76,0,120
1,75,38,0
1,75,0,120
1,73,35,0
1,80,50,0
1,80,0,80
1,73,0,0
1,75,45,0
1,75,0,80
1,73,38,0
1,73,0,80
1,69,40,0
1,69,0,120
1,68,38,0
1,68,0,120
1,66,35,0
1,73,50,0
1,73,0,80
1,66,0,0
1,68,45,0
1,68,0,80
1,66,36,0
1,66,0,80
1,64,40,0
1,64,0,120
1,63,37,0
1,63,0,120
1,68,50,0
1,61,35,0
1,61,0,80
1,68,0,0
1,63,45,0
1,63,0,80
1,61,36,0
1,61,0,80
1,59,40,0
1,59,0,120
1,58,38,0
1,58,0,120
1,63,55,480
1,63,0,960
1,68,46,960
1,68,0,480
1,90,31,0
1,97,45,0
1,97,0,80
1,90,0,0
1,92,40,0
1,92,0,80
1,90,36,0
1,90,0,80
1,86,38,0
1,86,0,120
1,85,36,0
1,85,0,120
1,83,31,0
1,90,45,0
1,90,0,80
1,83,0,0
1,85,40,0
1,85,0,80
1,83,36,0
1,83,0,80
1,81,39,0
1,81,0,120
1,80,36,0
1,80,0,120
1,78,30,0
1,85,45,0
1,85,0,80
1,78,0,0
1,80,40,0
1,80,0,80
1,78,36,0
1,78,0,80
1,74,39,0
1,74,0,120
1,73,35,0
1,73,0,120
1,78,45,0
1,71,31,0
1,71,0,80
1,78,0,0
1,73,40,0
1,73,0,80
1,71,35,0
1,71,0,80
1,69,37,0
1,69,0,120
1,68,36,0
1,68,0,120
1,73,45,0
1,66,31,0
1,66,0,80
1,73,0,0
1,68,40,0
1,68,0,80
1,66,34,0
1,66,0,80
1,62,35,0
1,62,0,120
1,61,30,0
1,61,0,120
1,66,45,0
1,59,31,0
1,59,0,80
1,66,0,0
1,61,40,0
1,61,0,80
1,59,35,0
1,59,0,80
1,57,37,0
1,57,0,120
1,56,32,0
1,56,0,120
1,61,45,480
1,61,0,480
1,63,56,0
1,63,0,480
1,63,37,480
1,63,0,480
1,64,35,0
1,64,0,480
1,92,35,0
1,97,50,0
1,97,0,80
1,92,0,0
1,93,49,0
1,93,0,80
1,92,40,0
1,92,0,80
1,88,45,0
1,88,0,120
1,87,39,0
1,87,0,120
1,92,50,0
1,85,35,0
1,85,0,80
1,92,0,0
1,87,45,0
1,87,0,80
1,85,40,0
1,85,0,80
1,81,44,0
1,81,0,120
1,80,39,0
1,80,0,120
1,78,35,0
1,85,50,0
1,85,0,80
1,78,0,0
1,80,44,0
1,80,0,80
1,78,36,0
1,78,0,80
1,76,42,0
1,76,0,120
1,75,37,0
1,75,0,120
1,73,35,0
1,80,50,0
1,80,0,80
1,73,0,0
1,75,45,0
1,75,0,80
1,73,37,0
1,73,0,80
1,69,40,0
1,69,0,120
1,68,35,0
1,68,0,120
1,73,50,0
1,66,35,0
1,66,0,80
1,73,0,0
1,68,45,0
1,68,0,80
1,66,37,0
1,66,0,80
1,64,40,0
1,64,0,120
1,63,35,0
1,63,0,120
1,68,50,0
1,61,35,0
1,61,0,80
1,68,0,0
1,63,45,0
1,63,0,80
1,61,33,0
1,61,0,80
1,59,38,0
1,59,0,120
1,57,33,0
1,57,0,120
1,64,57,1800
1,64,0,120
1,69,49,480
1,69,0,960
1,64,35,1320
1,64,0,120
1,61,38,0
1,61,0,480
2,49,34,360
2,56,36,60
2,64,38,60
2,64,0,480
2,56,0,0
2,49,0,0
2,42,31,353
2,49,35,60
2,57,40,60
2,57,0,194
2,49,0,0
2,42,0,0
2,49,33,120
2,56,36,60
2,64,40,60
2,64,0,176
2,56,0,0
2,49,0,0
2,42,32,120
2,49,36,60
2,57,38,60
2,57,0,166
2,49,0,0
2,42,0,0
2,37,32,120
2,44,36,60
2,52,39,60
2,52,0,155
2,44,0,0
2,37,0,0
2,56,45,0
2,60,49,480
2,51,41,0
2,44,49,0
2,51,0,480
2,60,0,0
2,32,46,0
2,58,46,0
2,49,39,0
2,49,0,480
2,32,0,0
2,58,0,0
2,44,0,0
2,44,43,0
2,51,36,0
2,60,43,0
2,44,0,240
2,60,0,100
2,51,0,0
2,44,37,20
2,52,37,0
2,61,45,0
2,61,0,120
2,52,0,0
2,44,0,0
2,54,35,0
2,60,35,0
2,63,42,0
2,44,42,0
2,63,0,480
2,60,0,0
2,56,0,0
2,54,0,0
2,56,46,0
2,32,39,0
2,49,30,360
2,32,0,60
2,56,0,0
2,56,35,0
2,44,0,60
2,64,38,0
2,64,0,444
2,56,0,0
2,49,0,0
2,42,33,360
2,49,37,60
2,57,40,60
2,57,0,183
2,49,0,0
2,42,0,0
2,49,34,120
2,56,37,60
2,64,40,60
2,64,0,180
2,56,0,0
2,49,0,0
2,42,30,120
2,49,35,60
2,57,38,60
2,57,0,180
2,49,0,0
2,42,0,0
2,37,33,120
2,44,35,60
2,52,39,60
2,52,0,183
2,44,0,0
2,37,0,0
2,56,47,0
2,60,53,480
2,51,45,0
2,39,45,0
2,38,45,360
2,38,0,60
2,39,45,0
2,39,0,40
2,39,0,20
2,56,0,0
2,60,0,0
2,39,48,0
2,58,48,0
2,55,40,0
2,39,0,60
2,40,45,0
2,40,0,60
2,39,49,0
2,39,0,60
2,40,51,0
2,40,0,60
2,39,54,0
2,39,0,60
2,40,56,0
2,40,0,60
2,39,61,0
2,39,0,40
2,38,61,0
2,38,0,40
2,39,63,0
2,39,0,40
2,51,0,0
2,58,0,0
2,55,0,0
2,56,55,0
2,44,55,0
2,51,55,0
2,59,66,0
2,44,0,229
2,56,0,100
2,51,0,0
2,59,0,0
2,58,48,20
2,44,48,0
2,51,48,0
2,61,57,0
2,61,0,120
2,58,0,0
2,44,0,0
2,51,0,0
2,51,53,0
2,59,53,0
2,63,63,0
2,44,53,0
2,44,0,480
2,51,0,0
2,59,0,0
2,63,0,0
2,56,45,0
2,32,38,0
2,32,0,328
2,56,0,0
2,42,25,0
2,49,29,60
2,57,34,0
2,57,0,183
2,49,0,0
2,47,27,120
2,54,31,60
2,42,0,60
2,62,35,0
2,62,0,176
2,54,0,0
2,47,0,0
2,42,24,120
2,49,30,60
2,57,35,60
2,57,0,183
2,49,0,0
2,42,0,0
