track,note,velocity,time
1,76,52,3840
1,76,0,960
1,77,51,0
1,77,0,480
1,77,54,0
1,77,0,480
1,77,56,0
1,77,0,960
1,78,55,0
1,78,0,1440
1,76,55,0
1,76,0,360
1,74,51,0
1,74,0,120
1,73,51,0
1,73,0,480
1,72,51,0
1,72,0,480
1,73,53,0
1,73,0,480
1,80,56,0
1,80,0,960
1,80,54,0
1,80,0,160
1,78,51,0
1,78,0,240
1,76,49,0
1,76,0,80
1,76,53,0
1,76,0,960
1,76,52,0
1,76,0,480
1,76,56,0
1,76,0,480
1,77,63,0
1,77,0,960
1,78,63,0
1,78,0,1440
1,76,48,0
1,76,0,360
1,74,45,0
1,74,0,120
1,73,43,0
1,73,0,480
1,72,42,0
1,72,0,480
1,73,57,1920
1,85,57,0
1,85,0,480
1,73,0,0
1,80,60,0
1,80,0,480
1,78,59,0
1,78,0,160
1,80,52,0
1,80,0,160
1,78,52,0
1,78,0,160
1,76,56,0
1,76,0,360
1,75,54,0
1,75,0,120
1,73,62,0
1,73,0,960
1,75,57,0
1,75,0,960
1,76,62,0
1,76,0,360
1,78,63,0
1,78,0,120
1,80,65,0
1,80,0,480
1,78,58,0
1,78,0,480
1,74,56,0
1,74,0,480
1,73,59,0
1,73,0,960
1,68,51,0
1,68,0,480
1,80,59,0
1,80,0,480
1,85,60,0
1,85,0,480
1,80,59,0
1,80,0,480
1,78,58,0
1,78,0,160
1,80,52,0
1,80,0,160
1,78,52,0
1,78,0,160
1,76,56,0
1,76,0,360
1,75,54,0
1,75,0,120
1,73,62,0
1,73,0,960
1,75,57,0
1,75,0,960
1,76,62,0
1,76,0,360
1,78,63,0
1,78,0,120
1,80,65,0
1,80,0,480
1,78,58,0
1,78,0,480
1,74,56,0
1,74,0,480
1,73,62,0
1,73,0,1920
1,76,54,0
1,76,0,960
1,76,51,0
1,76,0,480
1,76,54,0
1,76,0,480
1,71,48,0
1,77,56,0
1,71,0,480
1,73,53,0
1,73,0,360
1,71,49,0
1,71,0,120
1,77,0,0
1,71,50,0
1,78,55,0
1,71,0,480
1,69,51,0
1,69,0,360
1,68,48,0
1,68,0,120
1,66,50,0
1,78,0,480
1,76,56,0
1,76,0,360
1,74,55,0
1,74,0,120
1,73,54,0
1,73,0,480
1,72,51,0
1,72,0,480
1,66,0,0
1,64,45,0
1,73,54,0
1,73,0,480
1,64,0,0
1,80,60,0
1,69,41,480
1,69,0,80
1,71,39,16
1,71,0,80
1,69,39,16
1,69,0,80
1,68,41,16
1,68,0,80
1,69,39,16
1,69,0,80
1,80,0,16
1,78,54,0
1,71,42,0
1,71,0,360
1,66,40,0
1,66,0,120
1,78,0,0
1,68,46,0
1,76,54,0
1,76,0,960
1,76,54,0
1,76,0,480
1,76,58,0
1,76,0,480
1,68,0,0
1,71,55,0
1,77,62,0
1,71,0,480
1,73,56,0
1,73,0,360
1,71,51,0
1,71,0,120
1,77,0,0
1,71,54,0
1,78,60,0
1,71,0,480
1,69,57,0
1,69,0,360
1,68,52,0
1,68,0,120
1,66,53,0
1,78,0,480
1,76,56,0
1,76,0,360
1,74,55,0
1,74,0,120
1,73,54,0
1,73,0,480
1,72,52,0
1,66,0,480
1,66,41,0
1,66,0,480
1,64,45,0
1,64,0,360
1,62,34,0
1,62,0,120
1,72,0,0
1,61,40,0
1,61,0,480
1,60,36,0
1,60,0,480
1,56,32,3840
1,63,32,0
1,66,32,0
1,68,38,0
1,68,0,720
1,56,0,0
1,56,33,0
1,68,38,0
1,68,0,240
1,56,0,0
1,56,34,0
1,68,41,0
1,68,0,480
1,63,0,0
1,66,0,0
1,56,0,0
1,56,34,0
1,61,41,0
1,68,41,0
1,61,0,720
1,64,38,0
1,64,0,240
1,61,39,0
1,61,0,480
1,68,0,0
1,56,0,0
1,56,39,0
1,60,39,0
1,68,47,0
1,68,0,720
1,56,0,0
1,56,38,0
1,68,45,0
1,68,0,240
1,56,0,0
1,56,40,0
1,68,48,0
1,68,0,480
1,56,0,0
1,60,0,0
1,56,40,0
1,61,48,0
1,68,48,0
1,61,0,720
1,64,45,0
1,64,0,240
1,61,45,0
1,61,0,480
1,68,0,0
1,56,0,0
1,61,45,0
1,68,45,0
1,71,45,0
1,73,55,0
1,73,0,720
1,61,0,0
1,61,45,0
1,73,53,0
1,73,0,240
1,61,0,0
1,61,46,0
1,73,55,0
1,73,0,480
1,68,0,0
1,71,0,0
1,61,0,0
1,61,46,0
1,66,57,0
1,73,57,0
1,66,0,720
1,69,56,0
1,69,0,240
1,66,57,0
1,66,0,480
1,73,0,0
1,61,0,0
1,61,56,0
1,65,56,0
1,73,66,0
1,73,0,720
1,61,0,0
1,61,54,0
1,73,65,0
1,73,0,240
1,61,0,0
1,61,57,0
1,73,67,0
1,73,0,480
1,61,0,0
1,65,0,0
1,61,58,0
1,66,69,0
1,73,69,0
1,66,0,720
1,69,71,0
1,69,0,240
1,66,73,0
1,66,0,480
1,73,0,0
1,61,0,0
1,68,66,0
1,75,66,0
1,78,66,0
1,80,78,0
1,80,0,840
1,68,0,0
1,68,61,0
1,80,74,0
1,80,0,120
1,68,0,0
1,68,66,0
1,80,78,0
1,80,0,480
1,75,0,0
1,78,0,0
1,68,0,0
1,68,66,0
1,73,66,0
1,80,78,0
1,73,0,840
1,76,79,0
1,76,0,120
1,73,79,0
1,73,0,480
1,80,0,0
1,68,0,0
1,68,66,0
1,72,66,0
1,80,78,0
1,80,0,840
1,68,0,0
1,68,61,0
1,80,74,0
1,80,0,120
1,68,0,0
1,68,66,0
1,80,78,0
1,80,0,480
1,68,0,0
1,72,0,0
1,68,66,0
1,73,78,0
1,80,78,0
1,73,0,840
1,76,79,0
1,76,0,120
1,73,79,0
1,73,0,480
1,80,0,0
1,68,0,0
1,73,69,0
1,80,69,0
1,83,69,0
1,85,80,0
1,85,0,840
1,73,0,0
1,73,53,0
1,85,78,0
1,85,0,120
1,73,0,0
1,73,59,0
1,85,71,0
1,85,0,140
1,73,0,0
1,73,62,20
1,85,73,0
1,85,0,140
1,73,0,0
1,73,68,20
1,85,80,0
1,85,0,140
1,73,0,0
1,83,0,20
1,80,0,0
1,73,71,0
1,78,75,0
1,85,82,0
1,78,0,840
1,81,84,0
1,81,0,120
1,78,84,0
1,78,0,480
1,85,0,0
1,73,0,0
1,73,79,0
1,77,79,0
1,85,93,0
1,85,0,640
1,73,0,0
1,73,59,0
1,85,71,0
1,85,0,80
1,73,0,0
1,73,61,80
1,85,71,0
1,85,0,80
1,73,0,0
1,73,63,80
1,85,73,0
1,85,0,80
1,73,0,0
1,73,63,80
1,85,75,0
1,85,0,80
1,73,0,0
1,73,64,80
1,85,78,0
1,85,0,80
1,73,0,0
1,77,0,80
1,73,79,0
1,78,93,0
1,85,93,0
1,78,0,840
1,81,90,0
1,81,0,120
1,78,90,0
1,78,0,480
1,85,0,0
1,73,0,0
1,79,88,0
1,76,88,0
1,85,88,0
1,88,103,0
1,88,0,840
1,79,0,0
1,76,0,0
1,85,0,0
1,76,81,0
1,79,81,0
1,85,84,0
1,88,99,0
1,88,0,120
1,76,0,0
1,79,0,0
1,85,0,0
1,76,87,0
1,79,87,0
1,85,87,0
1,88,102,0
1,88,0,480
1,76,0,0
1,79,0,0
1,85,0,0
1,76,80,0
1,80,95,0
1,88,95,0
1,88,0,480
1,80,0,0
1,76,0,0
1,83,91,0
1,80,91,0
1,76,76,0
1,76,0,480
1,80,0,0
1,83,0,0
1,71,73,0
1,76,86,0
1,80,86,0
1,80,0,420
1,76,0,0
1,71,0,0
1,80,79,0
1,80,0,60
1,69,74,0
1,71,74,0
1,75,87,0
1,78,87,0
1,78,0,480
1,69,0,0
1,71,0,0
1,75,0,0
1,71,75,0
1,69,75,0
1,73,75,0
1,76,88,0
1,76,0,480
1,71,0,0
1,69,0,0
1,73,0,0
1,69,75,0
1,71,75,0
1,75,89,0
1,78,89,0
1,78,0,480
1,69,0,0
1,71,0,0
1,75,0,0
1,76,90,0
1,68,75,0
