track,note,velocity,time
1,71,45,0
1,71,0,120
1,69,40,0
1,69,0,120
1,61,30,0
1,61,0,120
1,71,53,0
1,76,51,120
1,76,0,120
1,71,0,0
1,69,42,0
1,69,0,120
1,61,46,0
1,61,0,120
1,70,65,0
1,76,57,120
1,76,0,120
1,70,0,0
1,69,50,0
1,69,0,120
1,61,59,0
1,61,0,120
1,71,67,0
1,76,69,120
1,76,0,120
1,71,0,0
1,69,60,0
1,69,0,120
1,61,63,0
1,61,0,120
1,70,72,0
1,76,62,120
1,76,0,120
1,70,0,0
1,69,58,0
1,69,0,120
1,61,63,0
1,61,0,120
1,71,67,0
1,76,61,120
1,76,0,120
1,71,0,0
1,69,50,0
1,69,0,120
1,61,48,0
1,61,0,120
1,66,46,0
1,66,0,120
1,62,49,0
1,62,0,120
1,57,45,0
1,57,0,120
1,58,45,0
1,58,0,120
1,59,44,0
1,59,0,120
1,61,40,0
1,66,48,0
1,66,0,120
1,61,0,0
1,64,49,0
1,64,0,90
1,62,56,30
1,62,0,120
1,74,51,0
1,74,0,120
1,66,51,0
1,66,0,120
1,69,51,0
1,69,0,120
1,68,48,0
1,73,57,0
1,73,0,120
1,68,0,0
1,71,55,0
1,71,0,90
1,64,58,30
1,64,0,120
1,69,54,0
1,69,0,120
1,65,54,0
1,65,0,120
1,66,54,0
1,66,0,120
1,73,59,0
1,68,50,0
1,68,0,120
1,73,0,0
1,71,56,0
1,71,0,90
1,69,62,30
1,69,0,120
1,76,52,0
1,76,0,120
1,64,60,0
1,64,0,120
1,69,57,0
1,69,0,120
1,63,50,0
1,72,59,0
1,72,0,120
1,63,0,0
1,71,60,0
1,71,0,90
1,59,66,30
1,59,0,120
1,64,57,0
1,64,0,120
1,60,58,0
1,60,0,120
1,64,57,0
1,64,0,120
1,67,64,0
1,63,54,0
1,63,0,120
1,67,0,0
1,66,63,0
1,66,0,90
1,64,69,30
1,64,0,120
1,76,61,0
1,76,0,120
1,67,64,0
1,67,0,120
1,71,64,0
1,71,0,120
1,70,58,0
1,74,70,0
1,74,0,120
1,70,0,0
1,73,64,0
1,73,0,90
1,71,73,30
1,71,0,120
1,66,63,0
1,66,0,120
1,67,70,0
1,67,0,120
1,71,72,0
1,71,0,120
1,70,64,0
1,74,76,0
1,74,0,120
1,70,0,0
1,73,77,0
1,73,0,90
1,71,86,30
1,71,0,120
1,83,75,0
1,83,0,120
1,80,82,0
1,80,0,120
1,74,83,0
1,74,0,120
1,73,90,0
1,73,0,120
1,71,85,0
1,71,0,120
1,70,91,0
1,70,0,120
1,78,77,0
1,78,0,60
1,71,84,60
1,71,0,120
1,80,73,0
1,80,0,60
1,65,80,60
1,65,0,120
1,82,71,0
1,82,0,60
1,70,89,60
1,70,0,120
1,78,73,0
1,78,0,60
1,71,79,60
1,71,0,120
1,80,70,0
1,80,0,60
1,65,75,60
1,65,0,120
1,82,64,0
1,82,0,60
1,70,74,60
1,70,0,120
1,78,60,0
1,78,0,60
1,71,69,60
1,71,0,120
1,80,55,0
1,80,0,60
1,65,64,60
1,65,0,120
1,82,57,0
1,82,0,60
1,70,63,60
1,70,0,120
1,78,54,0
1,78,0,60
1,71,55,60
1,71,0,120
1,80,48,0
1,80,0,60
1,65,49,60
1,65,0,120
1,81,43,0
1,81,0,60
1,78,45,60
1,78,0,120
1,66,40,0
1,66,0,120
1,61,30,0
1,61,0,120
1,71,53,0
1,76,49,120
1,76,0,120
1,71,0,0
1,69,42,0
1,69,0,120
1,61,46,0
1,61,0,120
1,70,65,0
1,76,57,120
1,76,0,120
1,70,0,0
1,69,50,0
1,69,0,120
1,61,59,0
1,61,0,120
1,71,67,0
1,76,67,120
1,76,0,120
1,71,0,0
1,69,61,0
1,69,0,120
1,61,63,0
1,61,0,120
1,70,70,0
1,76,64,120
1,76,0,120
1,70,0,0
1,69,58,0
1,69,0,120
1,61,65,0
1,61,0,120
1,71,58,0
1,76,61,120
1,76,0,120
1,71,0,0
1,69,50,0
1,69,0,120
1,61,48,0
1,61,0,120
1,66,46,0
1,66,0,120
1,62,49,0
1,62,0,120
1,57,45,0
1,57,0,120
1,58,45,0
1,58,0,120
1,59,44,0
1,59,0,120
1,67,47,0
1,61,39,0
1,61,0,120
1,67,0,0
1,66,46,0
1,66,0,90
1,62,56,30
1,62,0,120
1,74,51,0
1,74,0,120
1,66,51,0
1,66,0,120
1,69,51,0
1,69,0,120
1,68,45,0
1,72,53,0
1,72,0,120
1,68,0,0
1,71,51,0
1,71,0,90
1,64,58,30
1,64,0,120
1,69,54,0
1,69,0,120
1,65,54,0
1,65,0,120
1,69,54,0
1,69,0,120
1,68,50,0
1,72,59,0
1,72,0,120
1,68,0,0
1,71,56,0
1,71,0,90
1,69,62,30
1,69,0,120
1,76,52,0
1,76,0,120
1,64,60,0
1,64,0,120
1,69,57,0
1,69,0,120
1,63,50,0
1,72,59,0
1,72,0,120
1,63,0,0
1,71,60,0
1,71,0,90
1,59,66,30
1,59,0,120
1,64,57,0
1,64,0,120
1,60,58,0
1,60,0,120
1,64,57,0
1,64,0,120
1,67,64,0
1,63,54,0
1,63,0,120
1,67,0,0
1,66,63,0
1,66,0,90
1,64,69,30
1,64,0,120
1,76,61,0
1,76,0,120
1,67,64,0
1,67,0,120
1,71,64,0
1,71,0,120
1,70,58,0
1,74,70,0
1,74,0,120
1,70,0,0
1,73,64,0
1,73,0,90
1,71,77,30
1,71,0,120
1,66,63,0
1,66,0,120
1,67,70,0
1,67,0,120
1,71,72,0
1,71,0,120
1,70,64,0
1,74,76,0
1,74,0,120
1,70,0,0
1,73,77,0
1,73,0,90
1,71,86,30
1,71,0,120
1,83,80,0
1,83,0,120
1,80,82,0
1,80,0,120
1,74,83,0
1,74,0,120
1,73,92,0
1,73,0,120
1,71,85,0
1,71,0,120
1,69,92,0
1,69,0,120
1,74,77,0
1,74,0,60
1,67,86,60
1,67,0,120
1,76,76,0
1,76,0,60
1,61,83,60
1,61,0,120
1,78,75,0
1,78,0,60
1,66,91,60
1,66,0,120
1,74,73,0
1,74,0,60
1,67,80,60
1,67,0,120
1,76,72,0
1,76,0,60
1,61,78,60
1,61,0,120
1,78,67,0
1,78,0,60
1,66,78,60
1,66,0,120
1,74,63,0
1,74,0,60
1,67,72,60
1,67,0,120
1,76,58,0
1,76,0,60
1,61,66,60
1,61,0,120
1,78,59,0
1,78,0,60
1,66,65,60
1,66,0,120
1,74,55,0
1,74,0,60
1,67,55,60
1,67,0,120
1,76,48,0
1,76,0,60
1,61,50,60
1,61,0,120
1,78,43,0
1,78,0,60
1,66,45,60
1,66,0,120
1,74,39,0
1,74,0,120
1,62,30,0
1,62,0,120
1,70,49,0
1,76,42,120
1,76,0,120
1,70,0,0
1,69,44,0
1,69,0,120
1,62,38,0
1,62,0,120
1,67,56,0
1,74,45,120
1,74,0,60
1,67,0,60
1,66,52,0
1,62,50,120
1,62,0,120
1,66,0,0
1,70,60,0
1,74,51,120
1,74,0,60
1,70,0,60
1,69,58,0
1,62,57,120
1,62,0,120
1,69,0,0
1,67,70,0
1,74,57,120
1,74,0,60
1,67,0,60
1,66,63,0
1,66,0,120
1,62,69,0
1,62,0,120
1,70,77,0
1,74,70,120
1,74,0,60
1,70,0,60
1,69,83,0
1,62,91,120
1,62,0,120
1,69,0,0
1,74,96,0
1,74,0,120
1,90,108,0
1,90,0,120
1,67,79,540
1,76,86,30
1,81,93,30
1,81,0,120
1,76,0,0
1,67,0,0
1,66,86,600
1,74,86,0
1,78,101,0
1,78,0,120
1,74,0,0
1,66,0,0
2,55,38,0
2,55,0,120
2,45,34,0
2,45,0,120
2,55,32,0
2,55,0,120
2,64,31,0
2,64,0,120
2,55,45,0
2,55,0,86
2,45,39,0
2,45,0,120
2,55,43,0
2,55,0,120
2,64,41,0
2,64,0,60
2,55,50,60
2,55,0,60
2,45,39,0
2,45,0,120
2,55,49,0
2,55,0,120
2,64,42,0
2,64,0,60
2,55,50,60
2,55,0,69
