track,note,velocity,time
1,53,21,6240
1,55,25,0
1,55,0,120
1,53,0,0
1,53,21,120
1,55,25,0
1,55,0,120
1,53,0,0
1,41,19,2040
1,43,23,0
1,43,0,120
1,41,0,0
1,79,40,6600
1,65,17,960
1,67,21,0
1,67,0,120
1,65,0,0
1,65,17,120
1,67,21,0
1,79,0,720
1,67,0,480
1,65,0,0
1,65,17,0
1,67,21,0
1,63,33,1440
1,67,0,480
1,65,0,0
1,65,17,0
1,67,21,0
1,63,0,1440
1,61,33,0
1,67,0,480
1,65,0,0
1,65,17,0
1,67,21,0
1,61,0,1440
1,63,33,0
1,67,0,480
1,65,0,0
1,65,17,0
1,67,21,0
1,63,0,480
1,63,33,0
1,63,0,960
1,61,35,0
1,67,0,480
1,65,0,0
1,65,17,0
1,67,21,0
1,67,0,1440
1,65,0,0
1,61,0,0
1,41,22,480
1,43,26,0
1,43,0,120
1,41,0,0
1,41,24,120
1,43,29,0
1,43,0,120
1,41,0,0
1,41,19,2040
1,43,23,0
1,43,0,120
1,41,0,0
1,41,19,3720
1,43,23,0
1,43,0,120
1,41,0,0
1,67,26,840
1,65,26,0
1,65,0,480
1,67,0,0
1,60,17,0
1,62,21,0
1,62,0,480
1,60,0,0
1,65,24,0
1,67,24,0
1,67,0,480
1,65,0,0
1,60,17,0
1,62,21,0
1,62,0,480
1,60,0,0
1,67,25,0
1,65,21,0
1,65,0,480
1,67,0,0
1,60,17,0
1,62,21,0
1,62,0,480
1,60,0,0
1,65,19,0
1,67,23,0
1,67,0,480
1,65,0,0
1,60,17,0
1,62,21,0
1,62,0,480
1,60,0,0
1,65,30,0
1,65,0,480
1,62,36,0
1,62,0,960
1,65,34,0
1,65,0,240
1,67,34,0
1,67,0,240
1,60,36,0
1,60,0,240
1,62,30,0
1,62,0,240
1,65,36,0
1,65,0,960
1,62,30,0
1,62,0,240
1,60,27,0
1,60,0,220
1,60,34,20
1,60,0,240
1,62,28,0
1,62,0,220
1,62,31,20
1,62,0,480
1,60,31,0
1,60,0,480
1,65,35,0
1,65,0,480
1,62,29,0
1,72,33,1440
1,72,0,240
1,69,29,0
1,69,0,240
1,62,0,0
1,60,21,0
1,62,21,0
1,67,33,0
1,67,0,240
1,65,32,0
1,65,0,240
1,67,33,0
1,67,0,960
1,69,37,0
1,69,0,240
1,72,33,0
1,72,0,240
1,62,0,0
1,60,0,0
1,60,21,0
1,62,21,0
1,67,42,0
1,67,0,480
1,74,42,0
1,74,0,480
1,72,35,0
1,72,0,480
1,69,33,0
1,69,0,480
1,62,0,0
1,60,0,0
1,60,21,0
1,62,21,0
1,67,32,0
1,67,0,240
1,65,26,0
1,65,0,240
1,67,33,0
1,67,0,480
1,69,35,0
1,69,0,480
1,72,41,0
1,72,0,480
1,62,0,0
1,60,0,0
1,60,21,0
1,62,21,0
1,67,34,0
1,67,0,1920
1,62,0,0
1,60,0,0
1,44,21,480
1,46,25,0
1,46,0,120
1,44,0,0
1,44,21,120
1,46,25,0
1,46,0,720
1,44,0,0
1,44,21,0
1,46,25,0
1,46,0,120
1,44,0,0
1,46,31,1560
1,44,26,0
1,44,0,480
1,46,0,0
1,58,37,0
1,56,31,0
1,56,0,240
1,58,0,0
1,44,21,480
1,46,25,0
1,46,0,120
1,44,0,0
1,44,21,120
1,46,25,0
1,46,0,720
1,44,0,0
1,44,21,0
1,46,25,0
1,46,0,120
1,44,0,0
1,48,31,840
1,46,26,0
1,46,0,120
1,48,0,0
1,58,31,360
1,60,37,0
1,60,0,120
1,58,0,0
1,58,26,1320
1,61,26,0
1,66,31,0
1,66,0,120
1,61,0,0
1,58,0,0
1,58,26,120
1,61,26,0
1,66,31,0
1,66,0,120
1,61,0,0
1,58,0,0
1,65,29,120
1,60,24,0
1,56,24,0
1,56,0,480
1,60,0,0
1,65,0,0
1,65,25,0
1,60,21,0
1,56,21,0
1,56,0,480
1,60,0,0
1,65,0,0
1,54,26,480
1,58,26,0
1,63,31,0
1,63,0,120
1,58,0,0
1,54,0,0
1,54,26,120
1,58,26,0
1,63,31,0
1,63,0,120
1,58,0,0
1,54,0,0
1,61,29,120
1,56,24,0
1,53,24,0
1,53,0,480
1,56,0,0
1,61,0,0
1,59,21,0
1,70,35,0
1,65,27,0
1,62,21,0
1,62,0,480
1,59,0,0
1,70,0,0
1,65,0,0
1,58,26,480
1,61,26,0
1,66,31,0
1,66,0,120
1,61,0,0
1,58,0,0
1,58,26,120
1,61,26,0
1,66,31,0
1,66,0,120
1,61,0,0
1,58,0,0
1,65,29,120
1,60,24,0
1,56,24,0
1,56,0,120
1,60,0,0
1,65,0,0
1,56,22,120
1,60,22,0
1,65,27,0
1,65,0,120
1,60,0,0
1,56,0,0
1,65,25,120
1,60,21,0
1,56,21,0
1,56,0,120
1,60,0,0
1,65,0,0
1,56,19,120
1,60,19,0
1,65,23,0
1,65,0,120
1,60,0,0
1,56,0,0
1,54,26,600
1,58,26,0
1,63,31,0
1,63,0,120
1,58,0,0
1,54,0,0
1,54,26,120
1,58,26,0
1,63,31,0
1,63,0,120
1,58,0,0
1,54,0,0
1,61,29,120
1,58,24,0
1,54,24,0
1,54,0,480
1,58,0,0
1,61,0,0
1,53,21,0
1,63,27,0
1,56,21,0
1,56,0,480
1,63,0,0
1,53,0,0
1,52,19,0
1,55,19,0
1,58,24,0
1,58,0,2400
1,55,0,0
1,52,0,0
1,51,20,1440
1,55,24,0
1,51,0,960
1,49,20,0
1,49,0,960
1,55,0,0
1,51,20,0
1,55,24,0
1,51,0,480
1,51,20,0
1,51,0,480
1,49,20,0
1,49,0,960
1,55,0,0
1,67,24,0
1,63,24,0
1,55,24,0
1,55,0,1920
1,63,0,0
1,67,0,0
1,73,31,0
1,69,31,0
1,61,31,0
1,61,0,1920
1,69,0,0
1,73,0,0
1,51,20,0
1,55,24,0
1,51,0,960
1,49,20,0
1,49,0,960
1,55,0,0
1,51,20,0
1,55,24,0
1,51,0,480
1,51,20,0
1,51,0,480
1,49,20,0
1,49,0,960
1,55,0,0
1,79,35,0
1,83,37,0
1,71,31,0
1,71,0,2880
1,83,0,0
1,79,0,0
1,55,38,960
1,59,45,0
1,59,0,480
1,55,0,0
1,59,41,0
1,55,34,0
1,55,0,120
1,59,0,0
1,59,41,120
1,55,34,0
1,55,0,120
1,59,0,0
1,58,43,120
1,54,36,0
1,54,0,120
1,58,0,0
1,58,37,120
1,54,31,0
1,54,0,120
1,58,0,0
1,58,37,120
1,54,31,0
1,54,0,120
1,58,0,0
1,58,37,120
1,54,31,0
1,54,0,120
1,58,0,0
1,53,38,120
1,57,45,0
1,57,0,480
1,53,0,0
1,57,41,0
1,53,34,6
1,57,0,114
1,53,0,6
1,57,41,114
1,53,34,0
1,53,0,120
1,57,0,0
1,56,43,120
1,52,36,0
1,52,0,480
1,56,0,0
1,60,37,0
1,56,31,0
1,56,0,480
1,60,0,0
1,55,39,0
1,59,46,0
1,59,0,480
1,55,0,0
1,64,45,0
1,57,38,0
1,57,0,480
1,64,0,0
1,59,44,0
1,67,52,0
1,67,0,480
1,59,0,0
1,57,38,0
1,64,45,0
1,64,0,480
1,57,0,0
1,55,42,0
1,59,50,0
1,59,0,480
1,55,0,0
1,57,43,0
1,52,36,0
1,52,0,480
1,57,0,0
1,59,47,0
1,55,39,0
1,55,0,1440
1,59,0,0
1,57,45,0
1,52,38,0
1,52,0,480
1,57,0,0
1,59,52,0
1,55,37,0
1,55,0,480
1,59,0,0
1,64,50,0
1,57,42,0
1,57,0,480
1,64,0,0
1,59,54,0
1,55,45,0
1,55,0,960
1,59,0,0
1,52,30,0
1,57,43,0
1,57,0,480
1,52,0,0
1,59,42,0
1,55,35,0
1,55,0,480
1,59,0,0
1,58,48,0
1,61,48,0
1,61,0,470
1,58,0,1450
1,49,30,240
1,49,0,240
1,61,38,0
1,58,38,0
1,58,0,240
1,61,0,0
1,49,30,0
1,49,0,720
1,49,33,0
1,49,0,240
1,49,30,480
1,49,0,240
1,61,38,0
1,58,38,0
