track,note,velocity,time
1,64,19,240
1,71,23,0
1,71,0,120
1,64,0,0
1,64,19,360
1,71,23,0
1,71,0,120
1,64,0,0
1,64,19,360
1,71,23,0
1,71,0,120
1,64,0,0
1,64,19,360
1,71,23,0
1,71,0,120
1,64,0,0
1,64,19,360
1,71,23,0
1,71,0,120
1,64,0,0
1,64,19,360
1,71,23,0
1,71,0,120
1,64,0,0
1,64,29,120
1,64,0,120
1,64,19,120
1,71,23,0
1,71,0,120
1,64,0,0
1,64,19,360
1,71,23,0
1,71,0,120
1,64,0,0
1,64,19,360
1,71,23,0
1,71,0,120
1,64,0,0
1,64,29,120
1,64,0,120
1,64,19,120
1,71,23,0
1,71,0,120
1,64,0,0
1,64,19,360
1,71,23,0
1,71,0,120
1,64,0,0
1,64,19,360
1,71,23,0
1,71,0,120
1,64,0,0
1,64,19,360
1,71,23,0
1,71,0,120
1,64,0,0
1,64,19,360
1,71,23,0
1,71,0,120
1,64,0,0
1,64,19,360
1,71,23,0
1,71,0,120
1,64,0,0
1,64,29,120
1,64,0,120
1,64,19,120
1,71,23,0
1,71,0,120
1,64,0,0
1,64,19,360
1,71,23,0
1,71,0,120
1,64,0,0
1,64,19,360
1,71,23,0
1,71,0,120
1,64,0,0
1,71,22,360
1,64,18,0
1,64,0,240
1,71,0,0
1,71,22,240
1,64,18,0
1,64,0,240
1,71,0,0
1,71,22,240
1,64,18,0
1,64,0,120
1,71,0,0
1,59,37,120
1,59,0,120
1,71,34,120
1,64,28,0
1,64,0,120
1,71,0,0
1,64,24,360
1,71,29,0
1,71,0,120
1,64,0,0
1,64,24,360
1,71,29,0
1,71,0,120
1,64,0,0
1,70,38,540
1,70,0,60
1,75,51,0
1,75,0,120
1,75,39,300
1,75,0,60
1,80,54,0
1,80,0,120
1,68,38,300
1,68,0,60
1,73,53,0
1,70,38,900
1,70,0,60
1,73,0,0
1,75,51,0
1,75,0,120
1,63,31,60
1,63,0,60
1,68,43,0
1,68,0,120
1,68,38,60
1,68,0,60
1,73,53,0
1,73,0,120
1,70,40,300
1,70,0,60
1,75,55,0
1,75,0,120
1,75,45,300
1,75,0,60
1,80,59,0
1,80,0,120
1,68,47,300
1,68,0,60
1,73,57,0
1,63,42,900
1,73,0,60
1,68,49,0
1,68,0,360
1,63,0,0
1,61,51,60
1,66,62,60
1,66,0,360
1,61,0,0
1,63,39,60
1,68,46,60
1,68,0,960
1,63,0,0
1,59,37,0
1,59,0,120
1,71,34,120
1,66,28,0
1,66,0,120
1,71,0,0
1,59,24,360
1,66,24,0
1,71,29,0
1,71,0,120
1,66,0,0
1,59,0,0
1,59,24,360
1,66,24,0
1,71,29,0
1,71,0,120
1,66,0,0
1,59,0,0
1,59,24,360
1,66,24,0
1,71,29,0
1,71,0,120
1,66,0,0
1,59,0,0
1,71,29,360
1,61,24,0
1,66,24,0
1,66,0,120
1,61,0,0
1,71,0,0
1,64,24,360
1,66,24,0
1,71,29,0
1,71,0,120
1,66,0,0
1,64,0,0
1,63,24,360
1,66,24,0
1,71,29,0
1,71,0,120
1,66,0,0
1,63,0,0
1,71,29,360
1,63,24,0
1,66,24,0
1,66,0,120
1,63,0,0
1,71,0,0
1,62,24,360
1,66,24,0
1,71,29,0
1,71,0,120
1,66,0,0
1,62,0,0
1,61,24,360
1,66,24,0
1,71,29,0
1,71,0,120
1,66,0,0
1,61,0,0
1,61,24,360
1,66,24,0
1,71,29,0
1,71,0,120
1,66,0,0
1,61,0,0
1,61,24,360
1,66,24,0
1,71,29,0
1,71,0,120
1,66,0,0
1,61,0,0
1,61,24,360
1,66,24,0
1,71,29,0
1,71,0,120
1,66,0,0
1,61,0,0
1,63,24,360
1,66,24,0
1,71,29,0
1,71,0,120
1,66,0,0
1,63,0,0
1,66,24,360
1,71,29,0
1,71,0,120
1,66,0,0
1,68,24,360
1,71,29,0
1,71,0,120
1,68,0,0
1,71,29,360
1,68,24,0
1,68,0,120
1,71,0,0
1,68,24,360
1,71,29,0
1,71,0,120
1,68,0,0
1,63,24,360
1,68,24,0
1,71,29,0
1,71,0,120
1,68,0,0
1,63,0,0
1,63,24,360
1,68,24,0
1,71,29,0
1,71,0,120
1,68,0,0
1,63,0,0
1,63,25,360
1,68,25,0
1,71,30,0
1,71,0,120
1,68,0,0
1,63,0,0
1,65,25,360
1,68,25,0
1,71,30,0
1,71,0,120
1,68,0,0
1,65,0,0
1,65,26,360
1,68,26,0
1,71,31,0
1,71,0,120
1,68,0,0
1,65,0,0
1,65,26,360
1,68,26,0
1,71,31,0
1,71,0,120
1,68,0,0
1,65,0,0
1,63,27,360
1,68,27,0
1,71,32,0
1,71,0,120
1,68,0,0
1,63,0,0
1,63,27,360
1,68,27,0
1,71,32,0
1,71,0,120
1,68,0,0
1,63,0,0
1,63,28,360
1,68,28,0
1,71,33,0
1,71,0,120
1,68,0,0
1,63,0,0
1,65,28,360
1,68,28,0
1,71,34,0
1,71,0,120
1,68,0,0
1,65,0,0
1,65,29,360
1,68,29,0
1,71,35,0
1,71,0,120
1,68,0,0
1,65,0,0
1,65,29,360
1,68,29,0
1,71,35,0
1,71,0,120
1,68,0,0
1,65,0,0
1,71,41,360
1,68,34,0
1,68,0,120
1,71,0,0
1,68,34,360
1,71,40,0
1,71,0,120
1,68,0,0
1,68,34,360
1,71,40,0
1,71,0,120
1,68,0,0
1,68,34,360
1,71,40,0
1,71,0,120
1,68,0,0
1,71,38,360
1,68,32,0
1,68,0,120
1,71,0,0
1,71,38,360
1,68,32,0
1,68,0,120
1,71,0,0
1,71,41,360
1,68,34,0
1,68,0,120
1,71,0,0
1,68,34,360
1,71,40,0
1,71,0,120
1,68,0,0
1,68,34,360
1,71,40,0
1,71,0,120
1,68,0,0
1,68,34,360
1,71,40,0
1,71,0,120
1,68,0,0
1,71,38,360
1,68,32,0
1,68,0,120
1,71,0,0
1,71,38,360
1,68,32,0
1,68,0,120
1,71,0,0
1,71,32,360
1,71,0,120
1,71,33,360
1,71,0,120
1,71,30,360
1,71,0,120
1,71,27,360
1,71,0,120
1,71,23,360
1,71,0,120
1,71,26,360
1,71,0,120
1,59,25,60
1,64,40,60
1,64,0,240
1,59,0,0
1,71,33,0
1,71,0,240
1,75,29,0
1,80,42,0
1,80,0,240
1,75,0,0
1,75,35,0
1,68,24,0
1,68,0,240
1,75,0,0
1,80,34,0
1,85,48,0
1,85,0,240
1,80,0,0
1,75,26,0
1,80,37,0
1,80,0,240
1,75,0,0
1,78,43,0
1,73,43,0
1,73,0,180
1,66,22,60
1,73,32,0
1,73,0,360
1,66,0,0
1,73,32,120
1,66,22,0
1,66,0,180
1,73,0,0
1,78,0,60
1,75,28,0
1,80,40,0
1,80,0,240
1,75,0,0
1,68,28,0
1,73,40,0
1,73,0,240
1,68,0,0
1,78,44,0
1,73,31,0
1,73,0,240
1,78,0,0
1,66,28,0
1,73,40,0
1,73,0,240
1,66,0,0
1,80,41,0
1,75,28,0
1,75,0,240
1,80,0,0
1,68,28,0
1,75,40,0
1,75,0,240
1,68,0,0
1,80,34,0
1,85,49,0
1,85,0,240
1,80,0,0
1,80,41,0
1,75,28,0
1,75,0,240
1,80,0,0
1,78,51,0
1,73,51,0
1,73,0,180
1,73,34,60
1,66,23,0
1,66,0,360
1,73,0,0
1,73,32,120
1,66,22,0
1,66,0,360
1,73,0,0
1,73,34,120
1,66,23,0
1,66,0,180
1,73,0,0
1,78,0,60
1,80,45,0
1,75,32,0
1,75,0,240
1,75,23,0
1,68,23,0
1,68,0,240
1,75,0,0
1,80,0,0
1,73,28,0
1,78,40,0
1,73,0,240
1,73,21,0
1,66,21,0
1,66,0,240
1,73,0,0
1,78,0,0
1,80,40,0
1,75,28,0
1,75,0,240
1,75,22,0
1,68,22,0
1,68,0,240
1,75,0,0
1,80,0,0
1,64,26,0
1,68,26,0
1,73,49,0
1,73,0,720
1,75,37,0
1,75,0,240
1,73,37,0
1,73,0,480
1,68,0,0
1,64,0,0
