track,note,velocity,time
1,74,47,720
1,74,0,240
1,74,50,0
1,74,0,360
1,76,46,0
1,76,0,60
1,78,49,0
1,78,0,60
1,79,52,0
1,79,0,180
1,79,47,60
1,79,0,180
1,79,50,60
1,79,0,480
1,78,47,0
1,78,0,240
1,76,47,0
1,76,0,240
1,76,50,0
1,76,0,120
1,74,45,0
1,74,0,120
1,72,45,0
1,72,0,120
1,71,45,0
1,71,0,120
1,74,50,0
1,74,0,120
1,72,45,0
1,72,0,120
1,71,45,0
1,71,0,120
1,69,45,0
1,69,0,120
1,71,50,0
1,71,0,240
1,67,46,0
1,67,0,240
1,74,56,240
1,74,0,240
1,74,60,0
1,74,0,360
1,76,58,0
1,76,0,60
1,78,62,0
1,78,0,60
1,79,67,0
1,79,0,180
1,83,68,60
1,83,0,120
1,83,71,120
1,83,0,480
1,81,69,0
1,81,0,240
1,79,66,0
1,79,0,240
1,79,68,0
1,79,0,120
1,78,61,0
1,78,0,120
1,76,61,0
1,76,0,120
1,74,60,0
1,74,0,120
1,76,72,0
1,76,0,64
1,78,60,0
1,78,0,64
1,76,60,0
1,76,0,64
1,78,67,0
1,78,0,48
1,76,58,0
1,76,0,48
1,78,62,0
1,78,0,48
1,76,64,0
1,76,0,48
1,74,62,0
1,74,0,48
1,76,64,0
1,76,0,48
1,74,68,0
1,74,0,480
1,74,47,240
1,74,0,240
1,74,50,0
1,74,0,360
1,76,46,0
1,76,0,60
1,78,49,0
1,78,0,60
1,79,52,0
1,79,0,180
1,79,47,60
1,79,0,180
1,79,50,60
1,79,0,480
1,78,47,0
1,78,0,240
1,76,47,0
1,76,0,240
1,76,50,0
1,76,0,120
1,74,45,0
1,74,0,120
1,72,45,0
1,72,0,120
1,71,45,0
1,71,0,120
1,74,50,0
1,74,0,120
1,72,45,0
1,72,0,120
1,71,45,0
1,71,0,120
1,69,45,0
1,69,0,120
1,71,50,0
1,71,0,240
1,67,46,0
1,67,0,240
1,74,56,240
1,74,0,240
1,74,60,0
1,74,0,360
1,76,58,0
1,76,0,60
1,78,62,0
1,78,0,60
1,79,67,0
1,79,0,180
1,83,68,60
1,83,0,180
1,83,71,60
1,83,0,480
1,81,69,0
1,81,0,240
1,79,66,0
1,79,0,240
1,79,68,0
1,79,0,120
1,78,61,0
1,78,0,120
1,76,61,0
1,76,0,120
1,74,60,0
1,74,0,120
1,76,72,0
1,76,0,64
1,78,60,0
1,78,0,64
1,76,60,0
1,76,0,64
1,78,67,0
1,78,0,48
1,76,58,0
1,76,0,48
1,78,62,0
1,78,0,48
1,76,64,0
1,76,0,48
1,74,62,0
1,74,0,48
1,76,64,0
1,76,0,48
1,74,68,0
1,74,0,480
1,74,70,240
1,74,0,120
1,86,72,0
1,86,0,120
1,86,80,0
1,86,0,480
1,84,74,0
1,84,0,120
1,83,65,0
1,83,0,60
1,81,74,60
1,81,0,60
1,80,69,60
1,80,0,60
1,81,78,60
1,81,0,480
1,72,68,240
1,72,0,120
1,84,72,0
1,84,0,120
1,84,80,0
1,84,0,480
1,83,75,0
1,83,0,120
1,81,65,0
1,81,0,60
1,79,74,60
1,79,0,60
1,78,67,60
1,78,0,60
1,79,78,60
1,79,0,480
1,74,50,240
1,74,0,120
1,79,46,0
1,79,0,120
1,76,50,0
1,76,0,34
1,78,47,0
1,78,0,34
1,76,50,1
1,76,0,34
1,78,46,0
1,78,0,34
1,76,50,0
1,76,0,34
1,74,47,0
1,74,0,34
1,76,47,0
1,76,0,35
1,74,53,0
1,74,0,240
1,74,50,0
1,74,0,80
1,76,47,0
1,76,0,80
1,78,47,0
1,78,0,80
1,79,50,0
1,79,0,80
1,78,46,0
1,78,0,80
1,79,46,0
1,79,0,80
1,76,50,0
1,76,0,34
1,78,47,0
1,78,0,34
1,76,50,1
1,76,0,34
1,78,46,0
1,78,0,34
1,76,50,0
1,76,0,34
1,74,47,0
1,74,0,34
1,76,47,0
1,76,0,35
1,74,53,0
1,74,0,180
1,69,53,0
1,69,0,30
1,71,53,0
1,71,0,30
1,72,62,0
1,72,0,480
1,72,53,0
1,72,0,120
1,71,50,0
1,71,0,120
1,69,50,0
1,69,0,120
1,67,51,0
1,67,0,120
1,71,58,0
1,71,0,120
1,69,51,0
1,69,0,120
1,67,56,0
1,67,0,120
1,66,61,0
1,66,0,120
1,67,65,0
1,67,0,120
1,79,62,0
1,79,0,120
1,79,68,0
1,79,0,120
1,69,66,60
1,69,0,30
1,71,69,0
1,71,0,30
1,72,72,0
1,72,0,480
1,72,70,0
1,72,0,120
1,71,62,0
1,71,0,120
1,69,62,0
1,69,0,120
1,67,61,0
1,67,0,120
1,71,67,0
1,71,0,120
1,69,62,0
1,69,0,120
1,67,64,0
1,67,0,120
1,66,66,0
1,66,0,120
1,67,73,0
1,67,0,240
1,74,68,480
1,74,0,120
1,86,72,0
1,86,0,120
1,86,80,0
1,86,0,480
1,84,73,0
1,84,0,120
1,83,66,0
1,83,0,60
1,81,73,60
1,81,0,60
1,80,68,60
1,80,0,60
1,81,78,60
1,81,0,480
1,72,68,240
1,72,0,120
1,84,72,0
1,84,0,120
1,84,80,0
1,84,0,480
1,83,75,0
1,83,0,120
1,81,68,0
1,81,0,60
1,79,75,60
1,79,0,60
1,78,67,60
1,78,0,60
1,79,78,60
1,79,0,480
1,74,50,240
1,74,0,120
1,79,46,0
1,79,0,120
1,76,50,0
1,76,0,34
1,78,47,0
1,78,0,34
1,76,50,1
1,76,0,34
1,78,46,0
1,78,0,34
1,76,50,0
1,76,0,34
1,74,47,0
1,74,0,34
1,76,47,0
1,76,0,35
1,74,53,0
1,74,0,240
1,74,50,0
1,74,0,80
1,76,48,0
1,76,0,80
1,78,48,0
1,78,0,80
1,79,50,0
1,79,0,80
1,78,48,0
1,78,0,80
1,79,48,0
1,79,0,80
1,76,50,0
1,76,0,34
1,78,47,0
1,78,0,34
1,76,50,1
1,76,0,34
1,78,46,0
1,78,0,34
1,76,50,0
1,76,0,34
1,74,47,0
1,74,0,34
1,76,47,0
1,76,0,35
1,74,53,0
1,74,0,180
1,69,53,0
1,69,0,30
1,71,53,0
1,71,0,30
1,72,62,0
1,72,0,480
1,72,53,0
1,72,0,120
1,71,50,0
1,71,0,120
1,69,50,0
1,69,0,120
1,67,51,0
1,67,0,120
1,71,59,0
1,71,0,120
1,69,51,0
1,69,0,120
1,67,56,0
1,67,0,120
1,66,61,0
1,66,0,120
1,67,65,0
1,67,0,120
1,79,62,0
1,79,0,120
1,79,68,0
1,79,0,120
1,69,66,60
1,69,0,30
1,71,69,0
1,71,0,30
1,72,72,0
1,72,0,480
1,72,70,0
1,72,0,120
1,71,62,0
1,71,0,120
1,69,62,0
1,69,0,120
1,67,61,0
1,67,0,120
1,71,68,0
1,71,0,120
1,69,62,0
1,69,0,120
1,67,64,0
1,67,0,120
1,66,66,0
1,66,0,120
1,67,73,0
1,67,0,480
2,55,40,1200
2,55,0,240
2,59,36,0
2,59,0,240
2,60,39,0
2,60,0,240
2,62,43,0
2,62,0,240
2,50,36,0
2,50,0,240
2,62,41,0
2,62,0,240
2,60,38,0
2,60,0,240
2,59,40,0
2,59,0,240
2,55,33,0
2,55,0,240
2,57,40,0
2,57,0,240
2,50,34,0
2,50,0,240
2,55,40,0
2,55,0,240
2,50,34,0
2,50,0,120
2,47,34,0
2,47,0,120
2,43,40,0
2,43,0,240
2,55,48,480
2,55,0,240
2,59,43,0
2,59,0,240
2,55,52,0
2,55,0,240
2,67,51,240
2,67,0,240
2,61,55,0
2,61,0,240
2,64,49,0
2,64,0,240
2,62,57,0
2,62,0,240
2,54,46,0
2,54,0,240
2,55,54,0
2,55,0,240
2,57,46,0
2,57,0,240
2,50,54,0
2,50,0,240
2,45,44,0
2,45,0,120
2,38,42,120
2,38,0,120
2,55,40,600
2,55,0,240
2,59,36,0
2,59,0,240
2,60,39,0
2,60,0,240
2,62,43,0
2,62,0,240
2,50,36,0
2,50,0,240
2,62,41,0
2,62,0,240
