track,note,velocity,time
1,61,42,0
1,69,50,0
1,69,0,120
1,61,0,0
1,64,36,0
1,64,0,120
1,61,36,0
1,61,0,120
1,64,36,0
1,64,0,120
1,69,50,0
1,69,0,120
1,64,34,0
1,64,0,120
1,71,45,0
1,68,38,0
1,68,0,120
1,71,0,0
1,64,33,0
1,64,0,120
1,69,42,0
1,73,50,0
1,73,0,120
1,69,0,0
1,64,36,0
1,64,0,120
1,61,36,0
1,61,0,120
1,64,36,0
1,64,0,120
1,73,50,0
1,73,0,120
1,69,33,0
1,69,0,120
1,71,42,0
1,74,50,0
1,74,0,120
1,71,0,0
1,69,33,0
1,69,0,120
1,73,43,0
1,76,51,0
1,76,0,120
1,73,0,0
1,69,40,0
1,69,0,120
1,73,49,0
1,76,58,0
1,76,0,120
1,73,0,0
1,69,43,0
1,69,0,120
1,74,53,0
1,78,63,0
1,78,0,120
1,74,0,0
1,69,41,0
1,69,0,120
1,76,56,0
1,80,67,0
1,80,0,120
1,76,0,0
1,69,48,0
1,69,0,120
1,80,47,0
1,83,56,0
1,80,0,120
1,69,33,0
1,69,0,120
1,83,0,0
1,81,52,0
1,78,44,0
1,78,0,120
1,69,29,0
1,69,0,120
1,81,0,0
1,80,48,0
1,76,40,0
1,76,0,120
1,69,29,0
1,69,0,120
1,80,0,0
1,78,49,0
1,74,41,0
1,74,0,120
1,69,36,0
1,69,0,120
1,78,0,0
1,76,49,0
1,73,41,0
1,73,0,120
1,66,29,0
1,66,0,120
1,76,0,0
1,74,48,0
1,71,40,0
1,71,0,120
1,66,24,0
1,66,0,120
1,74,0,0
1,73,47,0
1,64,39,0
1,64,0,120
1,66,34,0
1,66,0,120
1,73,0,0
1,71,45,0
1,62,38,0
1,62,0,120
1,66,33,0
1,66,0,120
1,71,0,0
1,69,45,0
1,61,38,0
1,61,0,120
1,64,33,0
1,64,0,120
1,69,0,0
1,73,47,0
1,64,33,120
1,64,0,120
1,73,0,0
1,62,35,0
1,71,42,0
1,62,0,120
1,64,32,0
1,64,0,120
1,71,0,0
1,68,42,0
1,64,29,120
1,64,0,120
1,68,0,0
1,61,37,0
1,69,45,0
1,69,0,120
1,61,0,0
1,64,32,0
1,64,0,120
1,61,31,0
1,61,0,120
1,64,30,0
1,64,0,120
1,69,39,0
1,69,0,120
1,73,32,0
1,73,0,120
1,76,37,0
1,76,0,120
1,73,33,0
1,73,0,120
1,61,31,0
1,69,37,0
1,69,0,240
1,61,0,0
1,69,34,240
1,61,29,0
1,61,0,240
1,69,0,0
1,61,37,240
1,69,37,0
1,69,0,240
1,61,0,0
1,64,52,480
1,64,0,240
1,69,60,0
1,64,51,0
1,64,0,456
1,69,0,0
1,71,69,24
1,68,58,0
1,64,58,0
1,64,0,456
1,68,0,0
1,71,0,0
1,73,73,24
1,69,60,0
1,64,60,0
1,64,0,713
1,69,0,0
1,73,0,0
1,73,59,7
1,73,0,234
1,73,68,6
1,69,57,0
1,66,57,0
1,73,0,234
1,66,0,6
1,69,0,0
1,73,59,0
1,73,0,240
1,76,72,0
1,76,0,360
1,74,59,0
1,74,0,120
1,73,69,0
1,66,58,0
1,66,0,480
1,73,0,0
1,71,52,0
1,71,0,228
1,71,47,12
1,71,0,228
1,74,57,12
1,66,48,0
1,66,0,456
1,74,0,0
1,73,53,24
1,65,45,0
1,65,0,480
1,73,0,0
1,61,42,0
1,66,42,0
1,69,50,0
1,69,0,718
1,66,0,2
1,61,0,0
1,69,37,0
1,69,0,240
1,71,42,0
1,69,42,0
1,62,42,0
1,69,0,480
1,68,38,0
1,71,0,240
1,73,34,0
1,73,0,240
1,68,0,0
1,62,0,0
1,61,32,0
1,69,38,0
1,69,0,480
1,61,0,0
1,64,68,240
1,64,0,240
1,69,69,0
1,64,58,0
1,64,0,456
1,69,0,0
1,71,78,24
1,68,67,0
1,64,67,0
1,64,0,456
1,68,0,0
1,71,0,0
1,73,84,24
1,69,69,0
1,64,69,0
1,64,0,713
1,69,0,0
1,73,0,0
1,73,68,7
1,73,0,228
1,73,77,12
1,69,66,0
1,66,66,0
1,73,0,228
1,73,68,12
1,73,0,170
1,73,65,10
1,73,0,60
1,76,82,0
1,76,0,360
1,74,68,0
1,74,0,120
1,66,0,0
1,69,0,0
1,73,78,0
1,66,67,0
1,66,0,480
1,73,0,0
1,71,55,0
1,71,0,228
1,71,48,12
1,71,0,228
1,74,57,12
1,66,48,0
1,66,0,480
1,74,0,0
1,73,53,0
1,65,45,0
1,65,0,480
1,73,0,0
1,61,42,0
1,66,42,0
1,69,50,0
1,69,0,718
1,66,0,2
1,61,0,0
1,69,37,0
1,69,0,240
1,71,42,0
1,69,42,0
1,62,42,0
1,69,0,480
1,68,38,0
1,71,0,240
1,73,34,0
1,73,0,240
1,68,0,0
1,62,0,0
1,61,32,0
1,69,38,0
1,69,0,480
1,61,0,0
1,64,58,480
1,69,58,0
1,76,69,0
1,76,0,480
1,69,0,0
1,64,0,0
1,71,53,0
1,74,65,0
1,74,0,240
1,71,0,0
1,73,53,0
1,69,45,0
1,69,0,216
1,73,0,0
1,64,58,24
1,68,58,0
1,73,69,0
1,73,0,480
1,68,0,0
1,64,0,0
1,71,63,0
1,71,0,240
1,64,45,240
1,69,53,0
1,69,0,216
1,64,0,0
1,64,39,24
1,69,46,0
1,69,0,216
1,64,0,0
1,62,45,24
1,68,54,0
1,68,0,216
1,62,0,0
1,61,39,24
1,66,46,0
1,66,0,216
1,61,0,0
1,59,46,24
1,62,46,0
1,66,55,0
1,66,0,480
1,64,52,0
1,62,0,480
1,59,0,0
1,61,44,0
1,61,0,240
1,64,0,0
1,63,45,0
1,66,53,0
1,66,0,240
1,63,0,0
1,64,45,0
1,68,54,0
1,68,0,240
1,64,0,0
1,66,46,0
1,69,55,0
1,69,0,240
1,66,0,0
1,71,65,0
1,64,55,0
1,71,0,240
1,76,66,0
1,76,0,240
1,71,58,0
1,71,0,360
1,68,56,0
1,68,0,120
1,71,66,0
1,71,0,480
1,64,0,0
1,69,56,0
1,63,47,0
1,69,0,240
1,66,43,0
1,66,0,230
1,63,0,5
1,59,32,5
1,57,32,0
1,63,32,0
1,66,38,0
1,66,0,480
1,59,0,0
1,57,0,0
1,63,0,0
1,56,32,0
1,64,38,0
1,64,0,240
1,56,0,0
1,61,41,240
1,64,41,0
1,73,49,0
1,73,0,480
1,64,0,0
1,61,0,0
1,64,43,0
1,73,48,0
1,73,0,240
1,64,0,0
1,69,43,0
1,69,0,240
1,62,42,0
1,68,50,0
1,68,0,480
1,62,0,0
1,66,45,0
1,66,0,240
1,61,28,240
1,64,28,0
1,73,35,0
1,73,0,480
1,64,0,0
1,61,0,0
1,64,30,0
1,73,34,0
1,73,0,240
1,64,0,0
1,69,30,0
1,69,0,240
1,62,26,0
1,68,32,0
1,68,0,480
1,62,0,0
1,66,28,0
1,66,0,240
1,66,64,240
1,78,73,0
1,78,0,480
1,73,69,0
1,73,0,720
1,66,0,0
1,66,22,0
1,71,45,0
1,71,0,180
1,66,0,0
1,66,22,60
1,73,45,0
1,73,0,180
1,66,0,0
1,66,22,60
1,74,45,0
1,74,0,180
1,66,0,0
1,64,33,60
1,73,39,0
1,73,0,480
1,71,40,0
1,71,0,216
1,76,34,24
1,76,0,216
1,64,0,24
1,64,34,0
1,68,34,0
1,74,41,0
1,74,0,480
1,68,0,0
1,64,0,0
1,69,35,0
1,73,39,0
1,73,0,240
1,69,0,0
1,64,68,0
1,64,0,240
1,69,69,0
1,64,46,240
1,69,0,216
1,64,0,24
1,71,78,0
1,64,53,240
1,68,53,0
1,71,0,216
1,68,0,24
1,64,0,0
1,73,84,0
1,64,46,240
1,69,46,0
1,69,0,216
1,64,0,0
1,64,46,24
1,69,46,0
1,69,0,216
1,64,0,0
1,73,0,17
1,64,46,7
1,69,46,0
1,73,74,0
1,69,0,216
1,64,0,0
1,73,0,12
1,73,85,12
1,73,0,228
1,73,74,12
1,69,46,0
1,64,46,0
1,73,0,170
