track,note,velocity,time
1,58,80,3780
1,58,0,60
1,65,88,0
1,65,0,480
1,64,80,360
1,64,0,60
1,65,80,0
1,65,0,60
1,64,92,0
1,64,0,1440
1,57,80,480
1,57,0,160
1,58,80,0
1,58,0,160
1,60,80,0
1,60,0,160
1,61,86,0
1,61,0,420
1,58,80,0
1,58,0,60
1,65,86,0
1,65,0,480
1,64,80,360
1,64,0,40
1,65,80,0
1,65,0,40
1,64,80,0
1,64,0,40
1,61,90,0
1,61,0,1440
1,57,82,480
1,57,0,240
1,58,80,0
1,58,0,240
1,60,80,0
1,60,0,240
1,61,80,0
1,61,0,240
1,63,80,0
1,63,0,720
1,65,83,0
1,65,0,240
1,66,87,0
1,66,0,240
1,69,88,240
1,69,0,240
1,70,93,240
1,70,0,960
1,68,88,0
1,68,0,480
1,66,85,0
1,66,0,480
1,69,88,0
1,69,0,320
1,66,85,0
1,66,0,320
1,65,80,0
1,65,0,300
1,65,87,20
1,65,0,840
1,69,80,0
1,69,0,120
1,65,86,0
1,65,0,480
1,57,82,480
1,57,0,240
1,58,80,0
1,58,0,240
1,60,80,0
1,60,0,240
1,61,80,0
1,61,0,240
1,63,80,0
1,63,0,720
1,65,83,0
1,65,0,240
1,66,87,0
1,66,0,240
1,69,88,240
1,69,0,240
1,70,93,240
1,70,0,960
1,69,88,0
1,69,0,480
1,66,85,0
1,66,0,480
1,68,88,0
1,68,0,320
1,66,85,0
1,66,0,320
1,65,80,0
1,65,0,300
1,65,87,20
1,65,0,2160
1,58,80,660
1,58,0,60
1,65,86,0
1,65,0,480
1,64,80,360
1,64,0,40
1,65,80,0
1,65,0,40
1,64,80,0
1,64,0,40
1,61,90,0
1,61,0,840
1,60,80,0
1,60,0,40
1,61,78,0
1,61,0,40
1,57,78,0
1,57,0,40
1,61,89,0
1,61,0,780
1,60,75,0
1,60,0,30
1,61,75,0
1,61,0,30
1,60,75,0
1,60,0,40
1,58,75,0
1,58,0,40
1,57,75,0
1,57,0,40
1,61,80,0
1,61,0,3600
1,81,52,180
1,81,0,54
1,69,52,6
1,66,52,0
1,81,60,0
1,81,0,144
1,81,58,16
1,81,0,144
1,81,58,16
1,81,0,90
1,81,50,10
1,83,51,30
1,81,0,20
1,81,54,10
1,83,0,20
1,81,0,400
1,81,52,0
1,81,0,54
1,81,60,6
1,81,0,144
1,81,57,16
1,81,0,144
1,81,57,16
1,81,0,90
1,81,48,10
1,83,52,30
1,81,0,20
1,81,56,10
1,83,0,20
1,81,0,400
1,80,49,0
1,80,0,54
1,66,0,6
1,69,0,0
1,64,52,0
1,68,52,0
1,80,57,0
1,80,0,144
1,80,55,16
1,80,0,144
1,80,55,16
1,80,0,90
1,80,49,10
1,81,52,30
1,80,0,20
1,80,55,10
1,81,0,20
1,80,0,400
1,78,49,0
1,78,0,60
1,68,0,0
1,64,0,0
1,66,49,0
1,62,49,0
1,78,57,0
1,78,0,160
1,78,54,0
1,78,0,160
1,78,54,0
1,78,0,100
1,78,47,0
1,79,50,30
1,78,0,20
1,78,56,10
1,79,0,20
1,78,0,400
1,80,49,0
1,80,0,54
1,62,0,6
1,66,0,0
1,80,57,0
1,64,49,0
1,68,49,0
1,80,0,144
1,80,55,16
1,80,0,144
1,80,55,16
1,80,0,90
1,80,49,10
1,81,49,30
1,80,0,20
1,80,55,10
1,81,0,20
1,80,0,400
1,73,49,0
1,73,0,54
1,68,0,6
1,64,0,0
1,61,49,0
1,73,54,0
1,64,49,0
1,73,0,144
1,73,51,16
1,73,0,144
1,73,51,16
1,73,0,90
1,73,47,10
1,74,46,30
1,73,0,20
1,73,53,10
1,74,0,20
1,73,0,400
1,73,47,0
1,73,0,54
1,73,54,6
1,73,0,144
1,73,51,16
1,73,0,144
1,73,51,16
1,73,0,90
1,73,47,10
1,74,47,30
1,73,0,20
1,73,55,10
1,74,0,20
1,73,0,400
1,73,40,0
1,73,0,54
1,73,47,6
1,73,0,144
1,73,47,16
1,73,0,144
1,73,47,16
1,73,0,90
1,73,39,10
1,74,40,30
1,74,0,0
1,73,0,20
1,64,0,10
1,61,0,0
1,73,47,0
1,73,0,420
1,81,52,0
1,81,0,54
1,66,52,6
1,69,52,0
1,81,60,0
1,81,0,144
1,81,58,16
1,81,0,144
1,81,58,16
1,81,0,90
1,81,50,10
1,83,47,30
1,81,0,20
1,81,51,10
1,83,0,20
1,81,0,400
1,81,52,0
1,81,0,54
1,81,60,6
1,81,0,144
1,81,57,16
1,81,0,144
1,81,57,16
1,81,0,90
1,81,50,10
1,83,51,30
1,81,0,20
1,81,56,10
1,83,0,20
1,81,0,400
1,80,49,0
1,80,0,54
1,69,0,6
1,66,0,0
1,64,52,0
1,68,52,0
1,80,57,0
1,80,0,144
1,80,55,16
1,80,0,144
1,80,55,16
1,80,0,90
1,80,49,10
1,81,52,30
1,80,0,20
1,80,58,10
1,81,0,20
1,80,0,400
1,78,49,0
1,78,0,54
1,68,0,6
1,64,0,0
1,66,49,0
1,62,49,0
1,78,57,0
1,78,0,144
1,78,54,16
1,78,0,144
1,78,54,16
1,78,0,90
1,78,47,10
1,79,50,30
1,78,0,20
1,78,56,10
1,79,0,20
1,78,0,400
1,80,49,0
1,80,0,54
1,62,0,6
1,66,0,0
1,80,57,0
1,68,49,0
1,64,49,0
1,80,0,144
1,80,55,16
1,80,0,144
1,80,55,16
1,80,0,90
1,80,49,10
1,81,49,30
1,80,0,20
1,80,57,10
1,81,0,20
1,80,0,400
1,73,49,0
1,73,0,54
1,64,0,6
1,68,0,0
1,61,49,0
1,64,49,0
1,73,54,0
1,73,0,144
1,73,51,16
1,73,0,144
1,73,51,16
1,73,0,90
1,73,47,10
1,74,46,30
1,73,0,20
1,73,51,10
1,74,0,20
1,73,0,400
1,73,47,0
1,73,0,54
1,73,54,6
1,73,0,144
1,73,51,16
1,73,0,144
1,73,51,16
1,73,0,90
1,73,47,10
1,74,47,30
1,73,0,20
1,73,51,10
1,74,0,20
1,73,0,400
1,73,40,0
1,73,0,54
1,73,47,6
1,73,0,144
1,73,47,16
1,73,0,144
1,73,47,16
1,73,0,90
1,73,39,10
1,74,40,30
1,73,0,20
1,61,0,10
1,64,0,0
1,73,47,0
1,74,0,20
1,73,0,400
1,78,52,0
1,78,0,54
1,78,54,6
1,62,46,0
1,66,46,0
1,78,0,144
1,78,52,16
1,78,0,144
1,78,52,16
1,78,0,90
1,78,45,10
1,80,45,30
1,78,0,20
1,78,52,10
1,80,0,20
1,78,0,400
1,78,46,0
1,78,0,54
1,78,54,6
1,78,0,144
1,78,51,16
1,78,0,144
1,78,51,16
1,78,0,90
1,78,46,10
1,80,46,30
1,78,0,20
1,78,52,10
1,80,0,20
1,78,0,400
1,76,44,0
1,76,0,54
1,66,0,6
1,62,0,0
1,76,51,0
1,64,46,0
1,61,46,0
1,76,0,144
1,76,49,16
1,76,0,144
1,76,49,16
1,76,0,90
1,76,44,10
1,78,46,30
1,76,0,20
1,76,52,10
1,78,0,20
1,76,0,400
1,74,44,0
1,74,0,54
1,61,0,6
1,64,0,0
1,62,44,0
1,74,51,0
1,59,44,0
1,74,0,144
1,74,48,16
1,74,0,144
1,74,48,16
1,74,0,90
1,74,42,10
1,76,45,30
1,74,0,20
1,74,50,10
1,76,0,20
1,74,0,400
1,78,44,0
1,78,0,54
1,59,0,6
1,62,0,0
1,62,44,0
1,66,44,0
1,78,51,0
1,78,0,144
1,78,49,16
1,78,0,144
1,78,49,16
1,78,0,90
1,78,44,10
1,80,44,30
1,78,0,20
1,78,51,10
1,80,0,20
1,78,0,400
1,73,44,0
1,73,0,54
1,66,0,6
1,62,0,0
1,61,44,0
1,57,44,0
1,73,48,0
1,73,0,144
1,73,45,16
1,73,0,144
1,73,45,16
1,73,0,90
1,73,42,10
1,74,41,30
1,73,0,20
1,73,47,10
1,74,0,20
1,73,0,400
1,73,42,0
1,73,0,54
1,73,48,6
1,73,0,144
1,73,45,16
1,73,0,144
1,73,45,16
1,73,0,90
