track,note,velocity,time
1,67,90,1
1,65,85,479
1,67,0,21
1,70,89,459
1,65,0,20
1,72,87,460
1,70,0,20
1,77,73,220
1,72,0,20
1,74,86,220
1,77,0,20
1,72,85,460
1,74,0,20
1,77,74,220
1,72,0,20
1,74,85,220
1,77,0,20
1,74,0,430
1,70,86,30
1,72,86,480
1,70,0,20
1,67,82,460
1,72,0,20
1,65,81,460
1,67,0,20
1,65,0,430
1,58,69,30
1,67,82,0
1,62,69,0
1,62,0,480
1,67,0,0
1,58,0,0
1,60,68,0
1,57,68,0
1,65,80,0
1,65,0,480
1,57,0,0
1,60,0,0
1,62,68,0
1,58,68,0
1,70,80,0
1,70,0,480
1,58,0,0
1,62,0,0
1,60,69,0
1,72,82,0
1,69,69,0
1,72,0,240
1,77,78,0
1,77,0,240
1,69,0,0
1,60,0,0
1,69,68,0
1,74,81,0
1,65,68,0
1,65,0,480
1,74,0,0
1,69,0,0
1,60,68,0
1,69,68,0
1,72,81,0
1,72,0,240
1,77,77,0
1,77,0,240
1,69,0,0
1,60,0,0
1,70,71,0
1,65,71,0
1,74,84,0
1,74,0,450
1,65,0,0
1,70,0,0
1,67,66,30
1,62,66,0
1,70,78,0
1,70,0,480
1,62,0,0
1,67,0,0
1,67,65,0
1,64,65,0
1,72,77,0
1,72,0,480
1,64,0,0
1,67,0,0
1,60,59,0
1,67,70,0
1,55,59,0
1,55,0,480
1,67,0,0
1,60,0,0
1,65,66,0
1,57,56,0
1,60,56,0
1,60,0,450
1,57,0,0
1,65,0,0
1,65,92,30
1,67,88,480
1,65,0,20
1,62,83,460
1,67,0,20
1,65,86,460
1,62,0,20
1,67,74,220
1,65,0,20
1,60,80,220
1,67,0,20
1,67,80,460
1,60,0,20
1,69,72,220
1,67,0,20
1,65,79,220
1,69,0,20
1,65,0,430
1,72,71,30
1,65,71,0
1,69,71,0
1,77,84,0
1,77,0,480
1,72,0,0
1,65,0,0
1,69,0,0
1,65,69,0
1,62,69,0
1,74,82,0
1,74,0,480
1,62,0,0
1,65,0,0
1,72,80,0
1,60,68,0
1,65,68,0
1,60,0,240
1,72,0,0
1,70,74,0
1,58,62,0
1,58,0,240
1,70,0,0
1,65,0,0
1,65,79,0
1,65,0,450
1,65,92,30
1,67,88,480
1,65,0,20
1,62,85,460
1,67,0,20
1,65,86,460
1,62,0,20
1,67,77,220
1,65,0,20
1,63,85,220
1,67,0,20
1,70,94,460
1,63,0,20
1,72,78,220
1,70,0,20
1,68,81,220
1,72,0,20
1,68,0,430
1,68,71,30
1,72,71,0
1,75,71,0
1,80,84,0
1,80,0,480
1,68,0,0
1,72,0,0
1,75,0,0
1,77,80,0
1,68,68,0
1,65,68,0
1,65,0,480
1,68,0,0
1,77,0,0
1,63,66,0
1,75,78,0
1,68,66,0
1,68,0,240
1,75,0,0
1,63,0,0
1,61,66,0
1,73,78,0
1,73,0,240
1,61,0,0
1,68,74,0
1,68,0,450
1,63,48,30
1,56,48,0
1,68,57,0
1,68,0,480
1,56,0,0
1,58,49,0
1,70,58,0
1,70,0,480
1,58,0,0
1,68,58,0
1,56,49,0
1,56,0,480
1,68,0,0
1,63,0,0
1,63,49,0
1,58,49,0
1,70,58,0
1,70,0,240
1,58,0,0
1,60,49,0
1,72,58,0
1,72,0,240
1,60,0,0
1,75,63,0
1,63,53,0
1,63,0,240
1,75,0,0
1,58,49,0
1,70,58,0
1,70,0,240
1,58,0,0
1,56,46,0
1,68,55,0
1,68,0,480
1,56,0,0
1,63,0,0
1,73,73,0
1,68,62,0
1,61,62,0
1,65,62,0
1,65,0,240
1,73,0,0
1,68,0,0
1,61,0,0
1,72,58,0
1,75,69,0
1,68,58,0
1,63,58,0
1,63,0,240
1,72,0,0
1,75,0,0
1,68,0,0
1,65,62,0
1,77,73,0
1,68,62,0
1,73,62,0
1,73,0,240
1,65,0,0
1,77,0,0
1,68,0,0
1,68,63,0
1,80,75,0
1,80,0,240
1,68,0,0
1,66,61,0
1,78,72,0
1,70,61,0
1,75,61,0
1,75,0,240
1,66,0,0
1,78,0,0
1,70,0,0
1,65,57,0
1,77,68,0
1,68,57,0
1,73,57,0
1,73,0,240
1,65,0,0
1,77,0,0
1,68,0,0
1,72,63,0
1,75,75,0
1,68,63,0
1,63,63,0
1,63,0,240
1,72,0,0
1,75,0,0
1,68,0,0
1,78,69,0
1,66,58,0
1,66,0,240
1,78,0,0
1,73,58,0
1,77,69,0
1,65,58,0
1,70,58,0
1,70,0,240
1,73,0,0
1,77,0,0
1,65,0,0
1,61,57,0
1,73,68,0
1,73,0,240
1,61,0,0
1,68,54,0
1,63,54,0
1,72,54,0
1,75,64,0
1,75,0,480
1,68,0,0
1,63,0,0
1,72,0,0
1,63,51,0
1,56,51,0
1,68,61,0
1,68,0,480
1,56,0,0
1,63,0,0
1,63,51,0
1,70,61,0
1,58,51,0
1,58,0,480
1,70,0,0
1,63,0,0
1,56,51,0
1,63,51,0
1,68,61,0
1,68,0,480
1,63,0,0
1,56,0,0
1,58,49,0
1,63,49,0
1,70,58,0
1,70,0,240
1,58,0,0
1,72,58,0
1,60,49,0
1,60,0,240
1,72,0,0
1,63,53,0
1,75,63,0
1,75,0,240
1,63,0,0
1,63,0,0
1,58,49,0
1,70,58,0
1,70,0,210
1,58,0,0
1,72,62,30
1,67,52,0
1,60,52,0
1,60,0,480
1,72,0,0
1,74,64,0
1,62,54,0
1,62,0,480
1,74,0,0
1,60,53,0
1,72,63,0
1,72,0,480
1,60,0,0
1,67,0,0
1,67,52,0
1,62,52,0
1,74,62,0
1,74,0,240
1,62,0,0
1,65,52,0
1,77,62,0
1,77,0,240
1,65,0,0
1,79,64,0
1,67,54,0
1,67,0,240
1,79,0,0
1,74,63,0
1,62,53,0
1,62,0,240
1,74,0,0
1,72,61,0
1,60,51,0
1,60,0,450
1,72,0,0
1,67,0,30
1,72,67,0
1,65,67,0
1,69,67,0
1,77,79,0
1,77,0,240
1,72,0,0
1,65,0,0
1,69,0,0
1,72,61,0
1,79,72,0
1,76,61,0
1,67,61,0
1,67,0,240
1,72,0,0
1,79,0,0
1,76,0,0
1,69,69,0
1,81,82,0
1,77,69,0
1,72,69,0
1,72,0,240
1,69,0,0
1,81,0,0
1,77,0,0
1,84,72,0
1,72,61,0
1,72,0,240
1,84,0,0
1,79,68,0
1,70,68,0
1,74,68,0
1,82,81,0
1,82,0,240
1,79,0,0
1,70,0,0
1,74,0,0
1,72,63,0
1,81,75,0
1,77,63,0
1,69,63,0
1,69,0,240
1,72,0,0
1,81,0,0
1,77,0,0
1,67,68,0
1,79,81,0
1,72,68,0
1,76,68,0
1,76,0,240
1,67,0,0
1,79,0,0
1,72,0,0
1,70,63,0
1,82,75,0
1,82,0,240
1,70,0,0
1,74,67,0
1,69,67,0
1,77,67,0
1,81,79,0
1,81,0,240
1,74,0,0
1,69,0,0
1,77,0,0
1,65,62,0
1,77,74,0
1,77,0,240
1,65,0,0
1,72,58,0
1,67,58,0
1,79,69,0
1,76,58,0
1,76,0,480
1,72,0,0
1,67,0,0
1,79,0,0
1,72,61,0
1,67,51,0
1,60,51,0
1,60,0,480
1,67,0,0
1,72,0,0
1,74,61,0
1,62,51,0
1,67,51,0
1,67,0,480
1,62,0,0
1,74,0,0
1,72,61,0
1,67,51,0
1,60,51,0
1,60,0,480
1,67,0,0
1,72,0,0
1,74,58,0
1,67,49,0
1,62,49,0
1,62,0,240
1,67,0,0
1,74,0,0
1,77,58,0
1,65,49,0
1,65,0,240
1,77,0,0
1,67,53,0
1,79,63,0
1,79,0,240
1,67,0,0
1,62,49,0
1,74,58,0
1,74,0,210
1,62,0,0
1,69,56,30
1,81,67,0
1,73,56,0
1,73,0,480
1,81,0,0
1,69,0,0
1,74,54,0
1,69,54,0
1,77,64,0
1,77,0,480
1,69,0,0
1,74,0,0
1,73,55,0
1,69,55,0
1,81,65,0
1,81,0,480
1,69,0,0
1,73,0,0
1,74,61,0
1,70,51,0
