track,note,velocity,time
1,79,57,0
1,79,0,120
1,77,56,0
1,77,0,120
1,75,54,0
1,75,0,120
1,74,52,0
1,74,0,120
1,72,60,0
1,72,0,240
1,70,54,0
1,70,0,230
1,70,51,10
1,70,0,720
1,74,57,0
1,74,0,240
1,79,60,0
1,79,0,240
1,74,55,0
1,74,0,240
1,77,60,0
1,77,0,480
1,75,56,0
1,75,0,720
1,77,60,0
1,77,0,120
1,79,56,0
1,79,0,120
1,77,61,0
1,77,0,120
1,75,54,0
1,75,0,120
1,74,58,0
1,74,0,120
1,72,53,0
1,72,0,120
1,70,66,0
1,70,0,480
1,69,57,0
1,69,0,713
1,69,62,7
1,69,0,240
1,70,65,0
1,70,0,240
1,72,61,0
1,72,0,230
1,69,52,10
1,72,61,0
1,72,0,480
1,69,0,0
1,70,49,0
1,74,58,0
1,74,0,480
1,70,0,0
1,77,64,240
1,77,0,120
1,76,63,0
1,76,0,120
1,79,66,0
1,79,0,120
1,77,63,0
1,77,0,120
1,75,63,0
1,75,0,120
1,74,61,0
1,74,0,110
1,74,68,10
1,74,0,240
1,72,61,0
1,72,0,480
1,70,61,0
1,70,0,240
1,74,67,0
1,74,0,240
1,72,62,0
1,72,0,480
1,69,64,0
1,69,0,240
1,70,68,0
1,70,0,120
1,72,59,0
1,72,0,120
1,70,62,0
1,70,0,120
1,69,58,0
1,69,0,120
1,70,66,0
1,70,0,120
1,72,60,0
1,72,0,120
1,74,63,0
1,74,0,120
1,75,61,0
1,75,0,120
1,76,69,0
1,76,0,120
1,77,65,0
1,77,0,120
1,76,69,0
1,76,0,120
1,77,65,0
1,77,0,120
1,79,69,0
1,79,0,120
1,77,67,0
1,77,0,120
1,75,66,0
1,75,0,120
1,74,65,0
1,74,0,110
1,74,72,10
1,74,0,240
1,72,54,0
1,72,0,230
1,72,56,10
1,72,0,240
1,70,54,0
1,70,0,240
1,74,65,0
1,74,0,240
1,72,54,0
1,72,0,230
1,72,57,10
1,72,0,240
1,69,53,0
1,69,0,240
1,70,66,0
1,70,0,240
1,72,57,0
1,72,0,120
1,74,58,0
1,74,0,120
1,75,59,0
1,75,0,120
1,77,60,0
1,77,0,120
1,79,61,0
1,79,0,120
1,81,64,0
1,81,0,120
1,82,66,0
1,82,0,120
1,84,67,0
1,84,0,120
1,86,68,0
1,86,0,120
1,87,69,0
1,87,0,120
1,89,76,0
1,89,0,120
1,89,75,120
1,89,0,120
1,77,76,120
1,89,76,0
1,89,0,240
1,87,74,0
1,87,0,480
1,86,73,0
1,86,0,240
1,86,75,0
1,86,0,240
1,77,0,0
1,75,64,0
1,84,64,0
1,84,0,120
1,75,0,0
1,74,72,120
1,82,72,0
1,82,0,120
1,74,0,0
1,72,64,120
1,81,64,0
1,81,0,120
1,72,0,0
1,82,76,120
1,74,76,0
1,74,0,240
1,82,0,0
1,70,72,240
1,70,0,240
1,67,52,720
1,67,0,120
1,65,49,0
1,65,0,120
1,63,52,0
1,63,0,120
1,62,50,0
1,62,0,120
1,60,56,0
1,60,0,240
1,58,53,0
1,58,0,230
1,58,53,10
1,58,0,720
1,70,63,0
1,70,0,240
1,69,58,0
1,69,0,240
1,67,56,0
1,67,0,240
1,65,64,0
1,65,0,480
1,64,51,0
1,64,0,600
1,67,52,0
1,67,0,120
1,65,56,0
1,65,0,120
1,69,52,0
1,69,0,120
1,67,56,0
1,67,0,120
1,70,53,0
1,70,0,120
1,69,56,0
1,69,0,120
1,72,53,0
1,72,0,120
1,70,56,0
1,70,0,120
1,67,58,0
1,67,0,120
1,76,61,0
1,76,0,120
1,72,62,0
1,72,0,120
1,79,64,0
1,79,0,120
1,76,67,0
1,76,0,120
1,82,70,0
1,82,0,120
1,81,69,0
1,81,0,120
1,82,71,0
1,82,0,120
1,81,67,0
1,81,0,120
1,79,69,0
1,79,0,120
1,77,65,0
1,77,0,120
1,76,66,0
1,76,0,120
1,74,65,0
1,74,0,120
1,72,64,0
1,72,0,120
1,70,63,0
1,70,0,110
1,70,69,10
1,70,0,120
1,69,56,0
1,69,0,120
1,74,64,0
1,74,0,120
1,72,54,0
1,72,0,110
1,72,54,10
1,72,0,480
1,86,69,480
1,86,0,120
1,84,66,0
1,84,0,120
1,82,69,0
1,82,0,120
1,81,66,0
1,81,0,120
1,79,72,0
1,79,0,720
1,76,63,0
1,76,0,240
1,77,66,0
1,77,0,60
1,84,70,60
1,83,70,120
1,84,0,24
1,84,67,96
1,83,0,24
1,86,73,96
1,84,0,24
1,84,68,96
1,86,0,24
1,82,71,96
1,84,0,24
1,81,68,96
1,82,0,24
1,79,81,96
1,81,0,24
1,79,0,96
1,79,75,120
1,79,0,480
1,76,64,0
1,76,0,240
1,77,63,0
1,77,0,60
1,84,70,60
1,83,69,120
1,84,0,24
1,84,68,96
1,83,0,24
1,86,75,96
1,84,0,24
1,84,69,96
1,86,0,24
1,82,71,96
1,84,0,24
1,81,67,96
1,82,0,12
1,81,0,108
1,81,73,0
1,81,0,240
1,79,70,0
1,79,0,240
1,79,72,240
1,79,0,230
1,79,78,10
1,79,0,240
1,77,72,0
1,77,0,240
1,77,72,240
1,77,0,240
1,76,73,0
1,76,0,120
1,77,66,0
1,77,0,120
1,76,68,0
1,76,0,120
1,72,65,0
1,72,0,120
1,77,75,0
1,77,0,120
1,79,68,0
1,79,0,120
1,77,68,0
1,77,0,120
1,72,65,0
1,72,0,120
1,79,80,0
1,79,0,120
1,81,68,0
1,81,0,120
1,79,72,0
1,79,0,120
1,72,67,0
1,72,0,120
1,81,81,0
1,81,0,120
1,82,74,0
1,82,0,120
1,81,76,0
1,81,0,120
1,72,69,0
1,72,0,120
1,82,85,0
1,82,0,120
1,82,83,120
1,82,0,120
1,79,77,360
1,79,0,120
1,82,81,120
1,82,0,240
1,81,71,0
1,81,0,120
1,79,76,120
1,79,0,120
1,77,73,120
1,77,0,120
1,76,78,120
1,76,0,120
1,72,72,0
1,72,0,120
1,83,72,0
1,83,0,120
1,84,68,0
1,84,0,120
1,77,80,0
1,77,0,120
1,72,73,0
1,72,0,120
1,83,73,0
1,83,0,120
1,84,69,0
1,84,0,120
1,79,81,0
1,79,0,120
1,72,76,0
1,72,0,120
1,83,76,0
1,83,0,120
1,84,73,0
1,84,0,120
1,81,84,0
1,81,0,120
1,72,76,0
1,72,0,120
1,83,76,0
1,83,0,120
1,84,75,0
1,84,0,120
1,82,89,0
1,82,0,120
1,82,84,120
1,82,0,120
1,79,69,360
1,79,0,60
1,81,66,0
1,81,0,60
1,79,69,0
1,79,0,60
1,81,67,0
1,81,0,60
1,82,79,0
1,82,0,240
1,81,76,0
1,81,0,120
1,79,76,120
1,79,0,120
1,77,75,120
1,77,0,120
1,76,79,120
1,76,0,120
1,84,71,0
1,84,0,120
1,79,72,0
1,79,0,120
1,76,70,0
1,76,0,120
1,72,76,0
1,72,0,120
1,67,69,0
1,67,0,120
1,64,71,0
1,64,0,120
1,60,70,0
1,60,0,120
1,69,70,960
1,65,70,0
1,60,70,0
1,72,70,0
1,72,0,720
1,69,0,0
1,65,0,0
1,60,0,0
1,74,48,0
1,74,0,120
1,72,48,0
1,72,0,120
1,70,52,0
1,70,0,120
1,69,48,120
1,69,0,120
1,67,48,120
1,67,0,120
1,65,48,120
1,65,0,120
1,65,54,120
1,74,50,230
1,65,0,10
1,74,0,230
1,65,72,10
1,74,72,0
1,74,0,720
1,65,0,0
1,72,53,0
1,72,0,240
1,76,56,0
1,76,0,240
1,77,53,0
1,77,0,240
1,77,61,0
1,77,0,240
1,67,53,0
1,67,0,480
1,69,53,0
1,69,0,240
1,77,61,0
1,77,0,240
1,67,53,0
1,67,0,480
1,69,53,0
1,69,0,240
1,72,58,0
1,72,0,480
1,70,52,0
1,70,0,60
1,72,48,0
1,72,0,60
1,70,52,0
1,70,0,60
1,72,48,0
1,72,0,60
1,70,52,0
1,70,0,40
1,72,48,0
1,72,0,40
1,70,48,0
1,70,0,40
1,69,52,0
1,69,0,60
