track,note,velocity,time
1,71,66,480
1,71,0,120
1,69,64,0
1,69,0,120
1,68,64,0
1,68,0,120
1,69,64,0
1,69,0,120
1,72,71,0
1,72,0,120
1,74,66,360
1,74,0,120
1,72,63,0
1,72,0,120
1,71,63,0
1,71,0,120
1,72,63,0
1,72,0,120
1,76,72,0
1,76,0,120
1,77,66,360
1,77,0,120
1,76,63,0
1,76,0,120
1,75,63,0
1,75,0,120
1,76,63,0
1,76,0,120
1,83,70,0
1,83,0,120
1,81,64,0
1,81,0,120
1,80,64,0
1,80,0,120
1,81,64,0
1,81,0,120
1,83,69,0
1,83,0,120
1,81,64,0
1,81,0,120
1,80,64,0
1,80,0,120
1,81,64,0
1,81,0,120
1,84,72,0
1,84,0,480
1,81,68,0
1,81,0,120
1,84,65,120
1,84,0,120
1,79,63,60
1,79,0,30
1,81,63,0
1,81,0,30
1,83,80,0
1,83,0,120
1,78,54,120
1,81,64,0
1,81,0,120
1,78,0,0
1,76,58,120
1,79,69,0
1,79,0,120
1,76,0,0
1,78,54,120
1,81,64,0
1,81,0,120
1,78,0,0
1,79,65,60
1,79,0,30
1,81,65,0
1,81,0,30
1,83,82,0
1,83,0,120
1,78,56,120
1,81,66,0
1,81,0,120
1,78,0,0
1,76,58,120
1,79,69,0
1,79,0,120
1,76,0,0
1,78,55,120
1,81,65,0
1,81,0,120
1,78,0,0
1,79,64,60
1,79,0,30
1,81,64,0
1,83,79,30
1,81,0,30
1,83,0,90
1,78,57,120
1,81,68,0
1,81,0,120
1,78,0,0
1,76,58,120
1,79,69,0
1,79,0,120
1,76,0,0
1,75,56,120
1,78,66,0
1,78,0,120
1,75,0,0
1,76,69,120
1,76,0,450
1,71,66,30
1,71,0,120
1,69,64,0
1,69,0,120
1,68,64,0
1,68,0,120
1,69,64,0
1,69,0,120
1,72,71,0
1,72,0,120
1,74,66,360
1,74,0,120
1,72,63,0
1,72,0,120
1,71,63,0
1,71,0,120
1,72,63,0
1,72,0,120
1,76,72,0
1,76,0,120
1,77,66,360
1,77,0,120
1,76,63,0
1,76,0,120
1,75,63,0
1,75,0,120
1,76,63,0
1,76,0,120
1,83,70,0
1,83,0,120
1,81,64,0
1,81,0,120
1,80,64,0
1,80,0,120
1,81,64,0
1,81,0,120
1,83,69,0
1,83,0,120
1,81,64,0
1,81,0,120
1,80,64,0
1,80,0,120
1,81,64,0
1,81,0,120
1,84,72,0
1,84,0,480
1,81,68,0
1,81,0,120
1,84,65,120
1,84,0,120
1,79,63,60
1,79,0,30
1,81,63,0
1,81,0,30
1,83,80,0
1,83,0,120
1,78,54,120
1,81,64,0
1,81,0,120
1,78,0,0
1,76,58,120
1,79,69,0
1,79,0,120
1,76,0,0
1,78,54,120
1,81,64,0
1,81,0,120
1,78,0,0
1,79,65,60
1,79,0,30
1,81,65,0
1,81,0,30
1,83,82,0
1,83,0,120
1,78,56,120
1,81,66,0
1,81,0,120
1,78,0,0
1,76,58,120
1,79,69,0
1,79,0,120
1,76,0,0
1,78,55,120
1,81,65,0
1,81,0,120
1,78,0,0
1,79,64,60
1,79,0,30
1,81,64,0
1,83,79,30
1,81,0,30
1,83,0,90
1,78,57,120
1,81,68,0
1,81,0,120
1,78,0,0
1,76,58,120
1,79,69,0
1,79,0,120
1,76,0,0
1,75,56,120
1,78,66,0
1,78,0,120
1,75,0,0
1,76,69,120
1,76,0,450
1,72,56,30
1,76,56,0
1,76,0,120
1,72,0,0
1,74,56,120
1,77,56,0
1,77,0,120
1,74,0,0
1,76,66,120
1,79,66,0
1,79,0,120
1,76,0,0
1,76,57,120
1,79,57,0
1,79,0,120
1,76,0,0
1,81,64,120
1,81,0,120
1,79,57,0
1,79,0,120
1,77,57,0
1,77,0,120
1,76,57,0
1,76,0,120
1,74,65,0
1,71,65,0
1,71,0,240
1,67,59,0
1,67,0,240
1,74,0,0
1,72,56,0
1,76,56,0
1,76,0,120
1,72,0,0
1,74,56,120
1,77,56,0
1,77,0,120
1,74,0,0
1,76,66,120
1,79,66,0
1,79,0,120
1,76,0,0
1,76,57,120
1,79,57,0
1,79,0,120
1,76,0,0
1,81,64,120
1,81,0,120
1,79,57,0
1,79,0,120
1,77,57,0
1,77,0,120
1,76,57,0
1,76,0,120
1,74,65,0
1,71,65,0
1,71,0,480
1,74,0,0
1,69,56,0
1,72,56,0
1,72,0,120
1,69,0,0
1,71,56,120
1,74,56,0
1,74,0,120
1,71,0,0
1,72,66,120
1,76,66,0
1,76,0,120
1,72,0,0
1,72,57,120
1,76,57,0
1,76,0,120
1,72,0,0
1,77,64,120
1,77,0,120
1,76,57,0
1,76,0,120
1,74,57,0
1,74,0,120
1,72,57,0
1,72,0,120
1,71,65,0
1,68,65,0
1,68,0,240
1,64,59,0
1,64,0,240
1,71,0,0
1,69,56,0
1,72,56,0
1,72,0,120
1,69,0,0
1,71,56,120
1,74,56,0
1,74,0,120
1,71,0,0
1,72,66,120
1,76,66,0
1,76,0,120
1,72,0,0
1,72,57,120
1,76,57,0
1,76,0,120
1,72,0,0
1,77,64,120
1,77,0,120
1,76,57,0
1,76,0,120
1,74,57,0
1,74,0,120
1,72,57,0
1,72,0,120
1,71,65,0
1,68,65,0
1,68,0,480
1,71,0,0
1,71,56,0
1,71,0,120
1,69,56,0
1,69,0,120
1,68,56,0
1,68,0,120
1,69,56,0
1,69,0,120
1,72,59,0
1,72,0,120
1,74,62,360
1,74,0,120
1,72,57,0
1,72,0,120
1,71,57,0
1,71,0,120
1,72,57,0
1,72,0,120
1,76,66,0
1,76,0,120
1,77,63,360
1,77,0,120
1,76,58,0
1,76,0,120
1,75,58,0
1,75,0,120
1,76,58,0
1,76,0,120
1,83,70,0
1,83,0,120
1,81,63,0
1,81,0,120
1,80,63,0
1,80,0,120
1,81,63,0
1,81,0,120
1,83,71,0
1,83,0,120
1,81,64,0
1,81,0,120
1,80,64,0
1,80,0,120
1,81,64,0
1,81,0,120
1,84,76,0
1,84,0,480
1,81,62,0
1,81,0,120
1,83,62,120
1,83,0,120
1,84,70,120
1,84,0,120
1,83,62,120
1,83,0,120
1,81,62,120
1,81,0,120
1,80,62,120
1,80,0,120
1,81,71,120
1,81,0,120
1,76,64,120
1,76,0,120
1,77,64,124
1,77,0,120
1,74,64,116
1,74,0,120
1,72,74,120
1,72,0,480
1,71,64,0
1,71,0,60
1,72,57,0
1,72,0,60
1,71,57,0
1,71,0,60
1,72,57,0
1,72,0,60
1,71,57,0
1,71,0,4
1,72,57,36
1,72,0,40
1,71,57,0
1,71,0,40
1,69,64,0
1,69,0,60
1,71,57,0
1,71,0,60
1,69,65,0
1,69,0,450
1,72,56,30
1,76,56,0
1,76,0,120
1,72,0,0
1,74,56,120
1,77,56,0
1,77,0,120
1,74,0,0
1,76,66,120
1,79,66,0
1,79,0,120
1,76,0,0
1,76,57,120
1,79,57,0
1,79,0,120
1,76,0,0
1,81,64,120
1,81,0,120
1,79,57,0
1,79,0,120
1,77,57,0
1,77,0,120
1,76,57,0
1,76,0,120
1,74,65,0
1,71,65,0
1,71,0,240
1,67,59,0
1,67,0,240
1,74,0,0
1,72,56,0
1,76,56,0
1,76,0,120
1,72,0,0
1,74,56,120
1,77,56,0
1,77,0,120
1,74,0,0
1,76,66,120
1,79,66,0
1,79,0,120
1,76,0,0
1,76,57,120
1,79,57,0
1,79,0,120
1,76,0,0
1,81,64,120
1,81,0,120
1,79,57,0
1,79,0,120
1,77,57,0
1,77,0,120
1,76,57,0
1,76,0,120
1,74,65,0
1,71,65,0
1,71,0,480
1,74,0,0
1,69,56,0
1,72,56,0
1,72,0,120
1,69,0,0
1,71,56,120
1,74,56,0
1,74,0,120
1,71,0,0
1,72,66,120
1,76,66,0
1,76,0,120
1,72,0,0
1,72,57,120
1,76,57,0
1,76,0,120
1,72,0,0
1,77,64,120
1,77,0,120
1,76,57,0
1,76,0,120
1,74,57,0
1,74,0,120
1,72,57,0
1,72,0,120
1,71,65,0
1,68,65,0
