track,note,velocity,time
1,72,57,960
1,63,45,0
1,68,45,0
1,68,0,480
1,63,0,0
1,72,0,0
1,65,47,0
1,68,47,0
1,72,59,0
1,72,0,1440
1,70,56,0
1,70,0,480
1,68,0,0
1,65,0,0
1,77,63,480
1,67,50,0
1,70,50,0
1,70,0,480
1,67,0,0
1,77,0,0
1,77,65,0
1,72,52,0
1,68,52,0
1,77,0,1440
1,75,60,0
1,75,0,480
1,68,0,0
1,72,0,0
1,60,43,240
1,63,54,0
1,63,0,240
1,68,56,0
1,68,0,240
1,72,58,0
1,72,0,240
1,60,0,0
1,67,48,0
1,73,60,0
1,61,48,0
1,63,48,0
1,63,0,960
1,67,0,0
1,73,0,0
1,61,0,0
1,60,50,0
1,72,63,0
1,68,50,0
1,63,50,0
1,63,0,480
1,60,0,0
1,72,0,0
1,68,0,0
1,58,51,0
1,70,64,0
1,63,51,0
1,63,0,960
1,70,0,0
1,58,0,0
1,68,54,0
1,70,54,0
1,62,54,0
1,74,67,0
1,74,0,480
1,68,0,0
1,70,0,0
1,62,0,0
1,68,56,0
1,70,56,0
1,62,56,0
1,74,70,0
1,74,0,1440
1,62,0,0
1,68,0,0
1,75,51,0
1,67,40,0
1,63,40,0
1,63,0,480
1,70,0,0
1,75,0,0
1,67,0,0
1,72,53,480
1,68,42,0
1,63,42,0
1,63,0,480
1,68,0,0
1,72,0,0
1,72,58,0
1,68,46,0
1,65,46,0
1,72,0,1440
1,70,50,0
1,70,0,480
1,65,0,0
1,68,0,0
1,67,63,480
1,77,79,0
1,71,63,0
1,71,0,480
1,77,0,0
1,67,0,0
1,67,68,0
1,72,68,0
1,77,85,0
1,77,0,1440
1,76,51,0
1,76,0,480
1,72,0,0
1,67,0,0
1,67,41,480
1,72,46,0
1,76,52,0
1,76,0,480
1,72,0,0
1,67,0,0
1,75,57,0
1,73,45,0
1,67,45,0
1,67,0,960
1,73,0,0
1,75,0,0
1,68,47,0
1,72,47,0
1,75,59,0
1,75,0,480
1,72,0,0
1,68,0,0
1,73,64,0
1,70,51,0
1,65,51,0
1,65,0,960
1,70,0,0
1,73,0,0
1,67,42,0
1,72,53,0
1,61,47,0
1,72,0,240
1,70,51,0
1,70,0,240
1,61,0,0
1,67,0,0
1,61,34,0
1,67,34,0
1,70,44,0
1,70,0,1440
1,67,0,0
1,61,0,0
1,60,25,0
1,68,33,0
1,68,0,480
1,60,0,0
1,62,32,480
1,68,32,0
1,71,40,0
1,71,0,480
1,68,0,0
1,62,0,0
1,62,32,0
1,68,32,0
1,71,40,0
1,62,0,1440
1,63,28,0
1,63,0,480
1,71,0,0
1,68,0,0
1,64,36,480
1,68,36,0
1,71,45,0
1,71,0,480
1,68,0,0
1,64,0,0
1,64,39,0
1,68,39,0
1,71,49,0
1,64,0,1440
1,63,29,0
1,63,0,480
1,71,0,0
1,68,0,0
1,63,41,480
1,68,41,0
1,71,52,0
1,71,0,480
1,68,0,0
1,63,0,0
1,70,58,0
1,64,46,0
1,68,46,0
1,70,0,480
1,76,65,0
1,76,0,720
1,70,51,0
1,70,0,240
1,75,57,0
1,75,0,240
1,73,55,0
1,73,0,240
1,71,55,0
1,71,0,480
1,68,0,0
1,64,0,0
1,61,41,0
1,64,41,0
1,70,52,0
1,70,0,480
1,64,0,0
1,61,0,0
1,63,39,0
1,59,39,0
1,68,49,0
1,68,0,1440
1,59,0,0
1,58,27,0
1,67,35,0
1,67,0,480
1,58,0,0
1,63,0,0
1,62,28,480
1,68,28,0
1,71,36,0
1,71,0,480
1,68,0,0
1,62,0,0
1,62,28,0
1,68,28,0
1,71,36,0
1,62,0,1440
1,63,25,0
1,63,0,480
1,71,0,0
1,68,0,0
1,64,38,480
1,68,38,0
1,71,48,0
1,71,0,480
1,68,0,0
1,64,0,0
1,64,35,0
1,68,35,0
1,71,44,0
1,64,0,1440
1,63,30,0
1,63,0,480
1,71,0,0
1,68,0,0
1,64,40,480
1,68,40,0
1,71,50,0
1,71,0,480
1,68,0,0
1,64,0,0
1,71,56,0
1,64,45,0
1,68,45,0
1,71,0,480
1,76,70,0
1,76,0,720
1,71,60,0
1,71,0,120
1,71,55,0
1,71,0,120
1,68,0,0
1,75,73,0
1,75,0,240
1,73,70,0
1,73,0,240
1,71,67,0
1,71,0,480
1,68,65,0
1,68,0,480
1,64,0,0
1,65,62,0
1,61,49,0
1,65,0,480
1,73,70,0
1,73,0,720
1,65,58,0
1,65,0,240
1,61,0,0
1,61,56,0
1,66,56,0
1,73,70,0
1,73,0,240
1,69,70,0
1,69,0,240
1,66,0,0
1,61,0,0
1,64,56,0
1,68,70,0
1,68,0,480
1,64,0,0
1,63,54,0
1,66,67,0
1,66,0,480
1,63,0,0
1,56,53,0
1,59,53,0
1,64,66,0
1,64,0,960
1,59,0,0
1,56,0,0
1,64,51,0
1,64,0,160
1,68,55,0
1,68,0,160
1,71,59,0
1,71,0,160
1,70,69,0
1,67,55,0
1,64,55,0
1,61,55,0
1,61,0,960
1,70,0,0
1,67,0,0
1,64,0,0
1,71,57,0
1,68,45,0
1,64,45,0
1,59,45,0
1,59,0,240
1,71,0,0
1,68,0,0
1,64,0,0
1,66,44,0
1,66,0,120
1,68,44,0
1,68,0,120
1,60,44,0
1,69,49,0
1,63,49,0
1,69,0,720
1,60,0,0
1,59,42,0
1,68,47,0
1,68,0,240
1,59,0,0
1,57,39,0
1,66,44,0
1,66,0,480
1,57,0,0
1,63,0,0
1,56,32,0
1,64,41,0
1,64,0,960
1,56,0,0
1,64,51,0
1,64,0,160
1,68,55,0
1,68,0,160
1,71,59,0
1,71,0,160
1,70,69,0
1,67,62,0
1,64,55,0
1,61,55,0
1,61,0,960
1,70,0,0
1,67,0,0
1,64,0,0
1,71,51,0
1,68,40,0
1,64,40,0
1,59,40,0
1,59,0,240
1,71,0,0
1,68,0,0
1,64,0,0
1,66,43,0
1,66,0,120
1,68,43,0
1,68,0,120
1,60,41,0
1,69,46,0
1,63,41,0
1,69,0,720
1,60,0,0
1,59,36,0
1,68,41,0
1,68,0,240
1,59,0,0
1,57,37,0
1,66,37,0
1,66,0,480
1,57,0,0
1,63,0,0
1,56,31,0
1,64,35,0
1,64,0,960
1,56,0,0
1,68,43,0
1,68,0,480
1,64,39,0
1,68,49,0
1,68,0,960
1,64,0,0
1,64,35,0
1,68,44,0
1,68,0,480
1,64,0,0
1,64,50,0
1,68,50,0
1,64,0,720
1,63,45,0
1,63,0,240
1,68,0,0
1,62,42,0
1,68,42,0
1,68,0,480
1,62,0,0
1,63,35,0
1,68,44,0
1,68,0,1440
1,67,39,0
1,67,0,720
1,68,39,0
1,68,0,240
1,63,0,0
1,70,42,0
1,70,0,240
1,72,45,0
1,72,0,240
1,65,38,0
1,68,38,0
1,73,48,0
1,73,0,960
1,68,0,0
1,65,0,0
1,65,39,0
1,68,39,0
1,73,49,0
1,73,0,480
1,68,0,0
1,65,0,0
1,75,55,0
1,67,40,0
1,70,40,0
1,75,0,120
1,73,50,0
1,73,0,120
1,72,50,0
1,72,0,120
1,73,50,0
1,73,0,120
1,75,51,0
1,75,0,480
1,70,0,0
1,67,0,0
1,67,39,0
1,70,49,0
1,70,0,480
1,67,0,0
1,67,40,0
1,70,40,0
1,73,50,0
1,73,0,1440
1,70,0,0
1,67,0,0
1,68,36,0
1,72,45,0
1,72,0,480
1,68,0,0
1,68,64,480
1,72,64,0
1,77,80,0
1,77,0,480
1,72,0,0
1,68,0,0
1,68,64,0
1,72,64,0
1,77,80,0
1,77,0,960
1,72,0,0
1,68,0,0
1,68,64,0
1,72,64,0
1,77,80,0
1,77,0,480
1,72,0,0
1,68,0,0
1,80,86,0
1,68,69,0
1,72,69,0
1,80,0,720
1,67,64,0
1,79,80,0
1,79,0,240
1,68,0,0
1,72,0,0
1,67,0,0
1,77,75,0
1,72,60,0
1,68,60,0
1,65,60,0
1,65,0,480
1,77,0,0
1,72,0,0
1,68,0,0
1,77,80,0
1,73,64,0
1,70,64,0
1,67,64,0
