track,note,velocity,time
1,73,90,1
1,81,100,0
1,76,90,0
1,76,0,480
1,81,0,0
1,73,0,0
1,71,90,0
1,80,100,0
1,76,90,0
1,76,0,360
1,80,0,0
1,71,0,0
1,69,81,0
1,75,81,0
1,78,90,0
1,78,0,120
1,75,0,0
1,69,0,0
1,76,94,0
1,73,84,0
1,68,84,0
1,68,0,460
1,73,0,0
1,76,0,0
1,69,79,20
1,73,79,0
1,78,88,0
1,78,0,460
1,73,0,0
1,69,0,0
1,75,89,20
1,66,80,0
1,71,80,0
1,71,0,460
1,66,0,0
1,75,0,0
1,68,81,20
1,71,81,0
1,76,91,0
1,76,0,360
1,71,0,0
1,68,0,0
1,74,91,120
1,71,81,0
1,66,91,0
1,66,0,120
1,64,91,120
1,64,0,120
1,71,0,120
1,74,0,0
1,64,82,0
1,73,92,0
1,69,82,0
1,69,0,360
1,73,0,0
1,64,0,0
1,62,78,0
1,68,78,0
1,71,87,0
1,71,0,120
1,68,0,0
1,62,0,0
1,69,87,0
1,66,78,0
1,61,78,0
1,61,0,460
1,66,0,0
1,69,0,0
1,62,81,20
1,66,81,0
1,71,90,0
1,71,0,460
1,66,0,0
1,62,0,0
1,68,87,20
1,59,78,0
1,64,78,0
1,64,0,460
1,59,0,0
1,68,0,0
1,61,78,20
1,64,78,0
1,69,87,0
1,69,0,360
1,64,0,0
1,61,0,0
1,64,76,120
1,61,76,0
1,69,85,0
1,69,0,480
1,61,0,0
1,64,0,0
1,59,76,0
1,64,85,0
1,68,85,0
1,68,0,360
1,64,0,0
1,59,0,0
1,63,76,0
1,57,68,0
1,66,76,0
1,66,0,120
1,57,0,0
1,63,0,0
1,56,71,0
1,64,79,0
1,61,71,0
1,61,0,460
1,64,0,0
1,56,0,0
1,61,66,20
1,57,66,0
1,66,74,0
1,66,0,460
1,57,0,0
1,61,0,0
1,54,67,20
1,63,75,0
1,59,67,0
1,59,0,460
1,63,0,0
1,54,0,0
1,56,69,20
1,59,69,0
1,64,77,0
1,64,0,360
1,59,0,0
1,56,0,0
1,62,74,120
1,59,66,0
1,54,74,0
1,54,0,120
1,52,74,120
1,52,0,120
1,59,0,120
1,62,0,0
1,52,68,0
1,57,76,0
1,61,76,0
1,61,0,360
1,57,0,0
1,52,0,0
1,56,60,0
1,50,60,0
1,59,67,0
1,59,0,120
1,50,0,0
1,56,0,0
1,49,60,0
1,57,67,0
1,54,60,0
1,54,0,460
1,57,0,0
1,49,0,0
1,54,63,20
1,50,63,0
1,59,71,0
1,59,0,460
1,50,0,0
1,54,0,0
1,47,60,20
1,56,67,0
1,52,60,0
1,52,0,460
1,56,0,0
1,47,0,0
1,49,56,20
1,52,56,0
1,57,63,0
1,57,0,360
1,52,0,0
1,49,0,0
1,57,66,120
1,61,66,0
1,64,66,0
1,69,74,0
1,69,0,480
1,57,0,0
1,61,0,0
1,64,0,0
1,57,72,0
1,62,72,0
1,66,72,0
1,69,80,0
1,69,0,960
1,57,0,0
1,62,0,0
1,66,0,0
1,57,64,0
1,62,64,0
1,66,64,0
1,69,72,0
1,69,0,480
1,57,0,0
1,62,0,0
1,66,0,0
1,71,79,0
1,62,71,0
1,64,71,0
1,67,71,0
1,67,0,960
1,71,0,0
1,62,0,0
1,64,0,0
1,62,64,0
1,64,64,0
1,67,64,0
1,71,72,0
1,71,0,480
1,62,0,0
1,64,0,0
1,67,0,0
1,55,55,0
1,57,55,0
1,61,55,0
1,64,62,0
1,64,0,240
1,55,0,0
1,57,0,0
1,61,0,0
1,55,55,240
1,57,55,0
1,61,55,0
1,64,62,0
1,64,0,240
1,55,0,0
1,57,0,0
1,61,0,0
1,55,55,240
1,57,55,0
1,61,55,0
1,64,62,0
1,64,0,240
1,55,0,0
1,57,0,0
1,61,0,0
1,60,64,240
1,62,64,0
1,69,72,0
1,69,0,1440
1,62,0,0
1,60,0,0
1,55,53,0
1,60,53,0
1,62,59,0
1,62,0,240
1,60,0,0
1,55,0,0
1,55,55,240
1,60,55,0
1,62,62,0
1,62,0,240
1,60,0,0
1,55,0,0
1,55,58,240
1,60,58,0
1,62,65,0
1,62,0,240
1,60,0,0
1,55,0,0
1,55,63,240
1,59,63,0
1,62,71,0
1,62,0,480
1,59,0,0
1,55,0,0
1,55,72,0
1,62,72,0
1,67,80,0
1,67,0,240
1,62,0,0
1,55,0,0
1,57,66,240
1,62,66,0
1,66,74,0
1,66,0,240
1,62,0,0
1,57,0,0
1,59,65,240
1,62,65,0
1,64,73,0
1,64,0,240
1,62,0,0
1,59,0,0
1,59,68,120
1,62,68,0
1,66,76,0
1,66,0,120
1,62,0,0
1,59,0,0
1,59,80,0
1,62,80,0
1,67,89,0
1,67,0,240
1,62,0,0
1,59,0,0
1,55,61,240
1,57,61,0
1,61,61,0
1,64,68,0
1,64,0,480
1,55,0,0
1,57,0,0
1,61,0,0
1,54,70,0
1,57,70,0
1,62,78,0
1,62,0,480
1,57,0,0
1,54,0,0
1,57,66,480
1,61,66,0
1,64,66,0
1,69,74,0
1,69,0,480
1,57,0,0
1,61,0,0
1,64,0,0
1,57,72,0
1,62,72,0
1,66,72,0
1,69,80,0
1,69,0,960
1,57,0,0
1,62,0,0
1,66,0,0
1,57,64,0
1,62,64,0
1,66,64,0
1,69,72,0
1,69,0,480
1,57,0,0
1,62,0,0
1,66,0,0
1,71,79,0
1,62,71,0
1,64,71,0
1,67,71,0
1,67,0,960
1,71,0,0
1,62,0,0
1,64,0,0
1,62,64,0
1,64,64,0
1,67,64,0
1,71,72,0
1,71,0,480
1,62,0,0
1,64,0,0
1,67,0,0
1,55,54,0
1,57,54,0
1,61,54,0
1,64,61,0
1,64,0,240
1,55,0,0
1,57,0,0
1,61,0,0
1,55,54,240
1,57,54,0
1,61,54,0
1,64,61,0
1,64,0,240
1,55,0,0
1,57,0,0
1,61,0,0
1,55,54,240
1,57,54,0
1,61,54,0
1,64,61,0
1,64,0,240
1,55,0,0
1,57,0,0
1,61,0,0
1,60,64,240
1,62,64,0
1,69,72,0
1,69,0,1440
1,62,0,0
1,60,0,0
1,55,53,0
1,60,53,0
1,62,59,0
1,62,0,240
1,60,0,0
1,55,0,0
1,55,55,240
1,60,55,0
1,62,62,0
1,62,0,240
1,60,0,0
1,55,0,0
1,55,58,240
1,60,58,0
1,62,65,0
1,62,0,240
1,60,0,0
1,55,0,0
1,55,63,240
1,59,63,0
1,62,71,0
1,62,0,480
1,59,0,0
1,55,0,0
1,55,72,0
1,62,72,0
1,67,80,0
1,67,0,240
1,62,0,0
1,55,0,0
1,57,66,240
1,62,66,0
1,66,74,0
1,66,0,240
1,62,0,0
1,57,0,0
1,59,65,240
1,62,65,0
1,64,73,0
1,64,0,240
1,62,0,0
1,59,0,0
1,59,68,120
1,62,68,0
1,66,76,0
1,66,0,120
1,62,0,0
1,59,0,0
1,59,80,0
1,62,80,0
1,67,89,0
1,67,0,240
1,62,0,0
1,59,0,0
1,55,61,240
1,57,61,0
1,61,61,0
1,64,68,0
1,64,0,480
1,55,0,0
1,57,0,0
1,61,0,0
1,54,70,0
1,57,70,0
1,62,78,0
1,62,0,480
1,57,0,0
1,54,0,0
1,81,90,480
1,73,81,0
1,76,81,0
1,76,0,480
1,73,0,0
1,81,0,0
1,71,81,0
1,76,81,0
1,80,90,0
1,80,0,360
1,76,0,0
1,71,0,0
1,69,72,0
1,75,72,0
1,78,81,0
1,78,0,120
1,75,0,0
1,69,0,0
1,68,75,0
1,73,75,0
1,76,84,0
1,76,0,460
1,73,0,0
1,68,0,0
1,69,71,20
1,73,71,0
1,78,79,0
1,78,0,460
1,73,0,0
1,69,0,0
1,66,72,20
1,71,72,0
1,75,80,0
1,75,0,460
1,71,0,0
1,66,0,0
1,68,72,20
1,71,72,0
1,76,81,0
1,76,0,360
1,71,0,0
1,68,0,0
1,66,81,120
1,71,72,0
1,74,81,0
1,66,0,120
1,64,81,120
1,64,0,120
1,74,0,120
1,71,0,0
1,64,73,0
1,69,73,0
