track,note,velocity,time
1,50,46,720
1,50,0,60
1,55,50,180
1,55,0,80
1,50,36,0
1,50,0,80
1,57,36,0
1,57,0,80
1,58,50,0
1,58,0,60
1,57,50,180
1,57,0,80
1,50,36,0
1,50,0,80
1,58,36,0
1,58,0,80
1,60,50,0
1,60,0,60
1,58,50,180
1,58,0,80
1,50,35,0
1,50,0,80
1,60,35,0
1,60,0,80
1,62,50,0
1,62,0,60
1,55,50,180
1,55,0,80
1,50,36,0
1,50,0,80
1,57,36,0
1,57,0,80
1,58,50,0
1,58,0,60
1,57,50,180
1,57,0,80
1,51,38,0
1,51,0,80
1,58,38,0
1,58,0,80
1,60,50,0
1,60,0,60
1,54,50,180
1,54,0,80
1,48,40,0
1,48,0,80
1,55,40,0
1,55,0,80
1,57,50,0
1,57,0,60
1,55,50,180
1,55,0,80
1,50,40,0
1,50,0,80
1,57,41,0
1,57,0,80
1,58,50,0
1,58,0,60
1,57,50,180
1,57,0,120
1,54,44,60
1,54,0,60
1,50,58,0
1,50,0,60
1,55,50,180
1,55,0,80
1,50,38,0
1,50,0,80
1,57,38,0
1,57,0,80
1,58,50,0
1,58,0,60
1,57,50,180
1,57,0,80
1,50,38,0
1,50,0,80
1,58,38,0
1,58,0,80
1,60,50,0
1,60,0,60
1,58,50,180
1,58,0,80
1,50,37,0
1,50,0,80
1,60,37,0
1,60,0,80
1,62,50,0
1,62,0,60
1,55,50,180
1,55,0,80
1,50,40,0
1,50,0,80
1,57,40,0
1,57,0,80
1,58,50,0
1,58,0,60
1,57,50,180
1,57,0,80
1,51,40,0
1,51,0,80
1,58,40,0
1,58,0,80
1,60,50,0
1,60,0,60
1,59,50,180
1,59,0,80
1,50,39,0
1,50,0,80
1,60,40,0
1,60,0,80
1,62,50,0
1,62,0,60
1,60,50,180
1,60,0,80
1,55,41,0
1,55,0,80
1,62,41,0
1,62,0,80
1,63,50,0
1,63,0,60
1,59,54,180
1,59,0,80
1,53,45,0
1,53,0,80
1,60,45,0
1,60,0,80
1,62,56,0
1,62,0,60
1,60,59,180
1,60,0,80
1,55,48,0
1,55,0,80
1,62,48,0
1,62,0,80
1,63,59,0
1,63,0,60
1,63,63,180
1,63,0,80
1,55,51,0
1,55,0,80
1,65,51,0
1,65,0,80
1,67,61,0
1,67,0,60
1,66,70,180
1,66,0,80
1,54,53,0
1,54,0,80
1,67,54,0
1,67,0,80
1,69,66,0
1,69,0,60
1,62,67,180
1,62,0,60
1,62,64,180
1,62,0,60
1,67,64,180
1,67,0,80
1,62,48,0
1,62,0,80
1,69,48,0
1,69,0,80
1,70,64,0
1,70,0,60
1,69,64,180
1,69,0,80
1,62,50,0
1,62,0,80
1,70,50,0
1,70,0,80
1,72,64,0
1,72,0,60
1,70,64,180
1,70,0,80
1,62,49,0
1,62,0,80
1,72,49,0
1,72,0,80
1,74,64,0
1,74,0,60
1,67,64,180
1,67,0,80
1,62,50,0
1,62,0,80
1,69,52,0
1,69,0,80
1,70,64,0
1,70,0,60
1,69,64,180
1,69,0,80
1,63,52,0
1,63,0,80
1,70,52,0
1,70,0,80
1,72,64,0
1,72,0,60
1,66,64,180
1,66,0,80
1,60,51,0
1,60,0,80
1,67,51,0
1,67,0,80
1,69,64,0
1,69,0,60
1,67,64,180
1,67,0,80
1,62,54,0
1,62,0,80
1,69,54,0
1,69,0,80
1,70,64,0
1,70,0,60
1,69,64,180
1,69,0,120
1,66,52,60
1,66,0,60
1,62,71,0
1,62,0,60
1,67,64,180
1,67,0,80
1,62,49,0
1,62,0,80
1,69,50,0
1,69,0,80
1,70,64,0
1,70,0,60
1,69,64,180
1,69,0,80
1,62,51,0
1,62,0,80
1,70,52,0
1,70,0,80
1,72,64,0
1,72,0,60
1,70,64,180
1,70,0,80
1,62,55,0
1,62,0,80
1,72,55,0
1,72,0,80
1,74,64,0
1,74,0,60
1,75,71,180
1,75,0,80
1,67,56,0
1,67,0,80
1,77,56,0
1,77,0,80
1,79,64,0
1,79,0,60
1,69,59,180
1,69,0,80
1,60,47,0
1,60,0,80
1,70,47,0
1,70,0,80
1,72,59,0
1,72,0,60
1,74,71,180
1,74,0,80
1,65,52,0
1,65,0,80
1,75,55,0
1,75,0,80
1,77,65,0
1,77,0,60
1,67,59,180
1,67,0,80
1,58,44,0
1,58,0,80
1,69,44,0
1,69,0,80
1,70,59,0
1,70,0,60
1,72,68,180
1,72,0,80
1,63,51,0
1,63,0,80
1,74,51,0
1,74,0,80
1,75,66,0
1,75,0,60
1,66,59,180
1,66,0,80
1,57,45,0
1,57,0,80
1,67,45,0
1,67,0,80
1,69,58,0
1,69,0,60
1,72,66,180
1,72,0,80
1,63,50,0
1,63,0,80
1,74,51,0
1,74,0,80
1,75,65,0
1,75,0,60
1,66,62,180
1,66,0,80
1,57,47,0
1,57,0,80
1,67,51,0
1,67,0,80
1,69,60,0
1,69,0,60
1,72,66,180
1,72,0,80
1,63,53,0
1,63,0,80
1,74,50,0
1,74,0,80
1,75,65,0
1,75,0,60
1,66,66,180
1,66,0,80
1,57,51,0
1,57,0,80
1,67,51,0
1,67,0,80
1,69,64,0
1,69,0,60
1,60,59,180
1,60,0,80
1,57,47,0
1,57,0,80
1,62,45,0
1,62,0,80
1,63,56,0
1,63,0,60
1,54,54,180
1,54,0,80
1,50,38,0
1,50,0,80
1,55,38,0
1,55,0,80
1,57,52,0
1,57,0,60
1,50,50,180
1,50,0,60
1,50,52,180
1,50,0,60
1,55,50,180
1,55,0,80
1,50,37,0
1,50,0,80
1,57,37,0
1,57,0,80
1,58,50,0
1,58,0,60
1,57,50,180
1,57,0,80
1,50,38,0
1,50,0,80
1,58,38,0
1,58,0,80
1,60,50,0
1,60,0,60
1,58,50,180
1,58,0,80
1,50,37,0
1,50,0,80
1,60,39,0
1,60,0,80
1,62,51,0
1,62,0,60
1,55,52,180
1,55,0,80
1,50,40,0
1,50,0,80
1,57,40,0
1,57,0,80
1,58,53,0
1,58,0,60
1,57,55,180
1,57,0,80
1,51,42,0
1,51,0,80
1,58,42,0
1,58,0,80
1,60,56,0
1,60,0,60
1,59,57,180
1,59,0,80
1,53,44,0
1,53,0,80
1,60,49,0
1,60,0,80
1,62,58,0
1,62,0,60
1,60,60,180
1,60,0,80
1,51,48,0
1,51,0,80
1,62,49,0
1,62,0,80
1,63,61,0
1,63,0,60
1,59,62,180
1,59,0,80
1,53,53,0
1,53,0,80
1,60,54,0
1,60,0,80
1,62,63,0
1,62,0,60
1,60,65,180
1,60,0,80
1,55,55,0
1,55,0,80
1,62,56,0
1,62,0,80
1,63,66,0
1,63,0,120
1,60,63,0
1,60,0,120
1,62,67,0
1,62,0,80
1,55,58,0
1,55,0,80
1,63,58,0
1,63,0,80
1,65,68,0
1,65,0,60
1,64,70,180
1,64,0,80
1,55,60,0
1,55,0,80
1,66,60,0
1,66,0,80
1,67,70,0
1,67,0,120
1,67,75,120
1,67,0,80
1,58,65,0
1,58,0,80
1,69,64,0
1,69,0,80
1,70,75,0
1,70,0,120
1,62,73,120
1,74,86,0
1,74,0,480
1,62,0,0
1,62,66,0
1,66,78,0
1,57,66,0
1,57,0,480
1,66,0,0
1,62,0,0
1,64,70,0
1,64,0,80
1,55,60,0
1,55,0,80
1,66,60,0
1,66,0,80
1,67,70,0
1,67,0,120
1,67,74,120
1,67,0,80
1,58,67,0
1,58,0,80
1,69,70,0
1,69,0,80
1,70,82,0
1,70,0,120
1,74,80,120
1,70,80,0
1,79,94,0
1,79,0,480
1,70,0,0
1,74,0,0
1,66,72,0
1,74,85,0
1,69,72,0
1,69,0,480
1,74,0,0
1,66,0,0
1,62,72,0
1,67,85,0
1,58,72,0
1,58,0,480
1,67,0,0
1,62,0,0
1,53,43,477
1,55,43,239
1,53,0,1
1,55,0,239
1,57,43,9
1,58,43,236
1,57,0,4
1,58,0,236
1,60,43,3
1,62,46,235
1,60,0,5
1,62,0,235
1,63,49,3
1,65,56,236
1,63,0,4
1,65,0,236
