track,note,velocity,time
1,66,62,1
1,66,0,360
1,71,50,0
1,69,55,59
1,71,0,1
1,69,0,59
1,61,62,1
1,67,62,0
1,67,0,60
1,61,0,0
1,61,57,300
1,66,57,0
1,66,0,60
1,61,0,0
1,67,60,60
1,61,60,0
1,61,0,240
1,67,0,0
1,61,62,240
1,71,62,0
1,71,0,480
1,61,0,0
1,69,64,0
1,62,64,0
1,62,0,960
1,69,0,0
1,74,64,0
1,69,64,0
1,69,0,480
1,74,0,0
1,73,64,0
1,67,64,0
1,67,0,60
1,73,0,0
1,66,56,300
1,71,56,0
1,71,0,60
1,66,0,0
1,69,60,60
1,64,60,0
1,64,0,240
1,69,0,0
1,79,67,240
1,67,67,0
1,69,67,0
1,69,0,480
1,67,0,0
1,79,0,0
1,66,67,0
1,74,67,0
1,78,67,0
1,78,0,60
1,74,0,0
1,66,0,0
1,67,59,300
1,76,59,0
1,73,59,0
1,73,0,60
1,76,0,0
1,67,0,0
1,69,56,60
1,74,56,0
1,74,0,240
1,69,0,0
1,66,58,240
1,66,0,360
1,71,50,0
1,69,55,59
1,71,0,1
1,69,0,59
1,67,61,1
1,61,61,0
1,61,0,90
1,67,0,0
1,66,57,270
1,61,57,0
1,61,0,60
1,66,0,0
1,67,61,60
1,61,61,0
1,61,0,240
1,67,0,0
1,61,64,240
1,71,64,0
1,71,0,480
1,61,0,0
1,62,64,0
1,69,64,0
1,69,0,960
1,62,0,0
1,74,60,0
1,69,60,0
1,74,0,360
1,73,56,0
1,73,0,120
1,69,0,0
1,73,60,0
1,69,60,0
1,74,54,240
1,73,0,24
1,76,57,216
1,74,0,24
1,78,60,216
1,76,0,24
1,78,0,216
1,69,0,0
1,78,62,0
1,74,45,0
1,78,0,360
1,80,55,0
1,80,0,120
1,80,51,0
1,80,0,480
1,74,0,0
1,81,46,0
1,73,40,0
1,73,0,360
1,81,0,0
1,66,59,0
1,66,0,360
1,71,50,0
1,71,0,60
1,69,55,0
1,69,0,60
1,61,63,0
1,67,63,0
1,67,0,60
1,61,0,0
1,61,56,300
1,66,56,0
1,66,0,60
1,61,0,0
1,61,60,60
1,67,60,0
1,67,0,240
1,61,0,0
1,61,63,240
1,71,63,0
1,71,0,480
1,61,0,0
1,62,63,0
1,69,63,0
1,69,0,960
1,62,0,0
1,69,64,0
1,74,64,0
1,74,0,480
1,69,0,0
1,67,64,0
1,73,64,0
1,73,0,60
1,67,0,0
1,66,57,300
1,71,57,0
1,71,0,60
1,66,0,0
1,64,60,60
1,69,60,0
1,69,0,240
1,64,0,0
1,67,68,240
1,69,68,0
1,79,68,0
1,79,0,480
1,69,0,0
1,67,0,0
1,66,68,0
1,74,68,0
1,78,68,0
1,78,0,60
1,74,0,0
1,66,0,0
1,67,60,300
1,73,60,0
1,76,60,0
1,76,0,60
1,73,0,0
1,67,0,0
1,69,57,60
1,74,57,0
1,74,0,240
1,69,0,0
1,66,59,240
1,66,0,360
1,71,50,0
1,69,55,59
1,71,0,1
1,69,0,59
1,61,65,1
1,67,65,0
1,67,0,90
1,61,0,0
1,61,57,270
1,66,57,0
1,66,0,60
1,61,0,0
1,61,60,60
1,67,60,0
1,67,0,240
1,61,0,0
1,61,63,240
1,71,63,0
1,71,0,480
1,61,0,0
1,62,63,0
1,69,63,0
1,69,0,960
1,62,0,0
1,74,60,0
1,69,60,0
1,74,0,360
1,73,56,0
1,73,0,120
1,69,0,0
1,73,60,0
1,69,60,0
1,74,54,240
1,73,0,24
1,76,57,216
1,74,0,24
1,78,60,216
1,76,0,24
1,78,0,216
1,69,0,0
1,74,45,0
1,78,62,0
1,78,0,360
1,80,55,0
1,80,0,120
1,80,51,0
1,80,0,480
1,74,0,0
1,73,40,0
1,81,46,0
1,81,0,360
1,73,0,0
1,72,41,120
1,76,41,0
1,78,41,240
1,76,0,24
1,72,0,216
1,71,40,0
1,79,45,0
1,78,0,24
1,81,41,216
1,79,0,24
1,79,41,216
1,81,0,24
1,78,41,216
1,79,0,24
1,71,0,216
1,75,40,0
1,79,43,0
1,78,0,24
1,78,45,216
1,79,0,24
1,75,0,216
1,72,47,0
1,76,47,0
1,78,0,24
1,76,0,936
1,72,0,0
1,69,44,0
1,74,44,0
1,72,43,240
1,74,0,24
1,69,0,216
1,67,41,0
1,71,41,0
1,72,0,24
1,71,0,456
1,67,0,0
1,67,44,0
1,72,44,0
1,69,43,240
1,67,0,24
1,72,0,216
1,62,42,0
1,69,42,0
1,71,42,0
1,69,0,24
1,69,0,216
1,67,41,0
1,62,0,24
1,67,0,216
1,71,0,0
1,62,37,0
1,67,37,0
1,69,37,0
1,62,0,240
1,66,35,0
1,67,0,24
1,64,34,216
1,66,0,24
1,62,32,216
1,64,0,24
1,62,0,216
1,69,0,0
1,62,42,0
1,66,42,0
1,62,0,240
1,60,45,0
1,66,0,120
1,71,40,0
1,69,44,59
1,71,0,1
1,60,0,0
1,69,0,59
1,61,49,1
1,67,49,0
1,67,0,60
1,61,0,0
1,61,44,300
1,66,44,0
1,66,0,60
1,61,0,0
1,61,47,60
1,67,47,0
1,67,0,240
1,61,0,0
1,61,49,240
1,71,49,0
1,71,0,480
1,61,0,0
1,62,51,0
1,69,51,0
1,69,0,960
1,62,0,0
1,69,51,0
1,74,51,0
1,74,0,480
1,69,0,0
1,67,51,0
1,73,51,0
1,73,0,60
1,67,0,0
1,66,45,300
1,71,45,0
1,71,0,60
1,66,0,0
1,64,49,60
1,69,49,0
1,69,0,240
1,64,0,0
1,67,53,240
1,69,53,0
1,79,53,0
1,79,0,480
1,69,0,0
1,67,0,0
1,66,53,0
1,74,53,0
1,78,53,0
1,78,0,60
1,74,0,0
1,66,0,0
1,67,48,300
1,73,48,0
1,76,48,0
1,76,0,60
1,73,0,0
1,67,0,0
1,69,45,60
1,74,45,0
1,74,0,240
1,69,0,0
1,66,56,240
1,66,0,360
1,71,50,0
1,69,55,59
1,71,0,1
1,69,0,59
1,61,61,1
1,67,61,0
1,67,0,90
1,61,0,0
1,61,56,270
1,66,56,0
1,66,0,60
1,61,0,0
1,61,59,60
1,67,59,0
1,67,0,240
1,61,0,0
1,71,60,240
1,61,60,0
1,71,0,360
1,69,56,0
1,69,0,120
1,61,0,0
1,69,60,0
1,62,60,0
1,71,52,240
1,69,0,24
1,62,0,216
1,73,54,0
1,71,0,24
1,74,55,216
1,73,0,24
1,74,0,216
1,71,57,0
1,74,57,0
1,76,59,240
1,74,0,24
1,71,0,216
1,69,61,0
1,78,61,0
1,76,0,24
1,69,0,456
1,69,52,0
1,71,51,240
1,69,0,24
1,71,0,216
1,78,0,0
1,71,48,0
1,76,48,0
1,73,48,240
1,71,0,24
1,73,46,216
1,73,0,24
1,73,0,456
1,76,0,0
1,74,38,0
1,74,0,360
1,72,41,120
1,76,41,0
1,78,41,240
1,76,0,24
1,72,0,216
1,71,40,0
1,79,45,0
1,78,0,24
1,81,41,216
1,79,0,24
1,79,41,216
1,81,0,24
1,78,41,216
1,79,0,24
1,71,0,216
1,75,40,0
1,79,43,0
1,78,0,24
1,78,45,216
1,79,0,24
1,75,0,216
1,72,47,0
1,76,47,0
1,78,0,24
1,76,0,936
1,72,0,0
1,69,44,0
1,74,44,0
1,72,43,240
1,74,0,24
1,69,0,216
1,67,41,0
1,71,41,0
1,72,0,24
1,71,0,456
1,67,0,0
1,67,44,0
1,72,44,0
1,69,43,240
1,67,0,24
1,69,0,216
1,72,0,0
1,62,42,0
1,69,42,0
1,71,42,0
1,69,0,240
1,62,0,0
1,67,41,0
1,67,0,240
1,71,0,0
1,62,37,0
1,67,37,0
1,69,37,0
1,62,0,240
1,66,35,0
1,67,0,24
1,64,34,216
1,66,0,24
1,62,32,216
1,64,0,24
1,62,0,216
1,69,0,0
1,62,42,0
1,66,42,0
1,62,0,240
1,60,45,0
1,66,0,120
1,71,40,0
1,69,44,59
1,71,0,1
1,60,0,0
1,69,0,59
1,61,49,1
1,67,49,0
1,67,0,60
1,61,0,0
