track,note,velocity,time
1,79,57,240
1,72,57,0
1,72,0,475
1,79,0,0
1,79,57,5
1,72,57,0
1,72,0,238
1,79,0,0
1,72,70,2
1,81,70,0
1,81,0,475
1,72,0,0
1,79,57,245
1,72,57,0
1,72,0,475
1,79,0,0
1,79,57,5
1,72,57,0
1,72,0,238
1,79,0,0
1,76,68,2
1,72,68,0
1,72,0,475
1,76,0,0
1,77,54,245
1,72,54,0
1,72,0,475
1,77,0,0
1,72,54,5
1,77,54,0
1,77,0,238
1,72,0,0
1,74,65,2
1,79,65,0
1,79,0,475
1,74,0,0
1,76,51,245
1,72,51,0
1,72,0,475
1,76,0,0
1,72,51,5
1,76,51,0
1,76,0,238
1,72,0,0
1,67,60,2
1,72,60,0
1,72,0,475
1,67,0,0
1,67,45,240
1,72,45,0
1,72,0,475
1,67,0,0
1,67,45,5
1,72,45,0
1,72,0,238
1,67,0,0
1,72,55,2
1,69,55,0
1,69,0,475
1,72,0,0
1,72,45,245
1,67,45,0
1,67,0,475
1,72,0,0
1,72,46,5
1,67,46,0
1,67,0,238
1,72,0,0
1,72,54,2
1,64,54,0
1,64,0,475
1,72,0,0
1,65,43,245
1,67,43,0
1,67,0,475
1,65,0,0
1,67,43,5
1,65,43,0
1,65,0,238
1,67,0,0
1,67,58,2
1,67,0,475
1,67,34,245
1,64,34,0
1,64,0,475
1,67,0,0
1,67,34,5
1,64,34,0
1,64,0,238
1,67,0,0
1,64,45,2
1,67,45,0
1,67,0,475
1,64,0,0
1,79,57,240
1,72,57,0
1,72,0,475
1,79,0,0
1,72,57,5
1,79,57,0
1,79,0,238
1,72,0,0
1,72,70,2
1,81,70,0
1,81,0,475
1,72,0,0
1,79,57,245
1,72,57,0
1,72,0,475
1,79,0,0
1,72,57,5
1,79,57,0
1,79,0,238
1,72,0,0
1,72,68,2
1,76,68,0
1,76,0,475
1,72,0,0
1,72,54,245
1,77,54,0
1,77,0,475
1,72,0,0
1,72,54,5
1,77,54,0
1,77,0,238
1,72,0,0
1,74,67,2
1,79,67,0
1,79,0,475
1,74,0,0
1,72,51,245
1,76,51,0
1,76,0,475
1,72,0,0
1,72,51,5
1,76,51,0
1,76,0,238
1,72,0,0
1,67,63,2
1,72,63,0
1,72,0,475
1,67,0,0
1,72,45,240
1,67,45,0
1,67,0,475
1,72,0,0
1,67,45,5
1,72,45,0
1,72,0,238
1,67,0,0
1,72,56,2
1,69,56,0
1,69,0,475
1,72,0,0
1,67,45,245
1,72,45,0
1,72,0,475
1,67,0,0
1,72,46,5
1,67,46,0
1,67,0,238
1,72,0,0
1,72,55,2
1,64,55,0
1,64,0,475
1,72,0,0
1,67,43,245
1,65,43,0
1,65,0,475
1,67,0,0
1,67,43,5
1,65,43,0
1,65,0,238
1,67,0,0
1,67,54,2
1,67,0,475
1,67,34,245
1,64,34,0
1,64,0,475
1,67,0,0
1,67,34,5
1,64,34,0
1,64,0,238
1,67,0,0
1,67,46,2
1,64,46,0
1,64,0,475
1,67,0,0
1,67,46,240
1,64,46,0
1,72,46,0
1,72,0,475
1,64,0,0
1,67,0,0
1,72,46,5
1,64,46,0
1,67,46,0
1,67,0,238
1,64,0,0
1,72,0,0
1,69,55,2
1,72,55,0
1,64,55,0
1,64,0,475
1,72,0,0
1,69,0,0
1,70,47,240
1,64,47,0
1,72,47,0
1,72,0,475
1,64,0,0
1,70,0,0
1,72,47,5
1,64,47,0
1,70,47,0
1,70,0,238
1,64,0,0
1,72,0,0
1,70,57,2
1,72,57,0
1,65,57,0
1,65,0,475
1,72,0,0
1,70,0,0
1,70,54,240
1,67,54,0
1,72,54,0
1,72,0,475
1,67,0,0
1,70,0,0
1,72,54,5
1,67,54,0
1,70,54,0
1,70,0,238
1,67,0,0
1,72,0,0
1,70,67,2
1,73,67,0
1,67,67,0
1,67,0,475
1,73,0,0
1,70,0,0
1,70,57,240
1,67,57,0
1,74,57,0
1,74,0,475
1,67,0,0
1,70,0,0
1,74,57,5
1,67,57,0
1,70,57,0
1,70,0,238
1,67,0,0
1,74,0,0
1,70,73,2
1,76,73,0
1,67,73,0
1,67,0,475
1,76,0,0
1,70,0,0
1,77,59,240
1,69,59,0
1,74,59,0
1,74,0,475
1,69,0,0
1,77,0,0
1,74,59,5
1,69,59,0
1,77,59,0
1,77,0,238
1,69,0,0
1,74,0,0
1,70,82,2
1,76,82,0
1,67,82,0
1,67,0,475
1,76,0,0
1,70,0,0
1,69,63,240
1,65,63,0
1,74,63,0
1,74,0,475
1,65,0,0
1,69,0,0
1,69,63,5
1,65,63,0
1,74,63,0
1,74,0,238
1,65,0,0
1,69,0,0
1,69,83,2
1,73,83,0
1,64,83,0
1,64,0,475
1,73,0,0
1,69,0,0
1,69,68,240
1,65,68,0
1,74,68,0
1,74,0,475
1,65,0,0
1,69,0,0
1,69,69,5
1,65,69,0
1,74,69,0
1,74,0,238
1,65,0,0
1,69,0,0
1,66,87,2
1,72,87,0
1,63,87,0
1,63,0,475
1,72,0,0
1,66,0,0
1,65,75,240
1,62,75,0
1,72,75,0
1,72,0,475
1,62,0,0
1,65,0,0
1,65,75,5
1,62,75,0
1,72,75,0
1,72,0,238
1,62,0,0
1,65,0,0
1,65,89,2
1,71,89,0
1,62,89,0
1,62,0,475
1,71,0,0
1,65,0,0
1,72,73,240
1,67,73,0
1,67,0,475
1,72,0,0
1,67,73,5
1,72,73,0
1,72,0,238
1,67,0,0
1,72,91,2
1,69,91,0
1,69,0,475
1,72,0,0
1,67,76,245
1,72,76,0
1,72,0,475
1,67,0,0
1,72,76,5
1,67,76,0
1,67,0,238
1,72,0,0
1,67,91,2
1,72,91,0
1,64,91,0
1,64,0,475
1,72,0,0
1,67,0,0
1,72,81,245
1,67,81,0
1,65,81,0
1,65,0,475
1,67,0,0
1,72,0,0
1,72,81,5
1,67,81,0
1,65,81,0
1,65,0,238
1,67,0,0
1,72,0,0
1,72,96,2
1,67,96,0
1,67,0,475
1,72,0,0
1,72,84,245
1,67,84,0
1,64,84,0
1,64,0,475
1,67,0,0
1,72,0,0
1,72,84,5
1,67,84,0
1,64,84,0
1,64,0,238
1,67,0,0
1,72,0,0
1,72,99,2
1,67,99,0
1,60,99,0
1,60,0,475
1,67,0,0
1,72,0,0
1,64,76,240
1,72,76,0
1,67,76,0
1,67,0,475
1,72,0,0
1,64,0,0
1,64,76,5
1,67,76,0
1,72,76,0
1,72,0,238
1,67,0,0
1,64,0,0
1,65,92,2
1,72,92,0
1,67,92,0
1,67,0,475
1,72,0,0
1,65,0,0
1,64,76,245
1,67,76,0
1,72,76,0
1,72,0,475
1,67,0,0
1,64,0,0
1,64,76,5
1,72,76,0
1,67,76,0
1,67,0,238
1,72,0,0
1,64,0,0
1,67,91,2
1,72,91,0
1,60,91,0
1,60,0,475
1,72,0,0
1,67,0,0
1,72,75,245
1,62,75,0
1,67,75,0
1,67,0,475
1,62,0,0
1,72,0,0
1,72,75,5
1,62,75,0
1,67,75,0
1,67,0,238
1,62,0,0
1,72,0,0
1,72,91,2
1,64,91,0
1,67,91,0
1,67,0,475
1,64,0,0
1,72,0,0
1,72,74,245
1,67,74,0
1,60,74,0
1,60,0,475
1,67,0,0
1,72,0,0
1,72,74,5
1,60,74,0
1,60,0,238
1,72,0,0
1,72,92,2
1,60,92,0
1,60,0,360
1,72,0,0
1,67,46,240
1,64,46,0
1,72,46,0
1,72,0,475
1,64,0,0
1,67,0,0
1,72,46,5
1,64,46,0
1,67,46,0
1,67,0,238
1,64,0,0
1,72,0,0
1,69,56,2
1,72,56,0
1,64,56,0
1,64,0,475
1,72,0,0
1,69,0,0
1,70,47,240
1,64,47,0
1,72,47,0
1,72,0,475
1,64,0,0
1,70,0,0
1,72,47,5
1,64,47,0
1,70,47,0
1,70,0,238
1,64,0,0
1,72,0,0
1,70,58,2
1,72,58,0
1,65,58,0
1,65,0,475
1,72,0,0
1,70,0,0
1,70,54,240
1,67,54,0
1,72,54,0
1,72,0,475
