track,note,velocity,time
1,71,51,480
1,78,41,240
1,71,0,110
1,78,0,10
1,71,36,0
1,71,0,120
1,71,50,0
1,79,49,120
1,79,0,360
1,71,0,0
1,71,46,0
1,78,37,240
1,71,0,110
1,78,0,10
1,71,30,0
1,71,0,120
1,71,46,0
1,79,41,120
1,79,0,360
1,71,0,0
1,71,40,0
1,78,34,240
1,71,0,110
1,78,0,10
1,71,27,0
1,71,0,120
1,71,39,0
1,76,30,120
1,76,0,360
1,71,0,0
1,71,39,0
1,78,30,240
1,71,0,110
1,78,0,10
1,71,25,0
1,71,0,120
1,71,48,0
1,83,49,120
1,83,0,360
1,71,0,0
1,71,46,0
1,78,37,240
1,71,0,110
1,78,0,10
1,71,31,0
1,71,0,120
1,71,50,0
1,79,49,120
1,79,0,360
1,71,0,0
1,71,42,0
1,78,37,240
1,71,0,110
1,78,0,10
1,71,30,0
1,71,0,120
1,71,41,0
1,79,39,120
1,79,0,360
1,71,0,0
1,71,39,0
1,78,31,240
1,71,0,110
1,78,0,10
1,71,25,0
1,71,0,120
1,71,38,0
1,76,28,120
1,76,0,360
1,71,0,0
1,71,34,0
1,78,26,240
1,71,0,110
1,78,0,10
1,71,24,0
1,71,0,120
1,80,28,0
1,71,28,0
1,76,28,0
1,83,39,0
1,83,0,480
1,80,0,0
1,71,0,0
1,76,0,0
1,71,40,0
1,83,30,0
1,78,30,0
1,75,30,0
1,69,30,0
1,71,0,120
1,80,42,0
1,80,0,240
1,78,38,0
1,78,0,120
1,75,0,0
1,83,0,0
1,78,0,0
1,69,0,0
1,68,29,0
1,71,29,0
1,76,39,0
1,76,0,480
1,71,0,0
1,68,0,0
1,59,40,0
1,57,29,0
1,63,29,0
1,66,29,0
1,71,29,0
1,59,0,120
1,68,40,0
1,68,0,240
1,66,37,0
1,66,0,120
1,66,0,0
1,57,0,0
1,63,0,0
1,71,0,0
1,56,29,0
1,59,29,0
1,64,38,0
1,64,0,480
1,59,0,0
1,56,0,0
1,63,29,0
1,59,29,0
1,54,36,0
1,54,0,120
1,56,39,0
1,56,0,240
1,54,35,0
1,54,0,120
1,59,0,0
1,63,0,0
1,52,36,0
1,58,25,0
1,61,26,0
1,61,0,240
1,63,33,0
1,63,0,120
1,61,30,0
1,61,0,120
1,58,0,0
1,52,0,0
1,51,27,0
1,59,27,0
1,59,0,480
1,51,0,0
1,71,36,0
1,80,36,0
1,76,36,0
1,83,42,0
1,83,0,480
1,71,0,0
1,80,0,0
1,76,0,0
1,71,40,0
1,83,27,0
1,78,27,0
1,75,27,0
1,69,27,0
1,71,0,120
1,80,42,0
1,80,0,240
1,78,38,0
1,78,0,120
1,75,0,0
1,83,0,0
1,78,0,0
1,69,0,0
1,68,29,0
1,71,29,0
1,76,39,0
1,76,0,480
1,71,0,0
1,68,0,0
1,59,40,0
1,57,29,0
1,63,29,0
1,66,29,0
1,71,29,0
1,59,0,120
1,68,40,0
1,68,0,240
1,66,37,0
1,66,0,120
1,66,0,0
1,57,0,0
1,63,0,0
1,71,0,0
1,56,29,0
1,59,29,0
1,64,38,0
1,64,0,480
1,59,0,0
1,56,0,0
1,63,29,0
1,59,29,0
1,54,36,0
1,54,0,120
1,56,39,0
1,56,0,240
1,54,35,0
1,54,0,120
1,59,0,0
1,63,0,0
1,52,36,0
1,58,25,0
1,61,26,0
1,61,0,240
1,63,30,0
1,63,0,120
1,61,28,0
1,61,0,120
1,58,0,0
1,52,0,0
1,51,25,0
1,59,25,0
1,59,0,480
1,51,0,0
1,62,37,0
1,59,26,0
1,54,26,0
1,62,0,480
1,61,34,0
1,57,32,240
1,61,0,240
1,54,0,0
1,64,37,0
1,57,0,240
1,56,32,0
1,56,0,240
1,59,0,0
1,57,31,0
1,61,35,0
1,61,0,480
1,57,0,0
1,64,0,0
1,61,34,0
1,66,38,0
1,69,38,0
1,69,0,480
1,68,35,0
1,66,0,240
1,64,34,0
1,68,0,240
1,68,34,0
1,70,44,0
1,68,0,240
1,66,38,0
1,61,0,240
1,70,0,0
1,64,0,0
1,63,31,0
1,71,38,0
1,71,0,480
1,63,0,0
1,66,0,0
1,71,34,0
1,64,34,0
1,64,0,480
1,71,0,0
1,64,29,0
1,69,29,0
1,69,0,480
1,64,0,0
1,66,29,0
1,60,46,0
1,60,0,240
1,62,45,0
1,62,0,120
1,60,42,0
1,60,0,120
1,66,0,0
1,67,29,0
1,59,39,0
1,59,0,120
1,64,37,0
1,64,0,240
1,62,34,0
1,62,0,115
1,67,0,5
1,71,28,0
1,64,28,0
1,64,0,480
1,71,0,0
1,64,26,0
1,69,26,0
1,69,0,480
1,64,0,0
1,66,24,0
1,60,36,0
1,60,0,240
1,62,35,0
1,62,0,120
1,60,34,0
1,60,0,120
1,66,0,0
1,71,26,0
1,59,30,0
1,59,0,120
1,67,29,0
1,67,0,240
1,66,26,0
1,66,0,115
1,71,0,5
1,71,42,480
1,78,37,240
1,71,0,110
1,78,0,10
1,71,33,0
1,71,0,120
1,71,42,0
1,79,41,120
1,79,0,360
1,71,0,0
1,71,38,0
1,78,33,240
1,71,0,110
1,78,0,10
1,71,25,0
1,71,0,120
1,71,40,0
1,83,41,120
1,83,0,360
1,71,0,0
1,72,37,0
1,83,29,240
1,72,0,110
1,83,0,10
1,72,24,0
1,72,0,120
1,72,27,0
1,81,28,120
1,81,0,360
1,72,0,0
1,71,33,0
1,81,26,240
1,71,0,110
1,81,0,10
1,71,22,0
1,71,0,120
1,71,26,0
1,79,26,120
1,79,0,360
1,71,0,0
1,69,32,0
1,79,25,240
1,69,0,110
1,79,0,10
1,69,21,0
1,69,0,120
1,69,25,0
1,78,26,120
1,78,0,360
1,69,0,0
1,69,20,0
1,76,20,0
1,76,0,1920
1,69,0,0
2,52,38,0
2,55,38,0
2,59,55,0
2,59,0,240
2,60,50,0
2,60,0,120
2,59,50,0
2,59,0,120
2,55,0,0
2,52,0,0
2,51,33,0
2,59,53,0
2,54,33,0
2,59,0,71
2,66,44,0
2,66,0,360
2,54,0,0
2,51,0,0
2,52,36,0
2,59,50,0
2,55,36,0
2,59,0,191
2,60,50,0
2,60,0,120
2,59,50,0
2,59,0,120
2,55,0,0
2,52,0,0
2,51,29,0
2,59,48,0
2,54,29,0
2,59,0,14
2,66,39,0
2,66,0,360
2,54,0,0
2,51,0,0
2,52,30,0
2,59,41,0
2,55,30,0
2,59,0,141
2,60,41,0
2,60,0,120
2,59,41,0
2,59,0,120
2,55,0,0
2,52,0,0
2,50,26,0
2,54,26,0
2,59,39,0
2,59,0,56
2,66,35,0
2,66,0,360
2,54,0,0
2,50,0,0
2,48,23,0
2,52,22,0
2,59,37,0
2,59,0,184
2,60,33,0
2,60,0,120
2,59,34,0
2,59,0,120
2,52,0,0
2,48,0,0
2,47,19,0
2,51,19,0
2,59,36,0
2,59,0,106
2,66,31,0
2,66,0,49
2,51,0,0
2,47,0,0
2,52,31,0
2,59,47,0
2,55,34,0
2,59,0,120
2,60,45,0
2,60,0,120
2,59,45,0
2,59,0,120
2,55,0,0
2,52,0,0
2,51,29,0
2,54,29,0
2,59,48,0
2,59,0,64
2,66,39,0
2,66,0,360
2,54,0,0
2,51,0,0
2,52,35,0
2,55,35,0
2,59,48,0
2,59,0,176
2,60,50,0
2,60,0,120
2,59,50,0
2,59,0,120
2,55,0,0
2,52,0,0
2,51,27,0
2,54,27,0
2,59,45,0
2,59,0,21
2,66,39,0
2,66,0,360
2,54,0,0
2,51,0,0
2,52,29,0
2,55,29,0
2,59,39,0
2,59,0,155
2,60,37,0
2,60,0,120
2,59,36,0
2,59,0,120
2,55,0,0
2,52,0,0
2,54,25,0
2,59,36,0
2,50,25,0
2,59,0,21
2,66,33,0
2,66,0,360
2,50,0,0
2,54,0,0
2,52,19,0
2,59,34,0
2,48,20,0
2,59,0,148
2,60,29,0
2,60,0,120
2,59,30,0
2,59,0,120
2,48,0,0
2,52,0,0
2,51,16,0
2,59,30,0
2,47,16,0
2,59,0,64
