track,note,velocity,time
1,63,47,1
1,63,0,240
1,68,53,0
1,59,26,120
1,68,0,120
1,71,45,0
1,59,0,120
1,71,0,120
1,70,50,0
1,61,27,120
1,70,0,120
1,67,46,0
1,61,0,120
1,67,0,120
1,68,50,0
1,59,28,120
1,68,0,120
1,70,51,0
1,59,0,120
1,70,0,120
1,71,53,0
1,59,30,120
1,71,0,120
1,73,51,0
1,59,0,120
1,73,0,120
1,75,44,0
1,63,28,120
1,75,0,120
1,76,38,0
1,63,0,120
1,76,0,120
1,73,41,0
1,64,26,120
1,73,0,120
1,75,37,0
1,64,0,120
1,75,0,120
1,71,36,0
1,63,29,120
1,71,0,120
1,63,0,360
1,66,47,120
1,66,0,240
1,71,53,0
1,63,26,120
1,71,0,120
1,75,45,0
1,63,0,120
1,75,0,120
1,73,50,0
1,64,27,120
1,73,0,120
1,70,46,0
1,64,0,120
1,70,0,120
1,71,50,0
1,63,28,120
1,71,0,120
1,73,51,0
1,63,0,120
1,73,0,120
1,75,53,0
1,63,30,120
1,75,0,120
1,77,57,0
1,63,0,120
1,77,0,120
1,78,61,0
1,66,35,120
1,78,0,120
1,80,52,0
1,66,0,120
1,80,0,120
1,77,55,0
1,68,26,120
1,77,0,120
1,78,44,0
1,68,0,120
1,78,0,120
1,75,34,0
1,66,26,120
1,66,0,480
1,75,0,0
1,75,48,120
1,75,0,240
1,76,51,0
1,67,27,120
1,76,0,120
1,73,45,0
1,67,0,120
1,73,0,120
1,75,48,0
1,68,28,120
1,75,0,120
1,71,45,0
1,68,0,120
1,71,0,120
1,71,44,0
1,62,27,120
1,71,0,120
1,68,39,0
1,62,0,120
1,68,0,120
1,67,35,0
1,63,26,120
1,67,0,120
1,70,25,0
1,70,0,360
1,63,0,0
1,63,45,120
1,63,0,237
1,68,51,3
1,59,28,120
1,68,0,120
1,70,53,0
1,59,0,120
1,70,0,120
1,71,55,0
1,61,28,120
1,71,0,120
1,73,52,0
1,61,0,120
1,73,0,120
1,75,55,0
1,61,33,120
1,75,0,120
1,73,53,0
1,61,0,120
1,73,0,120
1,71,50,0
1,71,0,120
1,59,27,0
1,71,46,120
1,59,0,120
1,71,0,120
1,71,49,0
1,61,42,120
1,71,0,120
1,70,46,0
1,61,0,60
1,63,37,0
1,63,0,180
1,70,0,0
1,68,46,0
1,59,26,120
1,68,0,120
1,71,44,0
1,59,0,120
1,71,0,120
1,70,46,0
1,61,27,120
1,70,0,120
1,67,46,0
1,61,0,120
1,67,0,120
1,68,50,0
1,59,28,120
1,68,0,120
1,70,51,0
1,59,0,120
1,70,0,120
1,71,53,0
1,59,30,120
1,71,0,120
1,73,51,0
1,59,0,120
1,73,0,120
1,75,44,0
1,63,28,120
1,75,0,120
1,76,38,0
1,63,0,120
1,76,0,120
1,73,41,0
1,64,26,120
1,73,0,120
1,75,37,0
1,64,0,120
1,75,0,120
1,71,36,0
1,63,29,120
1,63,0,480
1,71,0,0
1,66,51,120
1,66,0,240
1,71,53,0
1,63,26,120
1,71,0,120
1,75,45,0
1,63,0,120
1,75,0,120
1,73,50,0
1,64,27,120
1,73,0,120
1,70,46,0
1,64,0,120
1,70,0,120
1,71,50,0
1,63,28,120
1,71,0,120
1,73,51,0
1,63,0,120
1,73,0,120
1,75,53,0
1,63,30,120
1,75,0,120
1,77,57,0
1,63,0,120
1,77,0,120
1,78,61,0
1,66,35,120
1,78,0,120
1,80,52,0
1,66,0,120
1,80,0,120
1,77,55,0
1,68,26,120
1,77,0,120
1,78,44,0
1,68,0,120
1,78,0,120
1,75,34,0
1,66,26,120
1,66,0,480
1,75,0,0
1,75,48,120
1,75,0,240
1,76,51,0
1,67,27,120
1,76,0,120
1,73,45,0
1,67,0,120
1,73,0,120
1,75,48,0
1,68,28,120
1,75,0,120
1,71,45,0
1,68,0,120
1,71,0,120
1,71,44,0
1,62,27,120
1,71,0,120
1,68,39,0
1,62,0,120
1,68,0,120
1,67,38,0
1,63,26,120
1,67,0,120
1,70,25,0
1,70,0,360
1,63,0,0
1,63,45,120
1,63,0,237
1,68,51,3
1,59,28,120
1,68,0,120
1,70,53,0
1,59,0,120
1,70,0,120
1,71,55,0
1,61,28,120
1,71,0,120
1,73,52,0
1,61,0,120
1,73,0,120
1,75,55,0
1,61,33,120
1,75,0,120
1,73,53,0
1,61,0,120
1,73,0,120
1,71,50,0
1,71,0,120
1,59,27,0
1,71,46,120
1,59,0,120
1,71,0,120
1,71,49,0
1,61,42,120
1,71,0,120
1,70,46,0
1,61,0,60
1,63,41,0
1,63,0,180
1,70,0,0
1,68,46,0
1,59,29,120
1,68,0,120
1,70,50,0
1,59,0,120
1,70,0,120
1,71,52,0
1,59,34,120
1,71,0,120
1,75,56,0
1,59,0,120
1,75,0,120
1,80,61,0
1,80,0,240
1,58,47,0
1,58,0,240
1,59,38,0
1,59,0,240
1,63,36,0
1,68,29,120
1,68,0,480
1,63,0,0
2,44,29,121
2,44,0,120
2,63,35,0
2,63,0,120
2,56,23,0
2,56,0,120
2,51,29,0
2,51,0,120
2,44,33,0
2,44,0,120
2,63,27,0
2,63,0,68
2,55,26,0
2,55,0,120
2,51,30,0
2,51,0,120
2,44,30,0
2,44,0,120
2,63,36,0
2,63,0,40
2,56,26,0
2,56,0,120
2,51,28,0
2,51,0,120
2,43,30,0
2,43,0,120
2,64,35,0
2,64,0,74
2,61,26,0
2,61,0,120
2,52,33,0
2,52,0,120
2,42,35,0
2,42,0,120
2,66,38,0
2,66,0,64
2,59,24,0
2,59,0,120
2,54,29,0
2,54,0,120
2,42,33,0
2,42,0,120
2,66,27,0
2,66,0,64
2,58,27,0
2,58,0,120
2,54,27,0
2,54,0,120
2,47,28,0
2,47,0,120
2,66,30,0
2,59,28,42
2,54,26,120
2,54,0,28
2,59,0,0
2,66,0,0
2,47,29,240
2,47,0,120
2,66,34,0
2,66,0,120
2,59,23,0
2,59,0,120
2,54,29,0
2,54,0,120
2,47,33,0
2,47,0,120
2,67,27,0
2,61,26,7
2,61,0,120
2,54,30,0
2,54,0,120
2,67,0,0
2,47,30,0
2,47,0,120
2,66,34,0
2,66,0,71
2,59,26,0
2,59,0,120
2,54,28,0
2,54,0,120
2,44,30,0
2,44,0,120
2,65,35,0
2,65,0,34
2,59,26,0
2,59,0,120
2,53,33,0
2,53,0,120
2,46,35,0
2,46,0,120
2,70,38,0
2,70,0,34
2,63,24,0
2,63,0,120
2,58,29,0
2,58,0,120
2,46,33,0
2,46,0,120
2,71,27,0
2,62,27,69
2,62,0,120
2,58,27,0
2,58,0,120
2,71,0,0
2,51,28,0
2,51,0,120
2,70,27,0
2,63,26,28
2,58,26,120
2,58,0,360
2,63,0,0
2,70,0,0
2,51,28,240
2,51,0,120
2,70,31,0
2,70,0,120
2,64,24,0
2,64,0,120
2,61,30,0
2,61,0,120
2,51,27,0
2,51,0,120
2,71,30,0
2,71,0,14
2,63,25,0
2,63,0,120
2,59,28,0
2,59,0,120
2,51,28,0
2,51,0,120
2,65,29,0
2,65,0,74
2,59,24,0
2,59,0,120
2,56,28,0
2,56,0,120
2,39,33,0
2,39,0,120
2,67,28,0
2,58,23,64
2,58,0,198
2,67,0,0
2,44,27,240
2,44,0,120
2,63,27,0
2,63,0,120
2,56,22,0
2,56,0,120
2,51,27,0
2,51,0,120
2,40,34,0
2,40,0,120
2,64,29,0
2,56,22,17
2,59,22,0
2,56,0,120
2,55,27,0
2,55,0,120
2,59,0,0
2,64,0,0
2,42,30,0
2,42,0,120
2,64,31,0
2,54,22,14
2,58,22,0
2,54,0,120
2,52,27,0
2,52,0,120
2,58,0,0
2,64,0,0
2,35,42,0
2,35,0,120
2,63,27,0
2,63,0,21
2,54,25,0
2,54,0,120
2,51,27,0
2,51,0,120
2,39,44,0
2,39,0,120
2,63,27,0
2,63,0,81
2,55,27,0
2,55,0,120
2,51,27,0
2,51,0,120
2,44,33,0
2,44,0,120
2,63,33,0
2,63,0,49
2,56,23,0
2,56,0,120
