track,note,velocity,time
1,48,28,240
1,52,33,0
1,52,0,180
1,48,0,0
1,48,28,60
1,52,33,0
1,52,0,180
1,48,0,0
1,48,28,60
1,52,34,0
1,52,0,180
1,48,0,0
1,48,28,60
1,52,34,0
1,52,0,180
1,48,0,0
1,48,28,60
1,52,34,0
1,52,0,180
1,48,0,0
1,48,29,60
1,52,35,0
1,52,0,180
1,48,0,0
1,48,29,60
1,52,35,0
1,52,0,180
1,48,0,0
1,48,30,60
1,52,36,0
1,52,0,180
1,48,0,0
1,48,30,60
1,52,36,0
1,52,0,180
1,48,0,0
1,48,31,60
1,52,37,0
1,52,0,180
1,48,0,0
1,48,32,60
1,52,38,0
1,52,0,180
1,48,0,0
1,48,33,60
1,52,39,0
1,52,0,180
1,48,0,0
1,48,34,60
1,52,40,0
1,52,0,180
1,48,0,0
1,50,34,60
1,54,40,0
1,54,0,180
1,50,0,0
1,50,34,60
1,54,40,0
1,54,0,180
1,50,0,0
1,50,39,60
1,55,46,0
1,55,0,720
1,50,0,0
1,59,40,0
1,59,0,120
1,57,40,0
1,57,0,120
1,55,45,0
1,55,0,120
1,85,46,780
1,85,0,60
1,86,57,0
1,86,0,600
1,84,48,0
1,84,0,120
1,83,47,0
1,83,0,120
1,81,45,0
1,81,0,120
1,79,44,0
1,79,0,240
1,46,29,720
1,50,35,0
1,50,0,180
1,46,0,0
1,46,29,60
1,50,35,0
1,50,0,180
1,46,0,0
1,46,29,60
1,50,35,0
1,50,0,180
1,46,0,0
1,46,30,60
1,50,36,0
1,50,0,180
1,46,0,0
1,46,31,60
1,50,37,0
1,50,0,180
1,46,0,0
1,46,31,60
1,50,37,0
1,50,0,180
1,46,0,0
1,46,32,60
1,50,38,0
1,50,0,180
1,46,0,0
1,46,33,60
1,50,39,0
1,50,0,180
1,46,0,0
1,46,33,60
1,50,39,0
1,50,0,180
1,46,0,0
1,46,34,60
1,50,40,0
1,50,0,180
1,46,0,0
1,46,34,60
1,50,40,0
1,50,0,180
1,46,0,0
1,46,34,60
1,50,40,0
1,50,0,180
1,46,0,0
1,46,34,60
1,50,40,0
1,50,0,180
1,46,0,0
1,46,34,60
1,50,40,0
1,50,0,180
1,46,0,0
1,48,34,60
1,52,40,0
1,52,0,180
1,48,0,0
1,48,34,60
1,52,40,0
1,52,0,180
1,48,0,0
1,48,39,60
1,53,46,0
1,53,0,720
1,48,0,0
1,57,40,0
1,57,0,120
1,55,40,0
1,55,0,120
1,53,45,0
1,53,0,120
1,83,46,780
1,83,0,60
1,84,57,0
1,84,0,600
1,82,50,0
1,82,0,120
1,80,49,0
1,80,0,120
1,79,47,0
1,79,0,120
1,77,46,0
1,77,0,240
1,88,67,660
1,88,0,60
1,89,73,0
1,89,0,1440
1,89,74,0
1,89,0,120
1,87,73,0
1,87,0,120
1,86,71,0
1,86,0,120
1,84,70,0
1,84,0,120
1,83,72,0
1,83,0,120
1,84,71,0
1,84,0,120
1,86,72,0
1,86,0,120
1,87,73,0
1,87,0,120
1,89,74,0
1,89,0,120
1,87,72,0
1,87,0,120
1,86,71,0
1,86,0,120
1,84,69,0
1,84,0,120
1,83,72,0
1,83,0,120
1,84,75,0
1,84,0,120
1,86,77,0
1,86,0,120
1,87,80,0
1,87,0,120
1,89,80,0
1,89,0,120
1,87,80,0
1,87,0,120
1,86,79,0
1,86,0,120
1,84,81,0
1,84,0,120
1,83,85,0
1,83,0,120
1,84,89,0
1,84,0,120
1,86,94,0
1,86,0,120
1,87,98,0
1,87,0,120
1,89,100,0
1,89,0,120
1,87,98,0
1,87,0,120
1,86,96,0
1,86,0,120
1,84,94,0
1,84,0,120
1,83,93,0
1,83,0,120
1,80,91,0
1,80,0,120
1,79,89,0
1,79,0,120
1,77,87,0
1,77,0,120
1,75,85,0
1,75,0,120
1,74,83,0
1,74,0,120
1,72,81,0
1,72,0,120
1,71,79,0
1,71,0,120
1,72,93,0
1,72,0,180
1,67,83,300
1,67,0,180
1,63,72,300
1,63,0,180
1,60,64,300
1,60,0,180
1,55,60,300
1,55,0,1920
1,64,37,0
1,64,0,119
1,60,33,1
1,60,0,120
1,64,37,0
1,64,0,119
1,60,33,1
1,60,0,120
1,64,37,0
1,64,0,119
1,60,33,1
1,60,0,120
1,64,36,0
1,64,0,119
1,60,33,1
1,60,0,120
1,64,36,0
1,64,0,119
1,60,33,1
1,60,0,120
1,64,37,0
1,64,0,119
1,60,33,1
1,60,0,120
1,64,36,0
1,64,0,119
1,60,33,1
1,60,0,120
1,64,36,0
1,64,0,119
1,60,33,1
1,60,0,120
1,64,37,0
1,64,0,119
1,60,33,1
1,60,0,120
1,64,37,0
1,64,0,119
1,60,33,1
1,60,0,120
1,64,37,0
1,64,0,119
1,60,33,1
1,60,0,120
1,64,36,0
1,64,0,119
1,60,33,1
1,60,0,120
1,64,36,0
1,64,0,119
1,60,33,1
1,60,0,120
1,64,37,0
1,64,0,119
1,60,33,1
1,60,0,120
1,66,36,0
1,66,0,119
1,62,33,1
1,62,0,120
1,66,36,0
1,66,0,119
1,62,33,1
1,62,0,120
1,67,46,0
1,67,0,720
1,71,40,0
1,71,0,120
1,69,40,0
1,69,0,120
1,67,45,0
1,67,0,120
1,85,46,780
1,85,0,60
1,86,57,0
1,86,0,600
1,84,48,0
1,84,0,120
1,83,47,0
1,83,0,120
1,81,45,0
1,81,0,120
1,79,44,0
1,79,0,240
1,65,40,720
1,65,0,119
1,62,36,1
1,62,0,120
1,65,40,0
1,65,0,119
1,62,36,1
1,62,0,120
1,65,40,0
1,65,0,119
1,62,36,1
1,62,0,120
1,65,39,0
1,65,0,119
1,62,36,1
1,62,0,120
1,65,39,0
1,65,0,119
1,62,36,1
1,62,0,120
1,65,41,0
1,65,0,119
1,62,36,1
1,62,0,120
1,65,40,0
1,65,0,119
1,62,37,1
1,62,0,120
1,65,40,0
1,65,0,119
1,62,37,1
1,62,0,120
1,65,41,0
1,65,0,119
1,62,37,1
1,62,0,120
1,65,41,0
1,65,0,119
1,62,37,1
1,62,0,120
1,65,42,0
1,65,0,119
1,62,37,1
1,62,0,120
1,65,41,0
1,65,0,119
1,62,38,1
1,62,0,120
1,65,41,0
1,65,0,119
1,62,38,1
1,62,0,120
1,65,42,0
1,65,0,119
1,62,38,1
1,62,0,120
1,68,41,0
1,68,0,119
1,64,38,1
1,64,0,120
1,68,42,0
1,68,0,119
1,64,38,1
1,64,0,120
1,69,55,0
1,69,0,720
1,72,48,0
1,72,0,120
1,71,48,0
1,71,0,120
1,69,53,0
1,69,0,120
1,87,55,780
1,87,0,60
1,88,68,0
1,88,0,600
1,86,59,0
1,86,0,120
1,84,58,0
1,84,0,120
1,83,57,0
1,83,0,120
1,81,57,0
1,81,0,240
1,87,66,660
1,87,0,60
1,88,85,0
1,88,0,600
1,86,76,0
1,86,0,120
1,84,75,0
1,84,0,120
1,83,71,0
1,83,0,120
1,82,71,0
1,82,0,240
1,83,56,720
1,81,54,600
1,83,0,20
1,79,53,100
1,81,0,20
1,78,51,100
1,79,0,20
1,79,53,100
1,78,0,20
1,78,52,100
1,79,0,20
1,76,51,100
1,78,0,20
1,75,50,100
1,76,0,20
1,76,50,100
1,75,0,20
1,79,52,100
1,76,0,20
1,78,50,100
1,79,0,20
1,76,50,100
1,78,0,20
1,75,50,100
1,76,0,20
1,73,49,100
1,75,0,20
1,71,48,100
1,73,0,20
1,70,47,100
1,71,0,20
1,71,49,100
1,70,0,20
1,73,49,100
1,71,0,20
1,74,49,100
1,73,0,20
1,75,50,100
1,74,0,20
1,76,50,100
1,75,0,20
1,75,50,100
1,76,0,20
1,76,51,100
1,75,0,20
1,78,51,100
1,76,0,20
1,79,49,100
1,78,0,20
1,80,50,100
1,79,0,20
1,81,52,100
1,80,0,20
1,82,53,100
1,81,0,20
1,83,55,100
1,82,0,20
1,82,53,100
1,83,0,20
1,83,53,100
1,82,0,20
1,82,50,100
1,83,0,20
1,83,52,100
1,82,0,20
1,81,52,100
